<svg xmlns="http://www.w3.org/2000/svg" xmlns:xlink="http://www.w3.org/1999/xlink" viewBox="0 0 463.93 59.03">
  <defs>
    <style>
      .cls-1 {
        fill: none;
      }

      .cls-2 {
        fill: #81868a;
      }

      .cls-3 {
        fill: #b9bbc3;
      }

      .cls-4 {
        clip-path: url(#clip-path);
      }

      .cls-5 {
        fill: #383f37;
      }

      .cls-6 {
        fill: #abb085;
      }

      .cls-7 {
        fill: #1d1d1b;
      }

      .cls-8 {
        fill: #becc54;
      }

      .cls-9 {
        fill: #fff;
      }

      .cls-10 {
        fill: #93a74f;
      }
    </style>
    <clipPath id="clip-path">
      <rect id="mask" class="cls-1" x="11.75" y="8.42" width="440.68" height="42.17"/>
    </clipPath>
  </defs>
  <g id="items-to-use">
    <g id="progress-bar">
      <g id="backGround">
        <rect class="cls-2" x="11.49" y="8.43" width="440.94" height="8.43"/>
        <rect class="cls-3" x="11.49" y="16.86" width="440.94" height="33.74"/>
      </g>
      <g class="cls-4">
        <g id="level">
          <g>
            <rect class="cls-5" x="22.98" y="42.16" width="11.49" height="8.44"/>
            <rect class="cls-6" x="22.98" y="8.42" width="11.49" height="8.43"/>
            <rect x="11.49" y="8.42" width="11.49" height="8.43"/>
            <rect x="11.49" y="42.16" width="11.49" height="8.43"/>
            <polygon class="cls-7" points="22.98 33.73 22.98 42.16 34.48 42.16 34.48 33.73 34.48 25.29 34.48 16.85 22.98 16.85 22.98 25.29 22.98 33.73"/>
          </g>
          <rect class="cls-8" x="34.48" y="16.85" width="417.96" height="33.75"/>
          <rect class="cls-9" x="34.48" y="8.42" width="406.82" height="8.43"/>
        </g>
      </g>
      <g id="contorn">
        <rect class="cls-10" x="440.95" y="8.43" width="11.49" height="8.43"/>
        <polygon class="cls-7" points="452.44 8.42 452.44 16.85 452.44 25.29 452.44 33.73 452.44 42.16 452.44 50.6 463.93 50.6 463.93 42.16 463.93 33.73 463.93 25.29 463.93 16.85 463.93 8.42 452.44 8.42"/>
        <polygon class="cls-7" points="0 8.42 0 16.85 0 25.29 0 33.73 0 42.16 0 50.6 11.49 50.6 11.49 42.16 11.49 33.73 11.49 25.29 11.49 16.85 11.49 8.42 0 8.42"/>
        <rect x="11.49" width="440.94" height="8.43"/>
        <rect x="11.49" y="50.6" width="440.94" height="8.43"/>
      </g>
    </g>
  </g>
</svg>
