<svg xmlns="http://www.w3.org/2000/svg" viewBox="0 0 150 166.96">
  <defs>
    <style>
      .cls-1 {
        fill: #d5ecf2;
      }

      .cls-2 {
        fill: #fad169;
      }

      .cls-3 {
        fill: #e28835;
      }

      .cls-4 {
        fill: #fff;
      }
    </style>
  </defs>
  <g id="items-to-use">
    <g id="beer">
      <rect class="cls-1" x="38" y="151.09" width="52.43" height="11.17"/>
      <polygon id="liquid" class="cls-2" points="14.63 64.25 23.99 63.07 102.21 62.43 91.39 136.81 75.67 153.44 33.61 153.44 27.7 141.32 24.58 132.3 19.38 123.29 16.25 98.42 14.63 64.25"/>
      <polygon id="shadow" class="cls-3" points="92.26 68.47 92.26 86.04 92.26 107.39 90.8 107.39 90.8 112.64 90.8 117.89 86.67 117.89 86.67 122.59 86.67 126.71 82.14 126.71 82.14 131.41 82.14 136.1 78.13 136.1 78.13 142.14 78.13 144.92 73.61 144.92 73.61 149.62 73.54 153.44 90.36 153.44 90.43 149.62 90.43 148.18 94.95 148.18 94.95 142.14 94.95 139.35 99.09 139.35 99.09 132.31 99.09 129.96 102.92 129.96 102.92 118.51 102.92 108 106.87 108 106.87 86.04 109.17 86.04 109.17 68.47 92.26 68.47"/>
      <polygon class="cls-1" points="36.2 148.04 36.2 139.22 32.3 139.22 32.3 129.69 27.68 129.69 27.68 105.17 24.2 105.17 24.2 84.17 22.5 84.17 22.5 65.03 17.32 65.03 17.32 86.04 19.02 86.04 19.02 108.69 22.5 108.69 22.5 129.69 27.12 129.69 27.12 139.35 31.02 139.35 31.02 148.88 34.14 148.88 34.14 157.7 39.32 157.7 39.32 148.04 36.2 148.04"/>
      <polygon class="cls-1" points="113.11 67.23 125.94 67.23 132.18 71.48 137.65 78.53 141.37 83.22 146.88 90.52 145.89 113.02 136.68 123.26 131.07 127.61 124.83 129.96 114.55 132.31 106.04 132.31 105.34 117.43 117.67 117.19 123.92 115.08 127.95 108.69 132.18 101.72 130.16 90.27 124.42 84.8 116.1 83.22 113.11 82.45 113.11 67.23"/>
      <polygon id="scum" class="cls-4" points="115.41 27.79 110.63 23.74 105.09 22.39 98.97 25.57 96.48 22.85 90.43 13.71 84.39 9.39 72.33 8.89 71.9 4.85 63.48 2.74 55.46 4.7 49.22 9.39 42.97 14.09 42.31 16.43 36.73 16.43 36.73 14.09 17.75 14.09 17.75 23.48 11.5 23.48 11.5 28.17 11.5 32.87 17.75 32.87 24.12 32.87 24.12 37.56 12.12 37.56 11.88 37.56 11.88 42.26 6.25 42.26 6.25 56.86 10.9 56.86 10.9 60.19 12.12 60.19 17.14 60.19 20.01 60.19 25.83 86.34 36.79 87.14 42.91 83.09 48.55 63.77 57.97 61.88 62.33 63.77 67.71 93.99 73.1 97.54 76.03 100.36 79.28 100.67 86.26 98.09 88.01 75.87 90.43 66.12 110.75 63.77 120.06 57.96 122.57 55.08 122.66 33.2 115.41 27.79"/>
      <g id="scum-details">
        <rect x="28.53" y="40.54" width="6.25" height="15.43"/>
        <rect x="33.61" y="35.84" width="6.25" height="4.7"/>
        <rect x="39.18" y="31.15" width="10.65" height="4.7"/>
        <rect x="49.22" y="35.84" width="6.25" height="4.7"/>
        <rect x="53.99" y="40.54" width="6.25" height="4.7"/>
        <rect x="56.08" y="45.23" width="6.25" height="4.7"/>
        <rect x="52.96" y="31.15" width="6.25" height="4.7"/>
        <rect x="57.86" y="26.45" width="6.25" height="4.7"/>
        <rect x="63.46" y="31.15" width="6.25" height="4.7"/>
        <rect x="78.64" y="45.23" width="6.25" height="4.7"/>
        <rect x="81.76" y="40.54" width="6.25" height="4.7"/>
        <rect x="91.31" y="51.27" width="6.25" height="4.7"/>
        <rect x="95.97" y="40.54" width="6.25" height="11.15"/>
        <rect x="87.31" y="35.84" width="10.77" height="4.7"/>
      </g>
      <g id="outer-line">
        <polygon points="11.5 23.48 5.26 23.48 5.26 28.17 5.26 32.87 11.5 32.87 11.5 28.17 11.5 23.48"/>
        <polygon points="17.75 18.78 17.75 14.09 11.5 14.09 11.5 18.78 11.5 23.48 17.75 23.48 17.75 18.78"/>
        <rect x="17.75" y="9.39" width="18.98" height="4.7"/>
        <rect x="42.97" y="9.39" width="6.25" height="4.7"/>
        <rect x="49.22" y="4.7" width="6.25" height="4.7"/>
        <polygon points="84.19 9.01 84.19 4.7 77.94 4.7 71.7 4.7 71.7 9.39 77.94 9.39 84.19 9.39 84.19 13.71 90.43 13.71 90.43 9.01 84.19 9.01"/>
        <polygon points="96.68 13.71 90.43 13.71 90.43 18.4 90.43 23.1 96.68 23.1 96.68 18.4 96.68 13.71"/>
        <polygon points="109.17 23.1 109.17 18.78 102.92 18.78 102.92 23.1 96.68 23.1 96.68 27.79 102.92 27.79 102.92 23.48 109.17 23.48 109.17 27.79 115.41 27.79 115.41 23.1 109.17 23.1"/>
        <rect x="115.41" y="27.79" width="6.25" height="4.7"/>
        <rect x="143.75" y="90.27" width="6.25" height="22.18"/>
        <polygon points="141.55 117.19 137.51 117.19 137.51 121.53 133.28 121.53 133.28 125.27 127.04 125.27 127.04 127.61 116.27 127.61 116.27 132.31 127.04 132.31 127.04 129.96 133.28 129.96 133.28 126.23 139.53 126.23 139.53 121.89 143.75 121.89 143.75 117.19 147.8 117.19 147.8 112.5 141.55 112.5 141.55 117.19"/>
        <rect x="68.57" y="94.67" width="6.25" height="4.7"/>
        <path d="M116.1,119.78v-2.35h10.08v-4.69h4.89v-8.09h4.24v-12h-3.13V87.92H127v-4.7H120.8V80.1h-5.39V69.58h11.91v1.91h3.12v4.69h4.09v4.7h3.71v4.69H141v4.64h6.24V85.52h-2.75V80.88h-3.72v-4.7h-4.09V71.49h-3.12v-4.7h-6v-1.9H116.24V60.66H122V56h5.88V32.49h-6.24V56h-5.88v4.22H110v3.58H89.14v4.7H86v28h-5v2.94H74.82v4.69h6.24v-2.93h6.25v-4.7h5v-28h16.91V86h-2.3v22h-4v22H99.09v9.39H95v8.82H90.43v9.4H82v4.69H43.19v-4.69H34.68v-8.83H30.83v-9.39H27.21V130H22.5V108H19.38V86H17.75V64.89h3.13v22h6.24v3.67H37.84V87.14h6.24V82.45h4.47V64.22H62.33V59.53H48.55v4.62H42.31v18.3H37.84v3.38H27.12V64.89H21.61v-4.7H10.9V56.86H6.25V42.26h5.63v-4.7H24V32.87H11.5v4.69H5.63v4.27H0v15H4.65v4.69H10.9v3.34h.6v22h1.63V108h3.13v22H21v9.39h3.61v9.39h3.86v8.83h4v4.69h7.59V167H86v-4.7h6.65v-4.69h4v-8.83h4.52v-9.39h4.14v-4.69H116.1V130h-6.93V119.78Zm-3-11.78V86.85h2.3v-2h5.39v3.12h5.14v4.69h3.12v12h-4.23v8.09h-9.42v2.34h-6.24V108Z"/>
        <rect x="62.33" y="64.22" width="6.25" height="30.45"/>
        <rect x="84.19" y="23.1" width="6.25" height="4.7"/>
        <rect x="55.46" width="16.04" height="4.7"/>
        <rect x="36.73" y="14.09" width="6.25" height="4.7"/>
      </g>
    </g>
  </g>
</svg>
