<svg width="1440" height="1024" viewBox="0 0 1440 1024" fill="none" xmlns="http://www.w3.org/2000/svg">
<g clip-path="url(#clip0_102_3)">
<rect width="1440" height="1024" fill="white"/>
<path d="M1447.09 -0.0805664H-0.330078V1027.11H1447.09V-0.0805664Z" fill="#02151C"/>
<path d="M1447.09 790.549V236.479H1436.64V281.279H1417.16V236.479H1385.68V265.829H1334.71V310.64H1289.74V236.479H1253.76V279.739H1204.29V236.479H1169.81V276.649H1127.83V236.479H1078.37V255.02H1009.41V236.479H967.43V290.549H926.96V236.479H895.48V265.829H837.01V301.369H781.54V251.919H744.07V278.189H711.09V247.289H664.62V284.369H595.66V236.479H540.19V259.649H493.72V236.479H451.75V258.109H388.78V296.73H348.31V236.479H312.33V268.92H261.36V236.479H235.88V256.559H157.93V305.999H121.95V236.479H67.9799V264.29H-0.330078V790.549H1447.09Z" fill="#032430"/>
<path d="M1447.09 1027.11V473.029H1436.64V517.839H1417.16V473.029H1385.68V502.379H1334.71V547.189H1289.74V473.029H1253.76V516.289H1204.29V473.029H1169.81V513.199H1127.83V473.029H1078.37V491.569H1009.41V473.029H967.43V527.109H926.96V473.029H895.48V502.379H837.01V537.919H781.54V488.479H744.07V514.749H711.09V483.839H664.62V520.919H595.66V473.029H540.19V496.199H493.72V473.029H451.75V494.659H388.78V533.289H348.31V473.029H312.33V505.479H261.36V473.029H235.88V493.119H157.93V542.559H121.95V473.029H67.9799V500.839H-0.330078V1027.11H1447.09Z" fill="#043142"/>
<path d="M1281.36 933.397V948.506H1232.54H1183.73V933.397H988.48V948.506H927.46V933.397H280.68V948.506H244.07H207.46V933.397H0V1024H1440V933.397H1281.36Z" fill="#EAAC68"/>
<path opacity="0.75" d="M0 1008.9L1440 1008.9V993.807L0 993.807V1008.9Z" fill="#D88A3D"/>
<path d="M0 1024L1440 1024V1008.9L0 1008.9V1024Z" fill="#D88A3D"/>
<path opacity="0.5" d="M0 993.807L1440 993.807V978.711L0 978.711V993.807Z" fill="#D88A3D"/>
<path opacity="0.25" d="M0 978.699L1440 978.699V963.602L0 963.602V978.699Z" fill="#D88A3D"/>
<path d="M195.25 918.301H0V933.397H195.25V918.301Z" fill="#D88A3D"/>
<path d="M170.85 903.205H36.61V918.301H170.85V903.205Z" fill="#D88A3D"/>
<path d="M146.44 888.097H61.02V903.193H146.44V888.097Z" fill="#D88A3D"/>
<path d="M85.42 873H73.22V888.096H85.42H97.63V873H85.42Z" fill="#D88A3D"/>
<path d="M109.83 873H97.63V888.096H109.83H122.03V873H109.83Z" fill="#D88A3D"/>
<path d="M97.63 918.301H61.02V933.397H97.63H134.24V918.301H97.63Z" fill="#C97A32"/>
<path d="M146.44 888.097H109.83V903.193H146.44V888.097Z" fill="#E5A35D"/>
<path d="M122.03 873H85.42V888.096H122.03V873Z" fill="#E5A35D"/>
<path d="M170.85 903.205H134.24V918.301H170.85V903.205Z" fill="#E5A35D"/>
<path d="M195.25 918.301H158.64V933.397H195.25V918.301Z" fill="#E5A35D"/>
<path d="M122.03 873H109.83V888.096H122.03V873Z" fill="#EAAC68"/>
<path d="M146.44 888.097H134.24V903.193H146.44V888.097Z" fill="#EAAC68"/>
<path d="M170.84 903.205H158.64V918.301H170.84V903.205Z" fill="#EAAC68"/>
<path d="M195.25 918.301H183.05V933.397H195.25V918.301Z" fill="#EAAC68"/>
<path d="M109.83 903.205H97.63V918.301H109.83V903.205Z" fill="#C97A32"/>
<path d="M829.83 918.301H658.98V933.397H829.83V918.301Z" fill="#D88A3D"/>
<path d="M805.43 903.205H671.19V918.301H805.43V903.205Z" fill="#D88A3D"/>
<path d="M781.01 888.097H695.59V903.193H781.01V888.097Z" fill="#D88A3D"/>
<path d="M720 873H707.8V888.096H720H732.2V873H720Z" fill="#D88A3D"/>
<path d="M744.41 873H732.2V888.096H744.41H756.61V873H744.41Z" fill="#D88A3D"/>
<path d="M720 918.301H671.19V933.397H720H768.81V918.301H720Z" fill="#C97A32"/>
<path d="M781.02 888.097H744.41V903.193H781.02V888.097Z" fill="#E5A35D"/>
<path d="M756.61 873H720V888.096H756.61V873Z" fill="#E5A35D"/>
<path d="M805.42 903.205H768.81V918.301H805.42V903.205Z" fill="#E5A35D"/>
<path d="M829.83 918.301H793.22V933.397H829.83V918.301Z" fill="#E5A35D"/>
<path d="M756.61 873H744.41V888.096H756.61V873Z" fill="#EAAC68"/>
<path d="M781.01 888.097H768.81V903.193H781.01V888.097Z" fill="#EAAC68"/>
<path d="M805.42 903.205H793.22V918.301H805.42V903.205Z" fill="#EAAC68"/>
<path d="M829.83 918.301H817.63V933.397H829.83V918.301Z" fill="#EAAC68"/>
<path d="M744.4 903.205H732.2V918.301H744.4V903.205Z" fill="#C97A32"/>
<path d="M707.79 903.205H695.59V918.301H707.79V903.205Z" fill="#C97A32"/>
<path d="M1171.53 918.301H1000.68V933.397H1171.53V918.301Z" fill="#D88A3D"/>
<path d="M1147.12 903.205H1012.88V918.301H1147.12V903.205Z" fill="#D88A3D"/>
<path d="M1122.71 888.097H1037.29V903.193H1122.71V888.097Z" fill="#D88A3D"/>
<path d="M1061.69 873H1049.49V888.096H1061.69H1073.9V873H1061.69Z" fill="#D88A3D"/>
<path d="M1086.1 873H1073.9V888.096H1086.1H1098.31V873H1086.1Z" fill="#D88A3D"/>
<path d="M1061.69 918.301H1012.88V933.397H1061.69H1110.51V918.301H1061.69Z" fill="#C97A32"/>
<path d="M1122.71 888.097H1086.1V903.193H1122.71V888.097Z" fill="#E5A35D"/>
<path d="M1098.31 873H1061.7V888.096H1098.31V873Z" fill="#E5A35D"/>
<path d="M1147.12 903.205H1110.51V918.301H1147.12V903.205Z" fill="#E5A35D"/>
<path d="M1171.53 918.301H1134.92V933.397H1171.53V918.301Z" fill="#E5A35D"/>
<path d="M1098.3 873H1086.1V888.096H1098.3V873Z" fill="#EAAC68"/>
<path d="M1122.71 888.097H1110.51V903.193H1122.71V888.097Z" fill="#EAAC68"/>
<path d="M1147.12 903.205H1134.92V918.301H1147.12V903.205Z" fill="#EAAC68"/>
<path d="M1171.52 918.301H1159.32V933.397H1171.52V918.301Z" fill="#EAAC68"/>
<path d="M1086.1 903.205H1073.9V918.301H1086.1V903.205Z" fill="#C97A32"/>
<path d="M1049.49 903.205H1037.29V918.301H1049.49V903.205Z" fill="#C97A32"/>
<path d="M500.33 918.301H305.08V933.397H500.33V918.301Z" fill="#D88A3D"/>
<path d="M597.97 903.205H353.9V918.301H597.97V903.205Z" fill="#D88A3D"/>
<path d="M500.34 888.097H378.31V903.193H500.34V888.097Z" fill="#D88A3D"/>
<path d="M634.57 918.301H439.32V933.397H634.57V918.301Z" fill="#D88A3D"/>
<path d="M549.16 873H414.92V888.096H549.16V873Z" fill="#D88A3D"/>
<path d="M585.76 888.097H500.34V903.193H585.76V888.097Z" fill="#D88A3D"/>
<path d="M536.95 888.097H500.34V903.193H536.95V888.097Z" fill="#C97A32"/>
<path d="M524.75 873H512.54V888.096H524.75H536.95V873H524.75Z" fill="#D88A3D"/>
<path d="M549.15 873H536.95V888.096H549.15H561.36V873H549.15Z" fill="#D88A3D"/>
<path d="M482.03 918.301H390.51V933.397H482.03H573.56V918.301H482.03Z" fill="#C97A32"/>
<path d="M585.76 888.097H549.15V903.193H585.76V888.097Z" fill="#E5A35D"/>
<path d="M561.36 873H463.73V888.096H561.36V873Z" fill="#E5A35D"/>
<path d="M610.17 903.205H573.56V918.301H610.17V903.205Z" fill="#E5A35D"/>
<path d="M634.58 918.301H597.97V933.397H634.58V918.301Z" fill="#E5A35D"/>
<path d="M561.35 873H549.15V888.096H561.35V873Z" fill="#EAAC68"/>
<path d="M585.76 888.097H573.56V903.193H585.76V888.097Z" fill="#EAAC68"/>
<path d="M610.17 903.205H597.97V918.301H610.17V903.205Z" fill="#EAAC68"/>
<path d="M634.57 918.301H622.37V933.397H634.57V918.301Z" fill="#EAAC68"/>
<path d="M549.15 903.205H536.95V918.301H549.15V903.205Z" fill="#C97A32"/>
<path d="M390.51 903.205H378.31V918.301H390.51V903.205Z" fill="#C97A32"/>
<path d="M500.34 903.205H402.71V918.301H500.34V903.205Z" fill="#C97A32"/>
<path d="M1440 918.301H1293.44V933.397H1440V918.301Z" fill="#D88A3D"/>
<path d="M1440 903.205H1342.26V918.301H1440V903.205Z" fill="#D88A3D"/>
<path d="M1440 888.097H1366.66V903.193H1440V888.097Z" fill="#D88A3D"/>
<path d="M1440 873H1403.27V888.096H1440V873Z" fill="#D88A3D"/>
<path d="M1409.43 918.301H1378.87V933.397H1409.43H1440V918.301H1409.43Z" fill="#C97A32"/>
<path d="M1378.86 903.205H1366.66V918.301H1378.86V903.205Z" fill="#C97A32"/>
<path d="M1439.88 888.097H1427.68V903.193H1439.88V888.097Z" fill="#C97A32"/>
<path d="M1440 903.205H1391.07V918.301H1440V903.205Z" fill="#C97A32"/>
<path d="M1378.87 933.397H1329.94V948.494H1378.87V933.397Z" fill="#D88A3D"/>
<path d="M1342.14 933.397H1329.94V948.494H1342.14V933.397Z" fill="#C97A32"/>
<path d="M927.45 918.301H915.25V933.397H927.45V918.301Z" fill="#C97A32"/>
<path d="M1000.67 933.397H988.47V948.494H1000.67V933.397Z" fill="#C97A32"/>
<path d="M1183.73 933.397H1171.53V948.494H1183.73V933.397Z" fill="#C97A32"/>
<path d="M1293.44 963.603H1281.24V978.699H1293.44V963.603Z" fill="#C97A32"/>
<path d="M1391.07 993.807H1378.87V1008.9H1391.07V993.807Z" fill="#C97A32"/>
<path d="M1293.44 933.397H1281.24V948.494H1293.44V933.397Z" fill="#C97A32"/>
<path d="M939.66 933.397H927.46V948.494H939.66V933.397Z" fill="#C97A32"/>
<path d="M903.05 918.301H866.44V933.397H903.05V918.301Z" fill="#C97A32"/>
<path d="M268.46 933.397H256.26V948.494H268.46V933.397Z" fill="#D88A3D"/>
<path d="M707.8 948.506H658.98V963.602H707.8H756.61V948.506H707.8Z" fill="#C97A32"/>
<path d="M726.1 948.506H695.59V963.602H726.1H756.61V948.506H726.1Z" fill="#D88A3D"/>
<path d="M1049.49 948.506H1037.29V963.602H1049.49H1061.69V948.506H1049.49Z" fill="#D88A3D"/>
<path d="M1043.39 963.603H1012.88V978.699H1043.39H1073.9V963.603H1043.39Z" fill="#C97A32"/>
<path d="M683.39 963.603H634.58V978.699H683.39H732.2V963.603H683.39Z" fill="#C97A32"/>
<path d="M671.18 963.603H658.98V978.699H671.18V963.603Z" fill="#D88A3D"/>
<path d="M634.58 963.603H610.17V978.699H634.58V963.603Z" fill="#D88A3D"/>
<path d="M1086.1 948.506H1073.9V963.602H1086.1V948.506Z" fill="#C97A32"/>
<path d="M878.64 978.699H866.44V993.795H878.64V978.699Z" fill="#C97A32"/>
<path d="M1073.9 963.603H1061.7V978.699H1073.9V963.603Z" fill="#D88A3D"/>
<path d="M1098.3 963.603H1086.1V978.699H1098.3V963.603Z" fill="#D88A3D"/>
<path d="M341.69 963.603H317.29V978.699H341.69H366.1V963.603H341.69Z" fill="#C97A32"/>
<path d="M390.51 948.506H378.31V963.602H390.51V948.506Z" fill="#C97A32"/>
<path d="M585.76 978.699H573.56V993.795H585.76V978.699Z" fill="#C97A32"/>
<path d="M183.06 978.699H256.27V963.602H183.06V978.699Z" fill="#D88A3D"/>
<path d="M402.71 963.603H390.51V978.699H402.71V963.603Z" fill="#D88A3D"/>
<path d="M1195.93 948.506H1183.73V963.602H1195.93H1208.14V948.506H1195.93Z" fill="#D88A3D"/>
<path d="M915.25 948.506H903.05V963.602H915.25H927.46V948.506H915.25Z" fill="#D88A3D"/>
<path d="M1220.34 963.603H1208.14V978.699H1220.34H1232.54V963.603H1220.34Z" fill="#D88A3D"/>
<path d="M1244.74 963.603H1232.54V978.699H1244.74V963.603Z" fill="#C97A32"/>
<path d="M183.05 978.699H170.85V993.795H183.05V978.699Z" fill="#D88A3D"/>
<path d="M97.62 978.699H85.42V993.795H97.62V978.699Z" fill="#D88A3D"/>
</g>
<defs>
<clipPath id="clip0_102_3">
<rect width="1440" height="1024" fill="white"/>
</clipPath>
</defs>
</svg>
