<svg id="Layer_1" data-name="Layer 1" xmlns="http://www.w3.org/2000/svg" viewBox="0 0 1440 1024">
  <defs>
    <style>
      .cls-1 {
        fill: #29bbed;
      }

      .cls-2 {
        fill: #60c5ec;
      }

      .cls-3 {
        fill: #8ad0ef;
      }

      .cls-4 {
        fill: #a2c154;
      }

      .cls-5 {
        fill: #8aa648;
      }

      .cls-6 {
        fill: #7e4d2d;
      }

      .cls-7 {
        fill: #945834;
      }

      .cls-8 {
        fill: #a27458;
      }
    </style>
  </defs>
  <g>
    <rect class="cls-1" x="-8.33" y="-3.08" width="1447.42" height="1027.19"/>
    <polygon class="cls-2" points="1439.09 787.55 1439.09 233.48 1428.64 233.48 1428.64 278.28 1409.16 278.28 1409.16 233.48 1377.68 233.48 1377.68 262.83 1326.71 262.83 1326.71 307.64 1281.74 307.64 1281.74 233.48 1245.76 233.48 1245.76 276.74 1196.29 276.74 1196.29 233.48 1161.81 233.48 1161.81 273.65 1119.83 273.65 1119.83 233.48 1070.37 233.48 1070.37 252.02 1001.41 252.02 1001.41 233.48 959.43 233.48 959.43 287.55 918.96 287.55 918.96 233.48 887.48 233.48 887.48 262.83 829.01 262.83 829.01 298.37 773.54 298.37 773.54 248.92 736.07 248.92 736.07 275.19 703.09 275.19 703.09 244.29 656.62 244.29 656.62 281.37 587.66 281.37 587.66 233.48 532.19 233.48 532.19 256.65 485.72 256.65 485.72 233.48 443.75 233.48 443.75 255.11 380.78 255.11 380.78 293.73 340.31 293.73 340.31 233.48 304.33 233.48 304.33 265.92 253.36 265.92 253.36 233.48 227.88 233.48 227.88 253.56 149.93 253.56 149.93 303 113.95 303 113.95 233.48 59.98 233.48 59.98 261.29 -8.33 261.29 -8.33 787.55 1439.09 787.55"/>
    <polygon class="cls-3" points="1439.09 1024.11 1439.09 470.03 1428.64 470.03 1428.64 514.84 1409.16 514.84 1409.16 470.03 1377.68 470.03 1377.68 499.38 1326.71 499.38 1326.71 544.19 1281.74 544.19 1281.74 470.03 1245.76 470.03 1245.76 513.29 1196.29 513.29 1196.29 470.03 1161.81 470.03 1161.81 510.2 1119.83 510.2 1119.83 470.03 1070.37 470.03 1070.37 488.57 1001.41 488.57 1001.41 470.03 959.43 470.03 959.43 524.11 918.96 524.11 918.96 470.03 887.48 470.03 887.48 499.38 829.01 499.38 829.01 534.92 773.54 534.92 773.54 485.48 736.07 485.48 736.07 511.75 703.09 511.75 703.09 480.84 656.62 480.84 656.62 517.92 587.66 517.92 587.66 470.03 532.19 470.03 532.19 493.2 485.72 493.2 485.72 470.03 443.75 470.03 443.75 491.66 380.78 491.66 380.78 530.29 340.31 530.29 340.31 470.03 304.33 470.03 304.33 502.48 253.36 502.48 253.36 470.03 227.88 470.03 227.88 490.12 149.93 490.12 149.93 539.56 113.95 539.56 113.95 470.03 59.98 470.03 59.98 497.84 -8.33 497.84 -8.33 1024.11 1439.09 1024.11"/>
    <g>
      <g>
        <g>
          <rect class="cls-4" x="1020.54" y="713.7" width="418.55" height="144.12"/>
          <polygon class="cls-5" points="1439.09 738.35 1407.47 738.35 1407.47 767.91 1343.92 767.91 1343.92 788.24 1251.68 788.24 1251.68 839.98 1210.68 839.98 1210.68 767.91 1157.38 767.91 1157.38 793.78 1087.68 793.78 1087.68 830.74 1020.54 830.74 1020.54 857.82 1439.09 857.82 1439.09 738.35"/>
          <rect class="cls-6" x="1020.54" y="857.82" width="418.55" height="166.29"/>
          <polygon class="cls-7" points="1439.09 985.95 1439.09 906.5 1430.02 906.5 1430.02 934.21 1378.77 934.21 1378.77 902.8 1331.62 902.8 1331.62 876.94 1313.17 876.94 1313.17 897.26 1296.78 897.26 1296.78 926.82 1261.93 926.82 1261.93 897.26 1216.83 897.26 1216.83 934.21 1181.98 934.21 1181.98 886.17 1116.38 886.17 1116.38 906.5 1061.04 906.5 1061.04 939.76 1020.54 939.76 1020.54 973.02 1069.24 973.02 1069.24 1024.11 1095.88 1024.11 1095.88 956.39 1134.83 956.39 1134.83 989.65 1163.53 989.65 1163.53 967.48 1227.08 967.48 1227.08 997.04 1257.83 997.04 1257.83 969.33 1317.27 969.33 1317.27 1002.58 1362.37 1002.58 1362.37 978.57 1401.32 978.57 1401.32 985.95 1439.09 985.95"/>
        </g>
        <rect class="cls-6" x="1312.15" y="928.95" width="27.16" height="24.02"/>
        <rect class="cls-6" x="1373.13" y="947.74" width="27.16" height="24.02"/>
        <rect class="cls-6" x="1257.83" y="952.97" width="27.16" height="24.02"/>
        <rect class="cls-6" x="1163.53" y="954.7" width="27.16" height="24.02"/>
        <rect class="cls-6" x="1115.7" y="904.93" width="27.16" height="24.02"/>
        <rect class="cls-6" x="1044.64" y="939.11" width="27.16" height="24.02"/>
        <rect class="cls-6" x="1302.92" y="835.64" width="32.8" height="24.02"/>
        <rect class="cls-6" x="1145.08" y="845.8" width="32.8" height="24.02"/>
        <rect class="cls-5" x="1270.13" y="847.65" width="32.8" height="24.02"/>
        <rect class="cls-5" x="1367.5" y="846.45" width="32.8" height="24.02"/>
        <rect class="cls-5" x="1201.46" y="852.73" width="32.8" height="24.02"/>
        <rect class="cls-5" x="1073.34" y="845.8" width="32.8" height="24.02"/>
      </g>
      <g>
        <g>
          <rect class="cls-4" x="-8.33" y="713.7" width="1054.62" height="144.12"/>
          <polygon class="cls-5" points="1016.12 751.28 1016.12 773.46 995.62 773.46 995.62 795.63 948.47 795.63 948.47 814.11 903.37 814.11 903.37 782.7 882.87 782.7 882.87 773.46 841.88 773.46 841.88 762.37 804.98 762.37 804.98 790.09 786.53 790.09 786.53 830.74 766.03 830.74 766.03 790.09 733.23 790.09 733.23 753.13 710.68 753.13 710.68 804.87 636.88 804.87 636.88 754.98 569.24 754.98 569.24 791.94 532.34 791.94 532.34 810.42 485.19 810.42 485.19 786.39 468.79 786.39 468.79 797.48 421.64 797.48 421.64 738.35 378.6 738.35 378.6 767.91 315.05 767.91 315.05 788.24 222.8 788.24 222.8 839.98 181.81 839.98 181.81 767.91 128.51 767.91 128.51 793.78 58.81 793.78 58.81 830.74 -8.33 830.74 -8.33 857.82 1046.29 857.82 1046.29 751.28 1016.12 751.28"/>
          <rect class="cls-6" x="-8.33" y="857.82" width="1054.62" height="166.29"/>
          <polygon class="cls-7" points="1012.02 943.46 1046.29 943.46 1046.29 926.82 1024.32 926.82 1024.32 875.09 966.92 875.09 966.92 904.65 903.37 904.65 903.37 857.82 880.82 857.82 880.82 897.26 852.13 897.26 852.13 912.04 815.23 912.04 815.23 897.26 759.88 897.26 759.88 919.43 706.58 919.43 706.58 857.82 696.33 857.82 696.33 893.56 632.79 893.56 632.79 932.37 554.89 932.37 554.89 902.8 503.64 902.8 503.64 886.17 487.24 886.17 487.24 943.46 429.84 943.46 429.84 906.5 401.15 906.5 401.15 934.21 349.9 934.21 349.9 902.8 302.75 902.8 302.75 876.94 284.3 876.94 284.3 897.26 267.9 897.26 267.9 926.82 233.06 926.82 233.06 897.26 187.96 897.26 187.96 934.21 153.11 934.21 153.11 886.17 87.51 886.17 87.51 906.5 32.16 906.5 32.16 939.76 -8.33 939.76 -8.33 973.02 40.36 973.02 40.36 1024.11 67.01 1024.11 67.01 956.39 105.96 956.39 105.96 989.65 134.66 989.65 134.66 967.48 198.21 967.48 198.21 997.04 228.95 997.04 228.95 969.33 288.4 969.33 288.4 1002.58 333.5 1002.58 333.5 978.57 372.45 978.57 372.45 985.95 429.84 985.95 429.84 967.48 530.29 967.48 530.29 956.39 655.33 956.39 655.33 997.04 673.78 997.04 673.78 974.87 774.23 974.87 774.23 1024.11 813.18 1024.11 813.18 943.46 854.17 943.46 854.17 982.26 884.92 982.26 884.92 954.54 956.67 954.54 956.67 1009.98 1005.87 1009.98 1005.87 985.95 1012.02 985.95 1012.02 943.46"/>
        </g>
        <path class="cls-8" d="M1007.46,889.22h10.13v-.42Q1012.52,888.94,1007.46,889.22Z"/>
        <rect class="cls-6" x="913.62" y="835.64" width="32.8" height="24.02"/>
        <rect class="cls-6" x="587.69" y="835.64" width="32.8" height="24.02"/>
        <rect class="cls-6" x="415.49" y="835.64" width="32.8" height="24.02"/>
        <rect class="cls-6" x="283.28" y="928.95" width="27.16" height="24.02"/>
        <rect class="cls-6" x="344.26" y="947.74" width="27.16" height="24.02"/>
        <rect class="cls-6" x="509.96" y="914.47" width="27.16" height="24.03"/>
        <rect class="cls-6" x="483.14" y="949.89" width="27.16" height="24.02"/>
        <rect class="cls-6" x="584.61" y="922.18" width="27.16" height="24.02"/>
        <rect class="cls-6" x="666.61" y="928.95" width="27.16" height="24.02"/>
        <rect class="cls-6" x="712.73" y="940.96" width="27.16" height="24.02"/>
        <rect class="cls-6" x="776.79" y="910.16" width="27.16" height="24.02"/>
        <rect class="cls-6" x="847.26" y="918.48" width="27.16" height="24.02"/>
        <rect class="cls-6" x="956.58" y="910.16" width="27.16" height="24.02"/>
        <rect class="cls-6" x="977.42" y="952.97" width="27.16" height="24.02"/>
        <rect class="cls-6" x="913.62" y="940.96" width="27.16" height="24.02"/>
        <rect class="cls-6" x="796.05" y="980.07" width="27.16" height="24.02"/>
        <rect class="cls-6" x="228.95" y="952.97" width="27.16" height="24.02"/>
        <rect class="cls-6" x="134.66" y="954.7" width="27.16" height="24.02"/>
        <rect class="cls-6" x="86.83" y="904.93" width="27.16" height="24.02"/>
        <rect class="cls-6" x="15.76" y="939.11" width="27.16" height="24.02"/>
        <rect class="cls-6" x="274.05" y="835.64" width="32.8" height="24.02"/>
        <rect class="cls-6" x="686.08" y="846.45" width="32.8" height="24.02"/>
        <rect class="cls-6" x="793.23" y="845.8" width="32.8" height="24.02"/>
        <rect class="cls-6" x="116.21" y="845.8" width="32.8" height="24.02"/>
        <rect class="cls-5" x="241.25" y="847.65" width="32.8" height="24.02"/>
        <rect class="cls-5" x="338.62" y="846.45" width="32.8" height="24.02"/>
        <rect class="cls-5" x="466.74" y="852.73" width="32.8" height="24.02"/>
        <rect class="cls-5" x="533.37" y="846.45" width="32.8" height="24.02"/>
        <rect class="cls-5" x="653.28" y="852.73" width="32.8" height="24.02"/>
        <rect class="cls-5" x="743.99" y="852.73" width="32.8" height="24.02"/>
        <rect class="cls-5" x="844.44" y="852.73" width="32.8" height="24.02"/>
        <rect class="cls-5" x="965.38" y="838.41" width="32.8" height="24.02"/>
        <rect class="cls-5" x="172.58" y="852.73" width="32.8" height="24.02"/>
        <rect class="cls-5" x="44.46" y="845.8" width="32.8" height="24.02"/>
      </g>
    </g>
  </g>
</svg>
