<svg id="Layer_1" data-name="Layer 1" xmlns="http://www.w3.org/2000/svg" xmlns:xlink="http://www.w3.org/1999/xlink" viewBox="0 0 151.49 213.39">
  <defs>
    <style>
      .cls-1, .cls-15 {
        fill: none;
      }

      .cls-2 {
        fill: url(#linear-gradient);
      }

      .cls-3 {
        font-size: 17px;
        fill: #d1d1d1;
        font-family: MyriadPro-Regular, Myriad Pro;
      }

      .cls-4 {
        letter-spacing: -0.01em;
      }

      .cls-5 {
        letter-spacing: -0.01em;
      }

      .cls-6 {
        letter-spacing: 0.01em;
      }

      .cls-7 {
        letter-spacing: -0.01em;
      }

      .cls-8 {
        clip-path: url(#clip-path);
      }

      .cls-9 {
        fill: #eaeae8;
      }

      .cls-10 {
        fill: #efde0a;
      }

      .cls-11 {
        fill: url(#linear-gradient-2);
      }

      .cls-12 {
        fill: #004964;
      }

      .cls-13 {
        clip-path: url(#clip-path-2);
      }

      .cls-14 {
        fill: url(#linear-gradient-3);
      }

      .cls-15, .cls-16, .cls-17, .cls-18, .cls-19, .cls-20 {
        stroke: #000;
        stroke-miterlimit: 10;
      }

      .cls-16 {
        fill: #f9f9f9;
        stroke-width: 0.75px;
      }

      .cls-17, .cls-18, .cls-19, .cls-20 {
        stroke-width: 0.78px;
      }

      .cls-17 {
        fill: url(#linear-gradient-4);
      }

      .cls-18 {
        fill: url(#linear-gradient-5);
      }

      .cls-19 {
        fill: url(#linear-gradient-6);
      }

      .cls-20 {
        fill: url(#linear-gradient-7);
      }
    </style>
    <linearGradient id="linear-gradient" x1="1.95" y1="122.39" x2="151.04" y2="122.39" gradientUnits="userSpaceOnUse">
      <stop offset="0.01" stop-color="#9e005d"/>
      <stop offset="0.07" stop-color="#a90461" stop-opacity="0.97"/>
      <stop offset="0.13" stop-color="#ca116d" stop-opacity="0.88"/>
      <stop offset="0.17" stop-color="#ed1e79" stop-opacity="0.79"/>
      <stop offset="0.23" stop-color="#d81671" stop-opacity="0.85"/>
      <stop offset="0.36" stop-color="#b70966" stop-opacity="0.93"/>
      <stop offset="0.55" stop-color="#a3025f" stop-opacity="0.99"/>
      <stop offset="1" stop-color="#9e005d"/>
    </linearGradient>
    <clipPath id="clip-path">
      <rect id="mask" class="cls-1" x="121.49" y="46.39" width="17" height="154" rx="8.42"/>
    </clipPath>
    <linearGradient id="linear-gradient-2" x1="119.02" y1="123.39" x2="140.97" y2="123.39" gradientUnits="userSpaceOnUse">
      <stop offset="0" stop-color="#fff" stop-opacity="0.21"/>
      <stop offset="0.31" stop-color="#fff" stop-opacity="0.9"/>
      <stop offset="0.35" stop-color="#fff"/>
      <stop offset="0.4" stop-color="#fff" stop-opacity="0.86"/>
      <stop offset="0.47" stop-color="#fff" stop-opacity="0.7"/>
      <stop offset="0.54" stop-color="#fff" stop-opacity="0.56"/>
      <stop offset="0.61" stop-color="#fff" stop-opacity="0.44"/>
      <stop offset="0.69" stop-color="#fff" stop-opacity="0.35"/>
      <stop offset="0.78" stop-color="#fff" stop-opacity="0.29"/>
      <stop offset="0.87" stop-color="#fff" stop-opacity="0.25"/>
      <stop offset="1" stop-color="#fff" stop-opacity="0.24"/>
    </linearGradient>
    <clipPath id="clip-path-2">
      <rect class="cls-1" x="12.59" y="43.39" width="90" height="90" rx="11.71"/>
    </clipPath>
    <linearGradient id="linear-gradient-3" x1="6.68" y1="88.39" x2="95.68" y2="88.39" gradientUnits="userSpaceOnUse">
      <stop offset="0" stop-color="#fff" stop-opacity="0"/>
      <stop offset="0.02" stop-color="#fff" stop-opacity="0.04"/>
      <stop offset="0.04" stop-color="#fff" stop-opacity="0.13"/>
      <stop offset="0.07" stop-color="#fff" stop-opacity="0.29"/>
      <stop offset="0.11" stop-color="#fff" stop-opacity="0.5"/>
      <stop offset="0.15" stop-color="#fff" stop-opacity="0.77"/>
      <stop offset="0.15" stop-color="#fff" stop-opacity="0.79"/>
      <stop offset="0.16" stop-color="#fff" stop-opacity="0.77"/>
      <stop offset="0.24" stop-color="#fff" stop-opacity="0.59"/>
      <stop offset="0.32" stop-color="#fff" stop-opacity="0.43"/>
      <stop offset="0.4" stop-color="#fff" stop-opacity="0.3"/>
      <stop offset="0.49" stop-color="#fff" stop-opacity="0.19"/>
      <stop offset="0.59" stop-color="#fff" stop-opacity="0.11"/>
      <stop offset="0.69" stop-color="#fff" stop-opacity="0.05"/>
      <stop offset="0.82" stop-color="#fff" stop-opacity="0.01"/>
      <stop offset="1" stop-color="#fff" stop-opacity="0"/>
    </linearGradient>
    <linearGradient id="linear-gradient-4" x1="76.58" y1="14.64" x2="94.58" y2="14.64" gradientUnits="userSpaceOnUse">
      <stop offset="0.3" stop-color="red"/>
      <stop offset="0.37" stop-color="red" stop-opacity="0.98"/>
      <stop offset="0.77" stop-color="red" stop-opacity="0.87"/>
      <stop offset="1" stop-color="red" stop-opacity="0.83"/>
    </linearGradient>
    <linearGradient id="linear-gradient-5" x1="76.08" y1="28.89" x2="95.08" y2="28.89" gradientUnits="userSpaceOnUse">
      <stop offset="0" stop-color="#666"/>
      <stop offset="0.18" stop-color="#a0a0a0"/>
      <stop offset="0.34" stop-color="#ccc"/>
      <stop offset="0.46" stop-color="#e8e8e8"/>
      <stop offset="0.53" stop-color="#f2f2f2"/>
      <stop offset="0.98" stop-color="#666"/>
    </linearGradient>
    <linearGradient id="linear-gradient-6" x1="30.58" y1="14.64" x2="48.58" y2="14.64" gradientUnits="userSpaceOnUse">
      <stop offset="0.3" stop-color="#006837"/>
      <stop offset="0.54" stop-color="#006837" stop-opacity="0.93"/>
      <stop offset="1" stop-color="#006837" stop-opacity="0.83"/>
    </linearGradient>
    <linearGradient id="linear-gradient-7" x1="30.08" y1="28.89" x2="49.08" y2="28.89" xlink:href="#linear-gradient-5"/>
  </defs>
  <g>
    <g id="box">
      <rect class="cls-2" x="1.95" y="31.84" width="149.09" height="181.09" rx="14.23"/>
      <path d="M136.8,32.3a13.79,13.79,0,0,1,13.78,13.78V198.7a13.79,13.79,0,0,1-13.78,13.78H16.18A13.79,13.79,0,0,1,2.4,198.7V46.08A13.79,13.79,0,0,1,16.18,32.3H136.8m0-.91H16.18A14.69,14.69,0,0,0,1.49,46.08V198.7a14.69,14.69,0,0,0,14.69,14.69H136.8a14.69,14.69,0,0,0,14.69-14.69V46.08A14.68,14.68,0,0,0,136.8,31.39Z"/>
    </g>
    <text class="cls-3" transform="translate(13.61 156.37)">Hoppily <tspan class="cls-4" x="59.36" y="0">E</tspan><tspan class="cls-5" x="67.61" y="0">v</tspan><tspan x="75.62" y="0">er </tspan><tspan class="cls-4" x="27.33" y="20.4">A</tspan><tspan class="cls-6" x="37.61" y="20.4">f</tspan><tspan class="cls-7" x="42.76" y="20.4">t</tspan><tspan x="48.29" y="20.4" xml:space="preserve">er  </tspan></text>
    <text class="cls-3" transform="translate(33.4 197.57)">2500 cl</text>
    <g id="pipet">
      <g id="level-mask">
        <g class="cls-8">
          <g id="level">
            <g id="scum">
              <path class="cls-9" d="M135.82,60H124.53a2.67,2.67,0,0,1-2.67-2.67V54.58a8.19,8.19,0,0,1,8.19-8.19h.25a8.19,8.19,0,0,1,8.19,8.19V57.3A2.66,2.66,0,0,1,135.82,60Z"/>
            </g>
            <g id="liquid">
              <rect class="cls-10" x="121.86" y="49.3" width="16.63" height="151.09" rx="7.99"/>
            </g>
          </g>
        </g>
      </g>
      <g id="glass">
        <path class="cls-11" d="M130,202.87a11,11,0,0,1-11-11v-137a11,11,0,1,1,22,0v137A11,11,0,0,1,130,202.87Z"/>
        <path class="cls-12" d="M130,44.44a10.46,10.46,0,0,1,10.46,10.45v137a10.46,10.46,0,0,1-20.91,0v-137A10.46,10.46,0,0,1,130,44.44m0-1a11.5,11.5,0,0,0-11.5,11.5v137a11.5,11.5,0,1,0,23,0v-137A11.5,11.5,0,0,0,130,43.39Z"/>
      </g>
    </g>
    <g id="pic-holder">
      <g id="pic-mask">
        <g class="cls-13">
          <image width="810" height="924" transform="translate(13.36 43.39) scale(0.11)" xlink:href="../../../material/images/row26.png"/>
        </g>
      </g>
      <g id="glass-2" data-name="glass">
        <rect class="cls-14" x="12.99" y="43.89" width="89" height="89" rx="11.21"/>
        <path d="M90.78,44.39A10.72,10.72,0,0,1,101.49,55.1v66.58a10.72,10.72,0,0,1-10.71,10.71H24.2a10.73,10.73,0,0,1-10.71-10.71V55.1A10.72,10.72,0,0,1,24.2,44.39H90.78m0-1H24.2A11.71,11.71,0,0,0,12.49,55.1v66.58A11.71,11.71,0,0,0,24.2,133.39H90.78a11.71,11.71,0,0,0,11.71-11.71V55.1A11.71,11.71,0,0,0,90.78,43.39Z"/>
      </g>
    </g>
    <g id="bulb-red">
      <g>
        <line class="cls-15" x1="83.42" y1="23.33" x2="81.58" y2="13.83"/>
        <line class="cls-15" x1="87.73" y1="23.33" x2="89.58" y2="13.83"/>
        <line class="cls-15" x1="81.58" y1="14.39" x2="89.58" y2="14.39"/>
      </g>
      <rect class="cls-16" x="82.99" y="20.89" width="5" height="7" rx="2.5"/>
      <path id="glass-red" class="cls-17" d="M94.58,8.53A8.14,8.14,0,0,0,86.43.39H84.72a8.13,8.13,0,0,0-8.14,8.14v8.72a8.05,8.05,0,0,0,1.23,4.29,5.45,5.45,0,0,1,.77,2.87v4.48h14V24.41a5.44,5.44,0,0,1,.76-2.87,8.06,8.06,0,0,0,1.24-4.29Z"/>
      <path class="cls-18" d="M78.94,25.89H92.21a2.86,2.86,0,0,1,2.86,2.86v3.14a0,0,0,0,1,0,0h-19a0,0,0,0,1,0,0V28.75A2.86,2.86,0,0,1,78.94,25.89Z"/>
    </g>
    <g id="bulb-green">
      <g>
        <line class="cls-15" x1="37.42" y1="23.33" x2="35.58" y2="13.83"/>
        <line class="cls-15" x1="41.73" y1="23.33" x2="43.58" y2="13.83"/>
        <line class="cls-15" x1="35.58" y1="14.39" x2="43.58" y2="14.39"/>
      </g>
      <rect class="cls-16" x="36.99" y="20.89" width="5" height="7" rx="2.5"/>
      <path id="glass-green" class="cls-19" d="M48.58,8.53A8.14,8.14,0,0,0,40.43.39H38.72a8.13,8.13,0,0,0-8.14,8.14v8.72a8.05,8.05,0,0,0,1.23,4.29,5.45,5.45,0,0,1,.77,2.87v4.48h14V24.41a5.44,5.44,0,0,1,.76-2.87,8.06,8.06,0,0,0,1.24-4.29Z"/>
      <path class="cls-20" d="M32.94,25.89H46.21a2.86,2.86,0,0,1,2.86,2.86v3.14a0,0,0,0,1,0,0h-19a0,0,0,0,1,0,0V28.75A2.86,2.86,0,0,1,32.94,25.89Z"/>
    </g>
  </g>
</svg>
