<?xml version="1.0" encoding="utf-8"?>
<!-- Generator: Adobe Illustrator 25.2.1, SVG Export Plug-In . SVG Version: 6.00 Build 0)  -->
<svg version="1.1" id="Capa_1" xmlns="http://www.w3.org/2000/svg" xmlns:xlink="http://www.w3.org/1999/xlink" x="0px" y="0px"
	 viewBox="0 0 952.4 683.1" style="enable-background:new 0 0 952.4 683.1;" xml:space="preserve">
<style type="text/css">
	.st0{fill:#2BBCEE;}
	.st1{fill:#61C6ED;}
	.st2{fill:#8AD1F0;}
	.st3{fill:#A3C254;}
	.st4{fill:#8BA748;}
	.st5{fill:#7F4D2E;}
	.st6{fill:#945835;}
	.st7{fill:#A37458;}
	.st8{fill:#C1E5F5;}
	.st9{fill:#FFFFFF;}
	.st10{fill:#9D5728;}
	.st11{fill:#AA5E2B;}
	.st12{fill:#864C25;}
	.st13{fill:none;stroke:#512F17;stroke-width:9.9456;stroke-miterlimit:10;}
	.st14{fill:#F7C804;}
	.st15{fill:#EAA71E;}
	.st16{fill:#D73B5D;}
	.st17{fill:#E32221;}
	.st18{fill:#B73C6B;}
	.st19{fill:#383F37;}
	.st20{fill:#BECC54;}
	.st21{fill:#B9BCC3;}
	.st22{fill:#93A850;}
	.st23{fill:#ACB186;}
	.st24{fill:#82868A;}
	.st25{fill:#2E322D;}
	.st26{fill:#2A2A28;}
	.st27{fill:#D65A7F;}
	.st28{fill:#D9DA84;}
	.st29{fill:#F2A317;}
	.st30{fill:#FAF1CE;}
	.st31{fill:#FDCD00;}
	.st32{fill:#E68F21;}
</style>
<g>
	<polygon class="st8" points="876.2,637.5 876.2,614.8 857.2,614.8 857.2,592 838.1,592 838.1,569.2 838.1,546.5 819.1,546.5 
		819.1,523.7 819.1,500.9 819.1,478.1 819.1,455.4 819.1,432.6 819.1,409.8 819.1,387.1 800,387.1 800,409.8 781,409.8 781,432.6 
		761.9,432.6 742.9,432.6 723.8,432.6 704.8,432.6 685.7,432.6 666.7,432.6 666.7,409.8 647.6,409.8 647.6,387.1 628.6,387.1 
		628.6,364.3 609.5,364.3 609.5,387.1 590.5,387.1 590.5,409.8 590.5,432.6 571.4,432.6 571.4,455.4 552.4,455.4 552.4,478.1 
		533.4,478.1 533.4,500.9 514.3,500.9 495.2,500.9 495.2,523.7 476.2,523.7 457.2,523.7 438.1,523.7 419.1,523.7 400,523.7 
		381,523.7 361.9,523.7 342.9,523.7 342.9,500.9 323.8,500.9 304.8,500.9 304.8,478.1 285.7,478.1 285.7,455.4 266.7,455.4 
		266.7,432.6 247.6,432.6 228.6,432.6 228.6,455.4 209.5,455.4 209.5,478.1 190.5,478.1 171.4,478.1 152.4,478.1 133.3,478.1 
		114.3,478.1 95.2,478.1 95.2,455.4 76.2,455.4 76.2,432.6 57.1,432.6 57.1,409.8 57.1,387.1 38.1,387.1 38.1,364.3 38.1,341.5 
		38.1,318.8 38.1,296 19,296 19,318.8 19,341.5 19,364.3 0,364.3 0,387.1 0,409.8 0,432.6 0,455.4 0,478.1 0,500.9 19,500.9 
		19,523.7 19,546.5 19,569.2 38.1,569.2 38.1,592 38.1,614.8 57.1,614.8 57.1,637.5 76.2,637.5 76.2,660.3 95.2,660.3 114.3,660.3 
		114.3,683.1 133.3,683.1 152.4,683.1 171.4,683.1 190.5,683.1 209.5,683.1 228.6,683.1 247.6,683.1 266.7,683.1 285.7,683.1 
		304.8,683.1 323.8,683.1 342.9,683.1 361.9,683.1 381,683.1 400,683.1 419.1,683.1 438.1,683.1 457.2,683.1 476.2,683.1 
		495.2,683.1 514.3,683.1 533.4,683.1 552.4,683.1 571.4,683.1 590.5,683.1 609.5,683.1 628.6,683.1 647.6,683.1 666.7,683.1 
		685.7,683.1 704.8,683.1 723.8,683.1 742.9,683.1 761.9,683.1 781,683.1 800,683.1 819.1,683.1 838.1,683.1 857.2,683.1 
		876.2,683.1 876.2,660.3 895.3,660.3 895.3,637.5 	"/>
	<polygon class="st9" points="933.4,432.6 933.4,409.8 933.4,387.1 914.3,387.1 914.3,364.3 895.3,364.3 895.3,341.5 876.2,341.5 
		876.2,318.8 857.2,318.8 838.1,318.8 819.1,318.8 819.1,296 819.1,273.2 819.1,250.4 800,250.4 800,227.7 800,204.9 800,182.1 
		781,182.1 781,159.4 761.9,159.4 761.9,136.6 742.9,136.6 742.9,113.8 723.8,113.8 723.8,91.1 704.8,91.1 685.7,91.1 666.7,91.1 
		647.6,91.1 628.6,91.1 609.5,91.1 590.5,91.1 571.4,91.1 571.4,113.8 552.4,113.8 552.4,91.1 552.4,68.3 533.4,68.3 533.4,45.5 
		514.3,45.5 495.2,45.5 495.2,22.8 476.2,22.8 476.2,0 457.2,0 438.1,0 419.1,0 400,0 381,0 361.9,0 361.9,22.8 342.9,22.8 
		323.8,22.8 323.8,45.5 304.8,45.5 304.8,68.3 285.7,68.3 285.7,91.1 266.7,91.1 266.7,113.8 247.6,113.8 247.6,136.6 247.6,159.4 
		247.6,182.1 228.6,182.1 209.5,182.1 190.5,182.1 171.4,182.1 152.4,182.1 133.3,182.1 114.3,182.1 114.3,204.9 95.2,204.9 
		76.2,204.9 76.2,227.7 57.1,227.7 57.1,250.4 38.1,250.4 38.1,273.2 38.1,296 38.1,318.8 38.1,341.5 38.1,364.3 38.1,387.1 
		57.1,387.1 57.1,409.8 57.1,432.6 76.2,432.6 76.2,455.4 95.2,455.4 95.2,478.1 114.3,478.1 133.3,478.1 152.4,478.1 171.4,478.1 
		190.5,478.1 209.5,478.1 209.5,455.4 228.6,455.4 228.6,432.6 247.6,432.6 266.7,432.6 266.7,455.4 285.7,455.4 285.7,478.1 
		304.8,478.1 304.8,500.9 323.8,500.9 342.9,500.9 342.9,523.7 361.9,523.7 381,523.7 400,523.7 419.1,523.7 438.1,523.7 
		457.2,523.7 476.2,523.7 495.2,523.7 495.2,500.9 514.3,500.9 533.4,500.9 533.4,478.1 552.4,478.1 552.4,455.4 571.4,455.4 
		571.4,432.6 590.5,432.6 590.5,409.8 590.5,387.1 609.5,387.1 609.5,364.3 628.6,364.3 628.6,387.1 647.6,387.1 647.6,409.8 
		666.7,409.8 666.7,432.6 685.7,432.6 704.8,432.6 723.8,432.6 742.9,432.6 761.9,432.6 781,432.6 781,409.8 800,409.8 800,387.1 
		819.1,387.1 819.1,409.8 819.1,432.6 819.1,455.4 819.1,478.1 819.1,500.9 819.1,523.7 819.1,546.5 838.1,546.5 838.1,569.2 
		838.1,592 857.2,592 857.2,614.8 876.2,614.8 876.2,637.5 895.3,637.5 895.3,660.3 914.3,660.3 914.3,637.5 914.3,614.8 
		933.4,614.8 933.4,592 952.4,592 952.4,569.2 952.4,546.5 952.4,523.7 952.4,500.9 952.4,478.1 952.4,455.4 952.4,432.6 	"/>
</g>
</svg>
