<?xml version="1.0" encoding="utf-8"?>
<!-- Generator: Adobe Illustrator 25.2.1, SVG Export Plug-In . SVG Version: 6.00 Build 0)  -->
<svg version="1.1" id="Capa_1" xmlns="http://www.w3.org/2000/svg" xmlns:xlink="http://www.w3.org/1999/xlink" x="0px" y="0px"
	 viewBox="0 0 255.1 238.2" style="enable-background:new 0 0 255.1 238.2;" xml:space="preserve">
<style type="text/css">
	.st0{fill:#2BBCEE;}
	.st1{fill:#61C6ED;}
	.st2{fill:#8AD1F0;}
	.st3{fill:#A3C254;}
	.st4{fill:#8BA748;}
	.st5{fill:#7F4D2E;}
	.st6{fill:#945835;}
	.st7{fill:#A37458;}
	.st8{fill:#C1E5F5;}
	.st9{fill:#FFFFFF;}
	.st10{fill:#9D5728;}
	.st11{fill:#AA5E2B;}
	.st12{fill:#864C25;}
	.st13{fill:none;stroke:#512F17;stroke-width:9.9456;stroke-miterlimit:10;}
	.st14{fill:#F7C804;}
	.st15{fill:#EAA71E;}
	.st16{fill:#D73B5D;}
	.st17{fill:#E32221;}
	.st18{fill:#B73C6B;}
	.st19{fill:#383F37;}
	.st20{fill:#BECC54;}
	.st21{fill:#B9BCC3;}
	.st22{fill:#93A850;}
	.st23{fill:#ACB186;}
	.st24{fill:#82868A;}
	.st25{fill:#2E322D;}
	.st26{fill:#2A2A28;}
	.st27{fill:#D65A7F;}
	.st28{fill:#D9DA84;}
	.st29{fill:#F2A317;}
	.st30{fill:#FAF1CE;}
	.st31{fill:#FDCD00;}
	.st32{fill:#E68F21;}
</style>
<g>
	<rect x="204.1" y="206.4" class="st29" width="8.5" height="7.9"/>
	<rect x="212.6" y="182.6" class="st29" width="8.5" height="7.9"/>
	<rect x="42.5" y="103.2" class="st30" width="8.5" height="7.9"/>
	<polygon class="st29" points="246.6,79.4 238.1,79.4 229.6,79.4 221.1,79.4 221.1,87.3 221.1,95.3 221.1,103.2 221.1,111.1 
		221.1,119.1 221.1,127 221.1,135 221.1,142.9 221.1,150.8 221.1,158.8 221.1,166.7 212.6,166.7 212.6,174.6 212.6,182.6 
		221.1,182.6 221.1,190.5 212.6,190.5 212.6,182.6 204.1,182.6 204.1,190.5 195.6,190.5 195.6,198.5 187.1,198.5 187.1,206.4 
		187.1,214.3 178.6,214.3 170.1,214.3 170.1,222.3 161.6,222.3 161.6,230.2 153.1,230.2 144.5,230.2 144.5,238.2 153.1,238.2 
		161.6,238.2 170.1,238.2 178.6,238.2 178.6,230.2 187.1,230.2 195.6,230.2 195.6,222.3 204.1,222.3 204.1,214.3 204.1,206.4 
		212.6,206.4 212.6,214.3 221.1,214.3 221.1,206.4 221.1,198.5 229.6,198.5 229.6,190.5 238.1,190.5 238.1,182.6 238.1,174.6 
		246.6,174.6 246.6,166.7 246.6,158.8 255.1,158.8 255.1,150.8 255.1,142.9 255.1,135 255.1,127 255.1,119.1 255.1,111.1 
		255.1,103.2 255.1,95.3 255.1,87.3 255.1,79.4 	"/>
	<polygon points="161.6,230 161.6,230.2 144.5,230.2 144.5,238.2 178.6,238.2 178.6,230.2 195.6,230.2 195.6,230 	"/>
	<rect x="204.1" y="55.6" class="st9" width="8.5" height="7.9"/>
	<g>
		<path class="st31" d="M204.1,79.4v-7.9v-7.9v-7.9h-8.5v-7.9h-8.5v-7.9h-8.5v-7.9h-8.5v-7.9h-8.5v-7.9h-8.5h-8.5V7.9H136h-8.5H119
			h-8.5H102h-8.5H85h-8.5v7.9H68h-8.5v7.9H51v7.9h-8.5v7.9H34v7.9h-8.5v7.9v7.9H17v7.9v7.9H8.5v7.9v7.9v7.9v7.9v7.9v7.9v7.9v7.9v7.9
			v7.9H17v7.9v7.9h8.5v7.9v7.9H34v7.9h8.5v7.9H51v7.9h8.5v7.9H68h8.5v7.9H85h8.5h8.5h8.5h8.5h8.5h8.5h8.5v-7.9h8.5h8.5v-7.9h8.5
			v-7.9h8.5v-7.9h8.5v-7.9h8.5v-7.9h8.5v-7.9v-7.9h8.5v-7.9v-7.9v-7.9V135V127v-7.9v-7.9v-7.9v-7.9v-7.9v-7.9H204.1z M42.5,87.3
			v-7.9v-7.9H51v-7.9h8.5v-7.9H68v-7.9h8.5v-7.9H85h8.5h8.5h8.5h8.5h8.5h8.5h8.5v7.9h8.5v7.9h8.5v7.9h8.5v7.9h8.5v7.9v7.9h8.5v7.9
			v7.9v7.9v7.9v7.9v7.9v7.9v7.9h-8.5v7.9v7.9h-8.5v7.9h-8.5v7.9h-8.5v7.9h-8.5v7.9H136h-8.5H119h-8.5H102h-8.5H85h-8.5v-7.9H68v-7.9
			h-8.5v-7.9H51v-7.9h-8.5v-7.9v-7.9H34v-7.9V135V127v-7.9v-7.9v-7.9v-7.9v-7.9H42.5z"/>
		<polygon class="st31" points="59.5,79.4 51,79.4 51,87.3 51,95.3 51,103.2 51,111.1 51,119.1 51,127 51,135 51,142.9 59.5,142.9 
			59.5,150.8 59.5,158.8 68,158.8 68,166.7 76.5,166.7 76.5,174.6 85,174.6 93.5,174.6 93.5,182.6 102,182.6 110.5,182.6 119,182.6 
			127.5,182.6 136,182.6 136,174.6 144.5,174.6 153.1,174.6 153.1,166.7 161.6,166.7 161.6,158.8 170.1,158.8 170.1,150.8 
			170.1,142.9 178.6,142.9 178.6,135 178.6,127 178.6,119.1 178.6,111.1 178.6,103.2 178.6,95.3 170.1,95.3 170.1,87.3 170.1,79.4 
			170.1,71.5 161.6,71.5 161.6,63.5 153.1,63.5 153.1,55.6 144.5,55.6 136,55.6 136,47.6 127.5,47.6 119,47.6 110.5,47.6 102,47.6 
			93.5,47.6 85,47.6 85,55.6 76.5,55.6 68,55.6 68,63.5 59.5,63.5 59.5,71.5 		"/>
	</g>
	<g>
		<polygon class="st29" points="238.1,55.6 238.1,47.6 238.1,39.7 229.6,39.7 229.6,47.6 221.1,47.6 212.6,47.6 212.6,55.6 
			212.6,63.5 212.6,71.5 221.1,71.5 221.1,63.5 229.6,63.5 238.1,63.5 238.1,71.5 238.1,79.4 246.6,79.4 246.6,71.5 246.6,63.5 
			246.6,55.6 		"/>
		<polygon class="st29" points="221.1,31.8 221.1,23.8 212.6,23.8 204.1,23.8 204.1,15.9 195.6,15.9 195.6,7.9 187.1,7.9 178.6,7.9 
			178.6,0 170.1,0 161.6,0 153.1,0 144.5,0 144.5,7.9 153.1,7.9 161.6,7.9 161.6,15.9 170.1,15.9 170.1,23.8 178.6,23.8 178.6,31.8 
			187.1,31.8 187.1,39.7 195.6,39.7 204.1,39.7 212.6,39.7 221.1,39.7 229.6,39.7 229.6,31.8 		"/>
	</g>
	<polygon class="st29" points="238.1,55.6 238.1,47.6 238.1,39.7 229.6,39.7 229.6,47.6 221.1,47.6 212.6,47.6 212.6,55.6 
		212.6,63.5 212.6,71.5 221.1,71.5 221.1,63.5 229.6,63.5 238.1,63.5 238.1,71.5 238.1,79.4 246.6,79.4 246.6,71.5 246.6,63.5 
		246.6,55.6 	"/>
	<g>
		<polygon points="238.1,55.6 238.1,47.6 238.1,39.7 229.6,39.7 229.6,39.7 229.6,39.7 229.6,47.6 229.6,55.6 238.1,55.6 
			238.1,63.5 238.1,63.5 238.1,71.4 238.1,79.4 246.6,79.4 246.6,71.4 246.6,63.5 246.6,55.6 		"/>
	</g>
	<g>
		<rect x="195.6" y="15.9" width="8.5" height="7.9"/>
		<polygon points="204.1,31.8 212.6,31.8 221.1,31.8 221.1,23.8 212.6,23.8 204.1,23.8 		"/>
		<polygon points="187.1,15.9 195.6,15.9 195.6,7.9 187.1,7.9 178.6,7.9 178.6,15.9 		"/>
		<rect x="221.1" y="31.8" width="8.5" height="7.9"/>
		<polygon points="153.1,7.9 153.1,7.9 161.6,7.9 161.6,7.9 170.1,7.9 178.6,7.9 178.6,0 170.1,0 161.6,0 153.1,0 144.5,0 
			144.5,7.9 144.5,7.9 		"/>
	</g>
	<g>
		<polygon points="212.6,182.6 204.1,182.6 204.1,190.5 204.1,190.5 204.1,190.5 212.6,190.5 		"/>
		<polygon points="246.6,79.4 238.1,79.4 238.1,79.4 238.1,79.4 246.6,79.4 246.6,87.3 246.6,95.3 246.6,103.2 246.6,111.1 
			246.6,119.1 246.6,127 246.6,135 246.6,142.9 246.6,150.8 246.6,158.8 255.1,158.8 255.1,150.8 255.1,142.9 255.1,135 255.1,127 
			255.1,119.1 255.1,111.1 255.1,103.2 255.1,95.3 255.1,87.3 255.1,79.4 		"/>
		<polygon points="212.6,198.5 212.6,206.4 212.6,206.4 212.6,214.3 221.1,214.3 221.1,206.4 221.1,198.5 		"/>
		<rect x="221.1" y="190.5" width="8.5" height="7.9"/>
		<polygon points="238.1,158.8 238.1,166.7 238.1,174.7 229.6,174.7 229.6,182.6 229.6,190.5 238.1,190.5 238.1,182.6 238.1,174.7 
			246.6,174.7 246.6,166.7 246.6,158.8 		"/>
		<polygon points="178.6,230.2 170.1,230.2 170.1,238.2 178.6,238.2 178.6,230.2 		"/>
		<polygon points="204.1,214.3 204.1,206.4 195.6,206.4 195.6,214.3 195.6,222.3 204.1,222.3 204.1,214.3 		"/>
		<rect x="187.1" y="222.3" width="8.5" height="7.9"/>
	</g>
	<g>
		<polygon points="144.5,222.3 144.5,230.2 136,230.2 127.5,230.2 119,230.2 110.5,230.2 102,230.2 93.5,230.2 85,230.2 76.5,230.2 
			76.5,238.2 85,238.2 93.5,238.2 102,238.2 110.5,238.2 119,238.2 127.5,238.2 136,238.2 144.5,238.2 144.5,230.2 153.1,230.2 
			161.6,230.2 161.6,222.3 153.1,222.3 		"/>
		<rect x="161.6" y="214.3" width="8.5" height="7.9"/>
		<polygon points="178.6,206.4 170.1,206.4 170.1,214.3 178.6,214.3 187.1,214.3 187.1,206.4 187.1,198.5 178.6,198.5 		"/>
		<rect x="187.1" y="190.5" width="8.5" height="7.9"/>
		<rect x="195.6" y="182.6" width="8.5" height="7.9"/>
		<polygon points="204.1,174.7 204.1,182.6 212.6,182.6 212.6,174.7 212.6,166.7 204.1,166.7 		"/>
		<polygon points="212.6,87.3 212.6,95.3 212.6,103.2 212.6,111.1 212.6,119.1 212.6,127 212.6,135 212.6,142.9 212.6,150.8 
			212.6,158.8 212.6,166.7 221.1,166.7 221.1,158.8 221.1,150.8 221.1,142.9 221.1,135 221.1,127 221.1,119.1 221.1,111.1 
			221.1,103.2 221.1,95.3 221.1,87.3 		"/>
		<polygon points="204.1,71.5 204.1,79.4 212.6,79.4 212.6,71.5 212.6,63.5 204.1,63.5 		"/>
		<rect x="195.6" y="47.6" width="8.5" height="7.9"/>
		<rect x="153.1" y="174.7" width="8.5" height="7.9"/>
		<polygon points="170.1,87.3 170.1,95.3 178.6,95.3 178.6,95.3 178.6,103.2 178.6,111.1 178.6,119.1 178.6,127 178.6,135 
			178.6,142.9 178.6,142.9 170.1,142.9 170.1,150.8 170.1,158.8 161.6,158.8 161.6,166.7 161.6,174.7 170.1,174.7 170.1,166.7 
			178.6,166.7 178.6,158.8 178.6,150.8 187.1,150.8 187.1,142.9 187.1,135 187.1,127 187.1,119.1 187.1,111.1 187.1,103.2 
			187.1,95.3 187.1,87.3 178.6,87.3 178.6,87.3 178.6,79.4 178.6,71.4 170.1,71.4 170.1,79.4 		"/>
		<rect x="161.6" y="63.5" width="8.5" height="7.9"/>
		<rect x="153.1" y="55.6" width="8.5" height="7.9"/>
		<rect x="187.1" y="39.7" width="8.5" height="7.9"/>
		<rect x="178.6" y="31.8" width="8.5" height="7.9"/>
		<rect x="170.1" y="23.8" width="8.5" height="7.9"/>
		<rect x="161.6" y="15.9" width="8.5" height="7.9"/>
		<polygon points="144.5,15.9 153.1,15.9 161.6,15.9 161.6,7.9 153.1,7.9 144.5,7.9 		"/>
		<polygon points="68,222.3 59.5,222.3 59.5,230.2 68,230.2 76.5,230.2 76.5,222.3 		"/>
		<rect x="51" y="214.3" width="8.5" height="7.9"/>
		<polygon points="42.5,206.4 42.5,198.5 34,198.5 34,206.4 34,214.3 42.5,214.3 51,214.3 51,206.4 		"/>
		<rect x="25.5" y="190.5" width="8.5" height="7.9"/>
		<polygon points="85,198.5 93.5,198.5 102,198.5 110.5,198.5 119,198.5 127.5,198.5 136,198.5 144.5,198.5 144.5,190.5 
			153.1,190.5 153.1,182.6 144.5,182.6 136,182.6 136,190.5 127.5,190.5 119,190.5 110.5,190.5 102,190.5 93.5,190.5 85,190.5 
			85,182.6 76.5,182.6 68,182.6 68,190.5 76.5,190.5 76.5,198.5 		"/>
		<rect x="59.5" y="174.7" width="8.5" height="7.9"/>
		<polygon points="25.5,174.7 17,174.7 17,182.6 17,190.5 25.5,190.5 25.5,182.6 		"/>
		<polygon points="17,158.8 8.5,158.8 8.5,166.7 8.5,174.7 17,174.7 17,166.7 		"/>
		<polygon points="8.5,142.9 8.5,135 8.5,127 8.5,119.1 8.5,111.1 8.5,103.2 8.5,95.3 8.5,87.3 0,87.3 0,95.3 0,103.2 0,111.1 
			0,119.1 0,127 0,135 0,142.9 0,150.8 8.5,150.8 		"/>
		<polygon points="59.5,158.8 51,158.8 51,150.8 51,142.9 42.5,142.9 42.5,135 42.5,127 42.5,119.1 42.5,111.1 42.5,103.2 
			42.5,95.3 51,95.3 51,87.3 51,79.4 59.5,79.4 59.5,71.4 59.5,63.5 51,63.5 51,71.4 42.5,71.4 42.5,79.4 42.5,87.3 34,87.3 
			34,95.3 34,103.2 34,111.1 34,119.1 34,127 34,135 34,142.9 34,150.8 42.5,150.8 42.5,158.8 42.5,166.7 51,166.7 51,174.7 
			59.5,174.7 59.5,166.7 		"/>
		<polygon points="17,71.4 17,63.5 8.5,63.5 8.5,71.4 8.5,79.4 17,79.4 		"/>
		<rect x="59.5" y="55.6" width="8.5" height="7.9"/>
		<polygon points="25.5,55.6 25.5,47.6 17,47.6 17,55.6 17,63.5 25.5,63.5 		"/>
		<polygon points="85,55.6 85,47.6 93.5,47.6 102,47.6 110.5,47.6 119,47.6 127.5,47.6 136,47.6 136,55.6 144.5,55.6 153.1,55.6 
			153.1,47.6 144.5,47.6 144.5,39.7 136,39.7 127.5,39.7 119,39.7 110.5,39.7 102,39.7 93.5,39.7 85,39.7 76.5,39.7 76.5,47.6 
			68,47.6 68,55.6 76.5,55.6 		"/>
		<rect x="25.5" y="39.7" width="8.5" height="7.9"/>
		<rect x="34" y="31.8" width="8.5" height="7.9"/>
		<rect x="42.5" y="23.8" width="8.5" height="7.9"/>
		<rect x="51" y="15.9" width="8.5" height="7.9"/>
		<polygon points="76.5,15.9 76.5,7.9 68,7.9 59.5,7.9 59.5,15.9 68,15.9 		"/>
		<polygon points="93.5,7.9 102,7.9 110.5,7.9 119,7.9 127.5,7.9 136,7.9 144.5,7.9 144.5,0 136,0 127.5,0 119,0 110.5,0 102,0 
			93.5,0 85,0 76.5,0 76.5,7.9 85,7.9 		"/>
	</g>
	<g>
		<polygon class="st9" points="229.6,63.5 221.1,63.5 221.1,71.5 212.6,71.5 212.6,79.4 212.6,87.3 221.1,87.3 221.1,79.4 
			229.6,79.4 238.1,79.4 238.1,71.5 238.1,63.5 		"/>
		<polygon class="st9" points="221.1,39.7 212.6,39.7 204.1,39.7 195.6,39.7 195.6,47.6 204.1,47.6 204.1,55.6 212.6,55.6 
			212.6,47.6 221.1,47.6 229.6,47.6 229.6,39.7 		"/>
		<polygon class="st9" points="119,182.6 110.5,182.6 102,182.6 93.5,182.6 93.5,174.6 85,174.6 76.5,174.6 76.5,166.7 68,166.7 
			68,158.8 59.5,158.8 59.5,166.7 59.5,174.6 68,174.6 68,182.6 76.5,182.6 85,182.6 85,190.5 93.5,190.5 102,190.5 110.5,190.5 
			119,190.5 127.5,190.5 136,190.5 136,182.6 127.5,182.6 		"/>
		<polygon class="st9" points="136,174.6 136,182.6 144.5,182.6 153.1,182.6 153.1,174.6 144.5,174.6 		"/>
		<rect x="153.1" y="166.7" class="st9" width="8.5" height="7.9"/>
		<polygon class="st9" points="59.5,142.9 51,142.9 51,150.8 51,158.8 59.5,158.8 59.5,150.8 		"/>
		<polygon class="st9" points="51,127 51,119.1 51,111.1 42.5,111.1 42.5,119.1 42.5,127 42.5,135 42.5,142.9 51,142.9 51,135 		"/>
		<rect x="42.5" y="95.3" class="st9" width="8.5" height="7.9"/>
	</g>
</g>
</svg>
