<svg xmlns="http://www.w3.org/2000/svg" viewBox="0 0 296.22 226.7">
  <defs>
    <style>
      .cls-1 {
        fill: #fff;
      }

      .cls-2 {
        fill: #221e20;
      }

      .cls-3 {
        fill: none;
      }
    </style>
  </defs>
  <g id="items-to-use">
    <g id="hor-text-box">
      <g>
        <polygon class="cls-1" points="274 30.23 274 22.67 266.6 22.67 266.6 15.11 259.19 15.11 251.79 15.11 244.38 15.11 236.98 15.11 229.57 15.11 222.16 15.11 214.76 15.11 207.35 15.11 199.95 15.11 192.54 15.11 185.14 15.11 177.73 15.11 170.33 15.11 162.92 15.11 155.51 15.11 148.11 15.11 140.71 15.11 133.3 15.11 125.89 15.11 118.49 15.11 111.08 15.11 103.68 15.11 96.27 15.11 88.86 15.11 81.46 15.11 74.06 15.11 66.65 15.11 59.24 15.11 51.84 15.11 44.43 15.11 37.03 15.11 37.03 22.67 29.62 22.67 22.22 22.67 22.22 30.23 22.22 37.78 22.22 45.34 22.22 52.9 22.22 60.45 22.22 68.01 22.22 75.57 22.22 83.12 22.22 90.68 22.22 98.24 22.22 105.79 22.22 113.35 22.22 120.91 22.22 128.46 22.22 136.02 22.22 143.58 22.22 151.13 22.22 158.69 22.22 166.25 22.22 173.8 29.62 173.8 29.62 181.36 37.03 181.36 37.03 188.91 44.43 188.91 51.84 188.91 59.24 188.91 66.65 188.91 74.06 188.91 81.46 188.91 88.86 188.91 96.27 188.91 103.68 188.91 111.08 188.91 118.49 188.91 125.89 188.91 133.3 188.91 140.71 188.91 148.11 188.91 155.51 188.91 162.92 188.91 170.33 188.91 177.73 188.91 185.14 188.91 192.54 188.91 199.95 188.91 207.35 188.91 214.76 188.91 222.16 188.91 229.57 188.91 236.98 188.91 244.38 188.91 251.79 188.91 259.19 188.91 266.6 188.91 266.6 181.36 274 181.36 274 173.8 281.41 173.8 281.41 166.25 281.41 158.69 281.41 151.13 281.41 143.58 281.41 136.02 281.41 128.46 281.41 120.91 281.41 113.35 281.41 105.79 281.41 98.24 281.41 90.68 281.41 83.12 281.41 75.57 281.41 68.01 281.41 60.45 281.41 52.9 281.41 45.34 281.41 37.78 281.41 30.23 274 30.23"/>
        <path class="cls-2" d="M288.81,30.23V15.11h-7.4V7.56H266.6V0H37V7.56H22.22v7.55H14.81v7.56H7.41V45.34H0V158.69H7.41v22.67h7.4V204H7.41v7.55H0V226.7H14.81v-7.56H29.62v-7.56H37V204H266.6v-7.56h14.81v-7.55h7.4V173.8h7.41V30.23ZM274,173.8v7.56h-7.4v7.56H37v-7.56H29.62V173.8h-7.4V22.67H37V15.11H266.6v7.56H274v7.56h7.41V173.8Z"/>
      </g>
      <rect id="btn-holder" class="cls-3" x="90.94" y="132.86" width="122.86" height="48.88"/>
      <rect id="text-holder" class="cls-3" x="32.15" y="35.1" width="240.44" height="78.25"/>
    </g>
  </g>
</svg>
