<?xml version="1.0" encoding="utf-8"?>
<!-- Generator: Adobe Illustrator 25.2.1, SVG Export Plug-In . SVG Version: 6.00 Build 0)  -->
<svg version="1.1" id="Capa_1" xmlns="http://www.w3.org/2000/svg" xmlns:xlink="http://www.w3.org/1999/xlink" x="0px" y="0px"
	 viewBox="0 0 562.3 127.1" style="enable-background:new 0 0 562.3 127.1;" xml:space="preserve">
<style type="text/css">
	.st0{fill:#2BBCEE;}
	.st1{fill:#61C6ED;}
	.st2{fill:#8AD1F0;}
	.st3{fill:#A3C254;}
	.st4{fill:#8BA748;}
	.st5{fill:#7F4D2E;}
	.st6{fill:#945835;}
	.st7{fill:#A37458;}
	.st8{fill:#C1E5F5;}
	.st9{fill:#FFFFFF;}
	.st10{fill:#9D5728;}
	.st11{fill:#AA5E2B;}
	.st12{fill:#864C25;}
	.st13{fill:none;stroke:#512F17;stroke-width:9.9456;stroke-miterlimit:10;}
	.st14{fill:#F7C804;}
	.st15{fill:#EAA71E;}
	.st16{fill:#D73B5D;}
	.st17{fill:#E32221;}
	.st18{fill:#B73C6B;}
	.st19{fill:#383F37;}
	.st20{fill:#BECC54;}
	.st21{fill:#B9BCC3;}
	.st22{fill:#93A850;}
	.st23{fill:#ACB186;}
	.st24{fill:#82868A;}
	.st25{fill:#2E322D;}
	.st26{fill:#2A2A28;}
	.st27{fill:#D65A7F;}
	.st28{fill:#D9DA84;}
	.st29{fill:#F2A317;}
	.st30{fill:#FAF1CE;}
	.st31{fill:#FDCD00;}
	.st32{fill:#E68F21;}
	.st33{fill:#D5ECF2;}
	.st34{fill:#FAD169;}
	.st35{fill:#E28835;}
</style>
<g>
	<g>
		<path class="st9" d="M16.4,103.1V17.6h85.5v12.2H40.9v24.4h48.8v12.2H40.9v36.6H16.4z"/>
		<path class="st9" d="M270.5,103.1V17.6h73.3v12.2H356v24.4h-12.2v12.2H356v24.4h-12.2v12.2H270.5z M294.9,54.3h36.6V29.9h-36.6
			V54.3z M294.9,90.9h36.6V66.5h-36.6V90.9z"/>
		<path class="st9" d="M380.4,103.1V90.9h-12.2V78.7h12.2V66.5h48.8V54.3h-48.8V42.1h61.1v12.2h12.2v48.8H380.4z M392.6,90.9h36.6
			V78.7h-36.6V90.9z"/>
		<path class="st9" d="M502.5,54.3h12.2v12.2h-12.2v36.6h-24.4V42.1h24.4V54.3z M551.3,42.1v12.2h-36.6V42.1H551.3z"/>
	</g>
	<g id="items-to-use">
		<g id="beer">
			
				<rect x="210.4" y="105" transform="matrix(0.9503 -0.3112 0.3112 0.9503 -22.4551 75.0694)" class="st33" width="27.1" height="5.8"/>
			<polygon id="liquid" class="st34" points="184.8,70.5 189.2,68.4 227.5,55.5 234.1,93.8 229.1,104.5 208.4,111.2 203.6,106.2 
				200.6,102.3 196.6,98.7 191.1,87 			"/>
			<polygon id="shadow" class="st35" points="223.6,60.1 226.4,68.7 229.8,79.2 229.1,79.4 229.9,82 230.8,84.6 228.8,85.3 
				229.5,87.6 230.2,89.6 228,90.3 228.7,92.6 229.5,94.9 227.5,95.6 228.5,98.5 228.9,99.9 226.7,100.6 227.5,102.9 228,104.8 
				236.3,102.1 235.7,100.2 235.5,99.5 237.7,98.8 236.7,95.8 236.3,94.5 238.3,93.8 237.2,90.3 236.8,89.2 238.7,88.6 236.8,82.9 
				235.1,77.8 237.1,77.2 233.6,66.4 234.7,66 231.9,57.4 			"/>
			<polygon class="st33" points="208.8,108.2 207.4,103.8 205.5,104.5 204,99.8 201.7,100.5 197.8,88.5 196.1,89 192.7,78.7 
				191.9,79 188.8,69.6 186.2,70.5 189.6,80.8 190.5,80.5 194.1,91.6 195.8,91.1 199.2,101.4 201.4,100.6 203,105.4 204.9,104.7 
				206.4,109.4 208,108.9 209.4,113.2 211.9,112.4 210.4,107.7 			"/>
			<polygon class="st33" points="233.6,56.1 239.9,54.1 243.6,55.2 247.5,57.7 250,59.5 253.9,62.1 257,73.3 254.2,79.9 252.1,82.9 
				249.4,85 244.8,87.8 240.6,89.2 237.9,82 243.9,79.9 246.6,77.9 247.5,74.1 248.5,70 245.7,64.7 242,63 237.6,63.5 236,63.6 			
				"/>
			<polygon id="scum" class="st9" points="228.4,36.4 225.4,35.2 222.5,35.4 220,38 218.3,37 213.9,33.5 210.2,32.4 204.2,34.1 
				203.4,32.2 198.9,32.5 195.3,34.7 193,38 190.6,41.3 190.7,42.6 188,43.5 187.6,42.3 178.3,45.4 179.8,50 176.7,51 177.5,53.3 
				178.2,55.6 181.3,54.6 184.4,53.6 185.2,55.9 179.3,57.8 179.2,57.9 179.9,60.2 177.2,61.1 179.5,68.2 181.8,67.5 182.3,69.1 
				182.9,68.9 185.4,68.1 186.8,67.7 193.8,79.5 199.4,78.2 201.7,75.2 201.4,64.8 205.7,62.4 208.1,62.6 215.6,76.6 218.8,77.4 
				220.7,78.4 222.4,78 225.4,75.6 222.7,64.4 222.3,59.2 231.9,54.8 235.5,50.5 236.3,48.7 232.8,37.9 			"/>
			<g id="scum-details">
				<rect x="189" y="55.9" transform="matrix(0.9503 -0.3112 0.3112 0.9503 -9.1854 62.2924)" width="3.2" height="8"/>
				<rect x="189.8" y="53" transform="matrix(0.9503 -0.3112 0.3112 0.9503 -7.3509 62.279)" width="3.2" height="2.4"/>
				<rect x="191.8" y="49.4" transform="matrix(0.9503 -0.3112 0.3112 0.9503 -6.0941 63.0547)" width="5.5" height="2.4"/>
				<rect x="197.5" y="50.4" transform="matrix(0.9503 -0.3112 0.3112 0.9503 -6.1897 64.5382)" width="3.2" height="2.4"/>
				<rect x="200.6" y="52" transform="matrix(0.9503 -0.3112 0.3112 0.9503 -6.5152 65.5782)" width="3.2" height="2.4"/>
				<rect x="202.4" y="54" transform="matrix(0.9503 -0.3112 0.3112 0.9503 -7.0385 66.2295)" width="3.2" height="2.4"/>
				<rect x="198.6" y="47.5" transform="matrix(0.9503 -0.3112 0.3112 0.9503 -5.2328 64.7306)" width="3.2" height="2.4"/>
				<rect x="200.2" y="44.5" transform="matrix(0.9503 -0.3112 0.3112 0.9503 -4.1881 65.0902)" width="3.2" height="2.4"/>
				<rect x="203.7" y="45.9" transform="matrix(0.9503 -0.3112 0.3112 0.9503 -4.4517 66.2503)" width="3.2" height="2.4"/>
				<rect x="213.4" y="50.3" transform="matrix(0.9503 -0.3112 0.3112 0.9503 -5.3604 69.4946)" width="3.2" height="2.4"/>
				<rect x="214.2" y="47.5" transform="matrix(0.9503 -0.3112 0.3112 0.9503 -4.4496 69.5973)" width="3.2" height="2.4"/>
				<rect x="220.6" y="51.3" transform="matrix(0.9503 -0.3112 0.3112 0.9503 -5.2921 71.7776)" width="3.2" height="2.4"/>
				<rect x="221.7" y="45.2" transform="matrix(0.9503 -0.3112 0.3112 0.9503 -3.8593 71.8938)" width="3.2" height="5.8"/>
				<rect x="216.1" y="44" transform="matrix(0.9503 -0.3112 0.3112 0.9503 -3.1884 70.378)" width="5.6" height="2.4"/>
			</g>
			<g id="outer-line">
				<polygon points="176.7,51 173.6,52 174.4,54.3 175.2,56.6 178.2,55.6 177.5,53.3 				"/>
				<polygon points="179,47.7 178.3,45.4 175.2,46.4 176,48.7 176.7,51 179.8,50 				"/>
				<rect x="177.6" y="41.5" transform="matrix(0.9503 -0.3112 0.3112 0.9503 -4.229 58.9373)" width="9.8" height="2.4"/>
				<rect x="190.2" y="38.5" transform="matrix(0.9503 -0.3112 0.3112 0.9503 -2.8265 61.6662)" width="3.2" height="2.4"/>
				<rect x="192.5" y="35.2" transform="matrix(0.9503 -0.3112 0.3112 0.9503 -1.6829 62.2219)" width="3.2" height="2.4"/>
				<polygon points="210.1,32.2 209.4,30.1 206.3,31.1 203.2,32.1 204,34.4 207,33.4 210.1,32.4 210.8,34.5 213.9,33.5 213.1,31.2 
									"/>
				<polygon points="216.9,32.5 213.9,33.5 214.6,35.8 215.4,38.1 218.4,37.1 217.7,34.8 				"/>
				<polygon points="224.6,35.1 223.9,33 220.8,34 221.5,36.1 218.4,37.1 219.2,39.4 222.3,38.4 221.6,36.3 224.6,35.3 225.3,37.4 
					228.4,36.4 227.6,34.1 				"/>
				<rect x="228.7" y="35.9" transform="matrix(0.9503 -0.3112 0.3112 0.9503 -0.1013 73.5191)" width="3.2" height="2.4"/>
				<rect x="254" y="61.7" transform="matrix(0.9503 -0.3112 0.3112 0.9503 -8.3009 82.9183)" width="3.2" height="11.5"/>
				<polygon points="255.6,76.1 253.6,76.7 254.3,78.9 252.2,79.5 252.8,81.4 249.8,82.4 250.1,83.5 244.9,85.3 245.6,87.6 
					250.9,85.8 250.5,84.7 253.6,83.7 253,81.9 256,80.9 255.3,78.7 257.4,78 256.7,75.7 258.6,75.1 257.9,72.8 254.8,73.8 				"/>
				<rect x="216.5" y="76.2" transform="matrix(0.9503 -0.3112 0.3112 0.9503 -13.2649 71.7147)" width="3.2" height="2.4"/>
				<path d="M243.5,81.5l-0.4-1.2l4.9-1.6l-0.8-2.3l2.4-0.8l-1.3-4l2.1-0.7l-1.9-5.9l-1.5,0.5l-0.8-2.3l-2.5,0.8l-0.8-2.3l-3,1
					l-0.5-1.5l-2.6,0.9l-1.7-5.2l5.8-1.9l0.3,0.9l1.5-0.5l0.8,2.3l2-0.7l0.8,2.3l1.8-0.6l0.8,2.3l1.4-0.4l0.7,2.3l3.1-1l-0.8-2.3
					l-1.3,0.4l-0.7-2.3l-1.8,0.6l-0.8-2.3l-2,0.7l-0.8-2.3l-1.5,0.5l-0.8-2.3l-2.9,1l-0.3-0.9l-5.6,1.8l-0.7-2.1l2.8-0.9l-0.7-2.3
					l2.9-0.9l-3.8-11.5l-3.1,1l3.8,11.5l-2.9,0.9l0.7,2.1l-2.8,0.9l0.6,1.8l-10.2,3.4l0.8,2.3l-1.5,0.5l4.5,13.7l-2.5,0.8l0.5,1.4
					l-3,1l0.8,2.3l3.1-1l-0.5-1.4l3.1-1l-0.8-2.3l2.5-0.8l-4.5-13.7l8.3-2.7l2.8,8.6l-1.1,0.4l3.5,10.8l-2,0.6l3.5,10.8l-1.9,0.6
					l1.5,4.6l-2,0.7l1.4,4.3l-2.2,0.7l1.5,4.6l-4.1,1.4l0.8,2.3l-19,6.2l-0.8-2.3l-4.2,1.4l-1.4-4.3l-1.9,0.6l-1.5-4.6l-1.8,0.6
					l-1.5-4.6l-2.3,0.8l-3.5-10.8l-1.5,0.5l-3.5-10.8l-0.8,0.3l-3.4-10.4l1.5-0.5l3.5,10.8l3.1-1l0.6,1.8l5.3-1.7l-0.5-1.7l3.1-1
					l-0.8-2.3l2.2-0.7l-2.9-8.9l6.8-2.2l-0.8-2.3l-6.8,2.2l0.7,2.3l-3.1,1l2.9,9l-2.2,0.7l0.5,1.7l-5.3,1.7L191,68.8l-2.7,0.9
					l-0.8-2.3l-5.3,1.7l-0.5-1.6l-2.3,0.7l-2.3-7.2l2.8-0.9l-0.8-2.3l5.9-1.9l-0.8-2.3l-6.1,2l0.8,2.3l-2.9,0.9l0.7,2.1l-2.8,0.9
					l2.4,7.4l2.3-0.7l0.8,2.3l3.1-1l0.5,1.6l0.3-0.1l3.5,10.8l0.8-0.3l3.4,10.4l1.5-0.5l3.5,10.8l2.3-0.8l1.5,4.6l1.8-0.6l1.5,4.6
					l1.9-0.6l1.4,4.3l2-0.6l0.8,2.3l3.7-1.2l0.8,2.3l22.5-7.4l-0.8-2.3l3.3-1.1l-0.8-2.3l2-0.6l-1.4-4.3l2.2-0.7l-1.5-4.6l2-0.7
					l-0.8-2.3l5.3-1.7l-0.8-2.3l-3.4,1.1l-1.6-5L243.5,81.5z M240.1,76.2l-3.4-10.4l1.1-0.4l-0.3-1l2.6-0.9l0.5,1.5l2.5-0.8l0.8,2.3
					l1.5-0.5l1.9,5.9l-2.1,0.7l1.3,4l-4.6,1.5l0.4,1.1l-3.1,1l-1.1-3.5L240.1,76.2z"/>
				<rect x="210.6" y="61.9" transform="matrix(0.9503 -0.3112 0.3112 0.9503 -11.1854 69.5043)" width="3.2" height="15.7"/>
				<rect x="212.6" y="38.6" transform="matrix(0.9503 -0.3112 0.3112 0.9503 -1.7447 68.6518)" width="3.2" height="2.4"/>
				<rect x="194.7" y="31.1" transform="matrix(0.9503 -0.3112 0.3112 0.9503 -0.1744 63.4839)" width="8.3" height="2.4"/>
				<rect x="187.9" y="41.8" transform="matrix(0.9503 -0.3112 0.3112 0.9503 -3.9709 61.1127)" width="3.2" height="2.4"/>
			</g>
		</g>
	</g>
	<g id="items-to-use_1_">
		<g id="beer_1_">
			
				<rect x="136.9" y="94.9" transform="matrix(0.1621 -0.9868 0.9868 0.1621 10.1256 228.7997)" class="st33" width="5.8" height="27.1"/>
			<polygon id="liquid_1_" class="st34" points="169.1,82.8 165.4,95.2 162,99.3 159.7,103.7 155.7,109.4 134.2,105.8 127.6,96 
				128.3,57.2 168.1,64.1 172.8,65.5 			"/>
			<polygon id="shadow_1_" class="st35" points="124.3,59.7 122.8,68.7 124,68.9 122.1,80.1 124.1,80.4 123.3,85.8 122.3,91.6 
				124.3,91.9 124.1,93.1 123.5,96.7 125.6,97 125.3,98.5 124.8,101.5 127.1,101.9 127,102.6 126.7,104.6 135.3,106 135.6,104.1 
				136,101.7 133.7,101.3 133.9,99.9 134.4,96.8 132.4,96.5 132.8,94.1 133.2,91.7 130.9,91.3 131.2,89.2 131.6,86.8 129.5,86.5 
				129.9,83.8 130.4,81.1 129.6,81 131.4,70.1 132.9,61.2 			"/>
			<polygon class="st33" points="153.2,106.1 152.4,111 155,111.5 155.8,107 157.4,107.2 158.2,102.4 160.1,102.7 160.9,97.8 
				163.3,98.2 165.1,87.5 166.8,87.8 168.7,76.2 169.6,76.4 171.4,65.7 168.7,65.2 167.1,75 166.2,74.8 164.5,85.5 162.7,85.3 
				160.7,97.7 158.3,97.4 157.5,102.2 155.5,101.9 154.8,106.4 			"/>
			<polygon class="st33" points="121.1,66.5 119.5,66.7 115.1,66.8 111.7,69.1 109.8,74.8 111.3,78.7 112.9,82.2 115.9,83.8 
				122.1,85 120.5,92.5 116.2,91.8 111.1,89.8 108.2,88 105.7,85.3 101.8,79.4 103.2,67.8 106.6,64.6 108.9,62.5 112.3,59.3 
				115.8,57.7 122.4,58.8 			"/>
			<polygon id="scum_1_" class="st9" points="120.3,40.6 118.6,51.8 119.6,53.5 123.9,57.2 134,60.1 134.4,65.3 133.5,76.7 
				136.8,78.6 138.5,78.8 140.2,77.6 143.3,76.2 148.5,61.3 150.9,60.7 155.5,62.4 156.8,72.7 159.6,75.3 165.2,75.8 170.4,63 
				171.8,63.2 174.4,63.6 175,63.7 175.3,62 177.7,62.4 178.9,55 176,54.5 176.4,52.1 176.3,52.1 170.2,51.1 170.6,48.7 173.8,49.3 
				177,49.8 177.4,47.4 177.8,45 174.6,44.5 175.4,39.7 165.7,38.1 165.5,39.3 162.7,38.8 162.5,37.6 159.8,34.7 157,31.7 153,30.1 
				148.6,30.4 148,32.5 141.8,31.7 138.4,33.4 134.6,37.6 133.1,38.7 130.2,36.6 127.3,36.8 124.5,38.5 			"/>
			<g id="scum-details_1_">
				<rect x="161.5" y="54.3" transform="matrix(0.1621 -0.9868 0.9868 0.1621 83.4458 210.1227)" width="8" height="3.2"/>
				<rect x="162.5" y="48.8" transform="matrix(0.1621 -0.9868 0.9868 0.1621 87.4626 203.7471)" width="2.4" height="3.2"/>
				<rect x="158.9" y="44.6" transform="matrix(0.1621 -0.9868 0.9868 0.1621 87.4741 197.6812)" width="2.4" height="5.5"/>
				<rect x="154.5" y="47.5" transform="matrix(0.1621 -0.9868 0.9868 0.1621 82.088 194.8047)" width="2.4" height="3.2"/>
				<rect x="151.7" y="49.4" transform="matrix(0.1621 -0.9868 0.9868 0.1621 77.7533 193.6904)" width="2.4" height="3.2"/>
				<rect x="150.3" y="51.7" transform="matrix(0.1621 -0.9868 0.9868 0.1621 74.3469 194.1079)" width="2.4" height="3.2"/>
				<rect x="153" y="44.7" transform="matrix(0.1621 -0.9868 0.9868 0.1621 83.4871 191.0475)" width="2.4" height="3.2"/>
				<rect x="150.9" y="41.9" transform="matrix(0.1621 -0.9868 0.9868 0.1621 84.4924 186.6222)" width="2.4" height="3.2"/>
				<rect x="147.7" y="43.9" transform="matrix(0.1621 -0.9868 0.9868 0.1621 79.8719 185.0324)" width="2.4" height="3.2"/>
				<rect x="138.8" y="49.8" transform="matrix(0.1621 -0.9868 0.9868 0.1621 66.5794 181.1842)" width="2.4" height="3.2"/>
				<rect x="137.6" y="47.1" transform="matrix(0.1621 -0.9868 0.9868 0.1621 68.1919 177.782)" width="2.4" height="3.2"/>
				<rect x="131.8" y="51.8" transform="matrix(0.1621 -0.9868 0.9868 0.1621 58.757 176.0056)" width="2.4" height="3.2"/>
				<rect x="128.4" y="47.6" transform="matrix(0.1621 -0.9868 0.9868 0.1621 61.4519 170.7521)" width="5.8" height="3.2"/>
				<rect x="134" y="42.9" transform="matrix(0.1621 -0.9868 0.9868 0.1621 68.1954 171.6898)" width="2.4" height="5.6"/>
			</g>
			<g id="outer-line_1_">
				<polygon points="177.4,47.4 177,49.8 180.2,50.3 180.6,47.9 181,45.5 177.8,45 				"/>
				<polygon points="174.6,44.5 177.8,45 178.2,42.6 178.6,40.2 175.4,39.7 175,42.1 				"/>
				<rect x="169.5" y="32.8" transform="matrix(0.1621 -0.9868 0.9868 0.1621 105.884 200.0796)" width="2.4" height="9.8"/>
				<rect x="159.9" y="34.5" transform="matrix(0.1621 -0.9868 0.9868 0.1621 99.3921 189.2783)" width="2.4" height="3.2"/>
				<rect x="157.1" y="31.6" transform="matrix(0.1621 -0.9868 0.9868 0.1621 99.927 184.0831)" width="2.4" height="3.2"/>
				<polygon points="138.8,31 138.4,33.4 141.6,33.9 141.9,31.7 145.1,32.3 148.3,32.8 148.7,30.4 145.5,29.9 142.3,29.3 142,31.5 
									"/>
				<polygon points="134.8,35.3 134.4,37.7 137.6,38.2 138,35.8 138.4,33.4 135.2,32.9 				"/>
				<polygon points="124.9,36.1 124.5,38.5 127.7,39 128,36.8 131.2,37.3 130.9,39.5 134,40.1 134.4,37.7 131.2,37.1 131.6,34.9 
					128.4,34.4 128.1,36.6 				"/>
				<rect x="121.5" y="37.8" transform="matrix(0.1621 -0.9868 0.9868 0.1621 63.9101 154.1154)" width="2.4" height="3.2"/>
				<rect x="96.6" y="71.7" transform="matrix(0.1621 -0.9868 0.9868 0.1621 13.3533 162.4017)" width="11.5" height="3.2"/>
				<polygon points="104.1,79.5 100.9,78.9 100.5,81.3 102.6,81.7 102.2,84.1 104.3,84.4 104,86.6 107.1,87.1 106.8,89 110,89.6 
					109.8,90.8 115.3,91.7 115.7,89.3 110.2,88.4 110.4,87.2 107.2,86.7 107.5,84.8 105.4,84.4 105.8,82.2 103.7,81.8 				"/>
				<rect x="139.8" y="75.8" transform="matrix(0.1621 -0.9868 0.9868 0.1621 41.7243 203.9753)" width="2.4" height="3.2"/>
				<path d="M120,85.9l-0.9,5.2l-3.5-0.6l-0.4,2.4l5.5,0.9l-0.4,2.4l2.1,0.3l-0.8,4.8l2.3,0.4l-0.7,4.5l2,0.3l-0.4,2.4l3.4,0.6
					l-0.4,2.4l23.4,3.8l0.4-2.4l3.9,0.6l0.4-2.4l2,0.3l0.7-4.5l2,0.3l0.8-4.8l1.8,0.3l0.8-4.8l2.4,0.4l1.8-11.2l1.6,0.3l1.8-10.8
					l0.8,0.1l1.8-11.2l0.3,0.1l0.3-1.7l3.2,0.5l0.4-2.4l2.4,0.4l1.3-7.6l-2.9-0.5l0.4-2.2l-3-0.5l0.4-2.4l-6.4-1l-0.4,2.4l6.2,1
					l-0.4,2.4l2.9,0.5l-1.2,7.4l-2.4-0.4l-0.3,1.7l-5.5-0.9l-0.4,2.4l-2.8-0.5l-1.8,10.7l-5.5-0.9l0.3-1.7l-2.3-0.4l1.5-9.3
					l-3.2-0.5l0.4-2.4l-7-1.2l-0.4,2.4l7,1.2l-1.5,9.3l2.3,0.4l-0.4,2.4l3.2,0.5l-0.3,1.7l5.5,0.9l0.3-1.9l3.2,0.5l1.8-11.2l1.6,0.3
					l-1.8,10.8l-0.8-0.1l-1.8,11.2l-1.6-0.3l-1.8,11.2l-2.4-0.4l-0.8,4.8l-1.8-0.3l-0.8,4.8l-2-0.3l-0.7,4.5l-4.3-0.7l-0.4,2.4
					l-19.8-3.2l0.4-2.4l-4.3-0.7l0.8-4.8l-2.3-0.4l0.7-4.5l-2.1-0.3l0.8-4.8l-2-0.3l1.8-11.2l-2-0.3l1.8-11.2l-1.2-0.2l1.5-8.9
					l8.6,1.4l-2.3,14.3l2.5,0.4l-0.4,2.4l3.2,0.5l-0.2,1.5l3.2,0.5l0.4-2.4l-3.1-0.5l0.2-1.5l-2.5-0.4l2.3-14.3l-1.6-0.3l0.4-2.4
					l-10.6-1.7l0.3-1.8l-2.9-0.5l0.4-2.1l-3-0.5l2-12l-3.2-0.5l-2,12l3,0.5l-0.4,2.4l2.9,0.5l-0.4,2.2l-5.8-0.9l-0.2,1l-3.1-0.5
					l-0.4,2.4L110,59l-0.4,2.4l-2.1-0.3l-0.4,2.4l-1.9-0.3l-0.4,2.4l-1.4-0.2l-0.4,2.4l3.2,0.5l0.4-2.4L108,66l0.4-2.4l1.9,0.3
					l0.4-2.4l2.1,0.3l0.4-2.4l1.6,0.3l0.2-1l6.1,1l-0.9,5.4l-2.7-0.5l-0.3,1.6l-3.2-0.5l-0.4,2.4l-2.6-0.4l-0.4,2.4l-1.6-0.3l-1,6.1
					l2.2,0.4l-0.7,4.1l2.5,0.4l-0.4,2.4l5.1,0.8l-0.2,1.2L120,85.9z M121,79.9l-0.6,3.6l-3.2-0.5l0.2-1.2l-4.8-0.8l0.7-4.1l-2.2-0.4
					l1-6.1l1.6,0.3l0.4-2.4l2.6,0.4l0.3-1.6l2.7,0.5l-0.2,1l1.2,0.2L119,79.5L121,79.9z"/>
				<rect x="137.8" y="67.4" transform="matrix(0.1621 -0.9868 0.9868 0.1621 53.9408 201.4988)" width="15.7" height="3.2"/>
				<rect x="137.8" y="38" transform="matrix(0.1621 -0.9868 0.9868 0.1621 77.346 170.3853)" width="2.4" height="3.2"/>
				<rect x="151.9" y="25.7" transform="matrix(0.1621 -0.9868 0.9868 0.1621 98.7856 176.0861)" width="2.4" height="8.3"/>
				<rect x="162.7" y="37.4" transform="matrix(0.1621 -0.9868 0.9868 0.1621 98.8481 194.4712)" width="2.4" height="3.2"/>
			</g>
		</g>
	</g>
</g>
</svg>
