<?xml version="1.0" encoding="utf-8"?>
<!-- Generator: Adobe Illustrator 25.2.1, SVG Export Plug-In . SVG Version: 6.00 Build 0)  -->
<svg version="1.1" id="Capa_1" xmlns="http://www.w3.org/2000/svg" xmlns:xlink="http://www.w3.org/1999/xlink" x="0px" y="0px"
	 viewBox="0 0 834.8 699.2" style="enable-background:new 0 0 834.8 699.2;" xml:space="preserve">
<style type="text/css">
	.st0{fill:#031F26;}
	.st1{fill:none;stroke:#3300FF;stroke-width:4;stroke-miterlimit:10;}
	.st2{opacity:0.7;}
	.st3{fill:none;stroke:#FFA7A6;stroke-width:8;stroke-miterlimit:10;}
	.st4{fill:none;stroke:#FFA7A6;stroke-width:8;stroke-miterlimit:10;stroke-dasharray:7.2513,36.2565,7.2513,36.2565;}
	
		.st5{fill:none;stroke:#FFA7A6;stroke-width:8;stroke-miterlimit:10;stroke-dasharray:8.1577,36.2565,7.2513,36.2565,7.2513,36.2565;}
	.st6{fill:none;stroke:#FFA7A6;stroke-width:8;stroke-miterlimit:10;stroke-dasharray:9.1052,45.5262,9.1052,45.5262;}
	
		.st7{fill:none;stroke:#FFA7A6;stroke-width:8;stroke-miterlimit:10;stroke-dasharray:10.2434,45.5262,9.1052,45.5262,9.1052,45.5262;}
	.st8{fill:#3300FF;}
</style>
<path class="st0" d="M1852,699.2H921.1c-13.7,0-24.9-9.5-24.9-21.3V21.4c0-11.8,11.2-21.3,24.9-21.3H1852c13.7,0,24.9,9.5,24.9,21.2
	v656.5C1877,689.7,1865.9,699.2,1852,699.2z"/>
<path class="st1" d="M1828.7,671H976.2V451.2c0-11,10.7-20,23.9-20c13.2,0,23.9,9,23.9,20V631h757V68.1h-757V86
	c0,11-10.7,20-23.9,20c-13.2,0-23.9-9-23.9-20V28.1h852.5V671z"/>
<g class="st2">
	<g>
		<polyline class="st3" points="1739.3,467.8 1739.3,472.9 1734,472.9 		"/>
		<line class="st4" x1="1690.9" y1="472.9" x2="1608.8" y2="472.9"/>
		<line class="st5" x1="1587.3" y1="472.9" x2="1139.3" y2="472.9"/>
		<polyline class="st3" points="1117.7,472.9 1112.4,472.9 1112.4,467.8 		"/>
		<line class="st6" x1="1112.4" y1="416.3" x2="1112.4" y2="318.2"/>
		<line class="st7" x1="1112.4" y1="292.3" x2="1112.4" y2="131.1"/>
		<polyline class="st3" points="1112.4,105.3 1112.4,100.2 1117.7,100.2 		"/>
		<line class="st4" x1="1160.8" y1="100.2" x2="1242.9" y2="100.2"/>
		<line class="st5" x1="1264.4" y1="100.2" x2="1712.4" y2="100.2"/>
		<polyline class="st3" points="1734,100.2 1739.3,100.2 1739.3,105.3 		"/>
		<line class="st6" x1="1739.3" y1="156.9" x2="1739.3" y2="254.9"/>
		<line class="st7" x1="1739.3" y1="280.8" x2="1739.3" y2="442.1"/>
	</g>
</g>
<g>
	<rect x="1822.3" y="25.9" class="st0" width="8.3" height="4.3"/>
	<rect x="1826.1" y="29.9" class="st0" width="4.3" height="4.2"/>
	<rect x="1822.3" y="30.1" class="st8" width="4" height="4"/>
</g>
<g>
	<rect x="1774.9" y="65.9" class="st0" width="8.3" height="4.3"/>
	<rect x="1778.7" y="69.9" class="st0" width="4.3" height="4.2"/>
	<rect x="1774.9" y="70.2" class="st8" width="4" height="4"/>
</g>
<g>
	<rect x="1826.6" y="664.9" class="st0" width="4.3" height="8.3"/>
	<rect x="1822.6" y="668.7" class="st0" width="4.2" height="4.3"/>
	<rect x="1822.7" y="665" class="st8" width="4" height="4"/>
</g>
<g>
	<rect x="1778.9" y="625" class="st0" width="4.3" height="8.3"/>
	<rect x="1774.9" y="628.8" class="st0" width="4.2" height="4.3"/>
	<rect x="1774.9" y="625" class="st8" width="4" height="4"/>
</g>
<g>
	<rect x="973.9" y="669" class="st0" width="8.3" height="4.3"/>
	<rect x="974.1" y="665" class="st0" width="4.3" height="4.2"/>
	<rect x="978.2" y="665" class="st8" width="4" height="4"/>
</g>
<g>
	<rect x="1021.6" y="629" class="st0" width="8.3" height="4.3"/>
	<rect x="1021.8" y="625" class="st0" width="4.3" height="4.2"/>
	<rect x="1025.9" y="625" class="st8" width="4" height="4"/>
</g>
<g>
	<rect x="1021.8" y="65.8" class="st0" width="4.3" height="8.3"/>
	<rect x="1025.9" y="66" class="st0" width="4.2" height="4.3"/>
	<rect x="1026.1" y="70.1" class="st8" width="4" height="4"/>
</g>
<g>
	<rect x="974" y="25.8" class="st0" width="4.3" height="8.3"/>
	<rect x="978.1" y="26" class="st0" width="4.2" height="4.3"/>
	<rect x="978.2" y="30.1" class="st8" width="4" height="4"/>
</g>
<path class="st0" d="M813.5,699.2H21.2C9.5,699.2,0,689.7,0,677.9V21.4C0,9.6,9.5,0.1,21.2,0.1h792.3c11.7,0,21.2,9.5,21.2,21.2
	v656.5C834.8,689.7,825.3,699.2,813.5,699.2z"/>
<path class="st1" d="M808.2,671H80V451.2c0-11,9.1-20,20.4-20s20.4,9,20.4,20V631h646.6V68.1H120.8V86c0,11-9.1,20-20.4,20
	S80,97,80,86V28.1h728.2V671z"/>
<g class="st2">
	<g>
		<polyline class="st3" points="742.7,465.3 742.7,470.4 738.2,470.4 		"/>
		<line class="st4" x1="702" y1="470.4" x2="633.1" y2="470.4"/>
		<line class="st5" x1="615" y1="470.4" x2="238.8" y2="470.4"/>
		<polyline class="st3" points="220.7,470.4 216.2,470.4 216.2,465.3 		"/>
		<line class="st6" x1="216.2" y1="414.1" x2="216.2" y2="316.7"/>
		<line class="st7" x1="216.2" y1="291" x2="216.2" y2="130.9"/>
		<polyline class="st3" points="216.2,105.2 216.2,100.2 220.7,100.2 		"/>
		<line class="st4" x1="256.9" y1="100.2" x2="325.8" y2="100.2"/>
		<line class="st5" x1="343.9" y1="100.2" x2="720.1" y2="100.2"/>
		<polyline class="st3" points="738.2,100.2 742.7,100.2 742.7,105.2 		"/>
		<line class="st6" x1="742.7" y1="156.5" x2="742.7" y2="253.9"/>
		<line class="st7" x1="742.7" y1="279.5" x2="742.7" y2="439.8"/>
	</g>
</g>
<g>
	<rect x="802.2" y="25.9" class="st0" width="8.3" height="4.3"/>
	<rect x="806" y="29.9" class="st0" width="4.3" height="4.2"/>
	<rect x="802.2" y="30.1" class="st8" width="4" height="4"/>
</g>
<g>
	<rect x="761.5" y="65.9" class="st0" width="8.3" height="4.3"/>
	<rect x="765.3" y="69.9" class="st0" width="4.3" height="4.2"/>
	<rect x="761.5" y="70.2" class="st8" width="4" height="4"/>
</g>
<g>
	<rect x="806.1" y="664.9" class="st0" width="4.3" height="8.3"/>
	<rect x="802.1" y="668.7" class="st0" width="4.2" height="4.3"/>
	<rect x="802.2" y="665" class="st8" width="4" height="4"/>
</g>
<g>
	<rect x="765.4" y="625.1" class="st0" width="4.3" height="8.3"/>
	<rect x="761.4" y="628.9" class="st0" width="4.2" height="4.3"/>
	<rect x="761.4" y="625.1" class="st8" width="4" height="4"/>
</g>
<g>
	<rect x="77.8" y="669" class="st0" width="8.3" height="4.3"/>
	<rect x="77.9" y="665" class="st0" width="4.3" height="4.2"/>
	<rect x="82" y="665" class="st8" width="4" height="4"/>
</g>
<g>
	<rect x="118.4" y="629" class="st0" width="8.3" height="4.3"/>
	<rect x="118.6" y="625" class="st0" width="4.3" height="4.2"/>
	<rect x="122.7" y="625" class="st8" width="4" height="4"/>
</g>
<g>
	<rect x="118.6" y="65.8" class="st0" width="4.3" height="8.3"/>
	<rect x="122.7" y="66" class="st0" width="4.2" height="4.3"/>
	<rect x="122.9" y="70.1" class="st8" width="4" height="4"/>
</g>
<g>
	<rect x="77.8" y="25.8" class="st0" width="4.3" height="8.3"/>
	<rect x="81.9" y="26" class="st0" width="4.2" height="4.3"/>
	<rect x="82" y="30.1" class="st8" width="4" height="4"/>
</g>
<image style="overflow:visible;" width="524" height="376" xlink:href="../../../../../../../../Desktop/Screenshot 2021-12-08 at 20.52.22.png"  transform="matrix(1.8596 0 0 1.8596 896.179 712.3474)">
</image>
</svg>
