<?xml version="1.0" encoding="utf-8"?>
<!-- Generator: Adobe Illustrator 25.2.1, SVG Export Plug-In . SVG Version: 6.00 Build 0)  -->
<svg version="1.1" id="Capa_1" xmlns="http://www.w3.org/2000/svg" xmlns:xlink="http://www.w3.org/1999/xlink" x="0px" y="0px"
	 viewBox="0 0 455.7 396.8" style="enable-background:new 0 0 455.7 396.8;" xml:space="preserve">
<style type="text/css">
	.st0{fill:#2BBCEE;}
	.st1{fill:#61C6ED;}
	.st2{fill:#8AD1F0;}
	.st3{fill:#A3C254;}
	.st4{fill:#8BA748;}
	.st5{fill:#7F4D2E;}
	.st6{fill:#945835;}
	.st7{fill:#A37458;}
	.st8{fill:#C1E5F5;}
	.st9{fill:#FFFFFF;}
	.st10{fill:#9D5728;}
	.st11{fill:#AA5E2B;}
	.st12{fill:#864C25;}
	.st13{fill:none;stroke:#512F17;stroke-width:9.9456;stroke-miterlimit:10;}
	.st14{fill:#F7C804;}
	.st15{fill:#EAA71E;}
	.st16{fill:#D73B5D;}
	.st17{fill:#E32221;}
	.st18{fill:#B73C6B;}
	.st19{fill:#383F37;}
	.st20{fill:#BECC54;}
	.st21{fill:#B9BCC3;}
	.st22{fill:#93A850;}
	.st23{fill:#ACB186;}
	.st24{fill:#82868A;}
	.st25{fill:#2E322D;}
	.st26{fill:#2A2A28;}
	.st27{fill:#D65A7F;}
	.st28{fill:#D9DA84;}
	.st29{fill:#F2A317;}
	.st30{fill:#FAF1CE;}
	.st31{fill:#FDCD00;}
	.st32{fill:#E68F21;}
</style>
<g>
	<g>
		<polygon class="st9" points="11.4,235.3 11.4,161.5 11.4,87.7 11.4,14 0,14 0,87.7 0,161.5 0,235.3 0,309 0,382.8 11.4,382.8 
			11.4,309 		"/>
		<polygon class="st9" points="444.3,14 444.3,87.7 444.3,161.5 444.3,235.3 444.3,309 444.3,382.8 455.7,382.8 455.7,309 
			455.7,235.3 455.7,161.5 455.7,87.7 455.7,14 		"/>
		<polygon class="st9" points="11.4,14 97.9,14 184.5,14 271.2,14 357.7,14 444.3,14 444.3,0 357.7,0 271.2,0 184.5,0 97.9,0 
			11.4,0 		"/>
		<polygon class="st9" points="11.4,396.8 97.9,396.8 184.5,396.8 271.2,396.8 357.7,396.8 444.3,396.8 444.3,382.8 357.7,382.8 
			271.2,382.8 184.5,382.8 97.9,382.8 11.4,382.8 		"/>
	</g>
	<g>
		<polygon class="st9" points="5.7,14 227.8,14 227.8,87.7 227.8,161.5 227.8,235.3 227.8,309 227.8,382.8 5.7,382.8 5.7,309 
			5.7,235.3 5.7,161.5 5.7,87.7 		"/>
		<polygon class="st9" points="441.6,106.2 441.6,143.1 441.6,179.9 441.6,216.8 441.6,253.7 441.6,290.6 447.3,290.6 447.3,253.7 
			447.3,216.8 447.3,179.9 447.3,143.1 447.3,106.2 		"/>
		<polygon class="st9" points="119.6,17.3 162.9,17.3 206.2,17.3 249.5,17.3 292.8,17.3 336.1,17.3 336.1,10.3 292.8,10.3 
			249.5,10.3 206.2,10.3 162.9,10.3 119.6,10.3 		"/>
		<polygon class="st9" points="119.6,386.5 162.9,386.5 206.2,386.5 249.5,386.5 292.8,386.5 336.1,386.5 336.1,379.5 292.8,379.5 
			249.5,379.5 206.2,379.5 162.9,379.5 119.6,379.5 		"/>
	</g>
	<rect x="11.4" y="14" class="st9" width="432.9" height="368.7"/>
</g>
</svg>
