<?xml version="1.0" encoding="utf-8"?>
<!-- Generator: Adobe Illustrator 25.2.1, SVG Export Plug-In . SVG Version: 6.00 Build 0)  -->
<svg version="1.1" id="Capa_1" xmlns="http://www.w3.org/2000/svg" xmlns:xlink="http://www.w3.org/1999/xlink" x="0px" y="0px"
	 viewBox="0 0 974.4 699.2" style="enable-background:new 0 0 974.4 699.2;" xml:space="preserve">
<style type="text/css">
	.st0{fill:#031F26;}
	.st1{fill:none;stroke:#3300FF;stroke-width:4;stroke-miterlimit:10;}
	.st2{opacity:0.7;}
	.st3{fill:none;stroke:#FFA7A6;stroke-width:8;stroke-miterlimit:10;}
	.st4{fill:none;stroke:#FFA7A6;stroke-width:8;stroke-miterlimit:10;stroke-dasharray:7.2513,36.2565,7.2513,36.2565;}
	
		.st5{fill:none;stroke:#FFA7A6;stroke-width:8;stroke-miterlimit:10;stroke-dasharray:8.1577,36.2565,7.2513,36.2565,7.2513,36.2565;}
	.st6{fill:none;stroke:#FFA7A6;stroke-width:8;stroke-miterlimit:10;stroke-dasharray:9.1052,45.5262,9.1052,45.5262;}
	
		.st7{fill:none;stroke:#FFA7A6;stroke-width:8;stroke-miterlimit:10;stroke-dasharray:10.2434,45.5262,9.1052,45.5262,9.1052,45.5262;}
	.st8{fill:#3300FF;}
</style>
<path class="st0" d="M955.8,699.2H24.9c-13.7,0-24.9-9.5-24.9-21.3V21.4C0,9.6,11.2,0.1,24.9,0.1h930.9c13.7,0,24.9,9.5,24.9,21.2
	v656.5C980.8,689.7,969.7,699.2,955.8,699.2z"/>
<path class="st1" d="M932.5,671H80V451.2c0-11,10.7-20,23.9-20s23.9,9,23.9,20V631h757V68.1h-757V86c0,11-10.7,20-23.9,20
	S80,97,80,86V28.1h852.5V671z"/>
<g class="st2">
	<g>
		<polyline class="st3" points="843.2,467.8 843.2,472.9 837.8,472.9 		"/>
		<line class="st4" x1="794.7" y1="472.9" x2="712.7" y2="472.9"/>
		<line class="st5" x1="691.1" y1="472.9" x2="243.1" y2="472.9"/>
		<polyline class="st3" points="221.6,472.9 216.2,472.9 216.2,467.8 		"/>
		<line class="st6" x1="216.2" y1="416.3" x2="216.2" y2="318.2"/>
		<line class="st7" x1="216.2" y1="292.3" x2="216.2" y2="131.1"/>
		<polyline class="st3" points="216.2,105.3 216.2,100.2 221.6,100.2 		"/>
		<line class="st4" x1="264.7" y1="100.2" x2="346.7" y2="100.2"/>
		<line class="st5" x1="368.3" y1="100.2" x2="816.3" y2="100.2"/>
		<polyline class="st3" points="837.8,100.2 843.2,100.2 843.2,105.3 		"/>
		<line class="st6" x1="843.2" y1="156.9" x2="843.2" y2="254.9"/>
		<line class="st7" x1="843.2" y1="280.8" x2="843.2" y2="442.1"/>
	</g>
</g>
<g>
	<rect x="926.1" y="25.9" class="st0" width="8.3" height="4.3"/>
	<rect x="929.9" y="29.9" class="st0" width="4.3" height="4.2"/>
	<rect x="926.1" y="30.1" class="st8" width="4" height="4"/>
</g>
<g>
	<rect x="878.8" y="65.9" class="st0" width="8.3" height="4.3"/>
	<rect x="882.5" y="69.9" class="st0" width="4.3" height="4.2"/>
	<rect x="878.8" y="70.2" class="st8" width="4" height="4"/>
</g>
<g>
	<rect x="930.4" y="664.9" class="st0" width="4.3" height="8.3"/>
	<rect x="926.4" y="668.7" class="st0" width="4.2" height="4.3"/>
	<rect x="926.5" y="665" class="st8" width="4" height="4"/>
</g>
<g>
	<rect x="882.7" y="625" class="st0" width="4.3" height="8.3"/>
	<rect x="878.7" y="628.8" class="st0" width="4.2" height="4.3"/>
	<rect x="878.7" y="625" class="st8" width="4" height="4"/>
</g>
<g>
	<rect x="77.8" y="669" class="st0" width="8.3" height="4.3"/>
	<rect x="77.9" y="665" class="st0" width="4.3" height="4.2"/>
	<rect x="82" y="665" class="st8" width="4" height="4"/>
</g>
<g>
	<rect x="125.4" y="629" class="st0" width="8.3" height="4.3"/>
	<rect x="125.6" y="625" class="st0" width="4.3" height="4.2"/>
	<rect x="129.7" y="625" class="st8" width="4" height="4"/>
</g>
<g>
	<rect x="125.6" y="65.8" class="st0" width="4.3" height="8.3"/>
	<rect x="129.7" y="66" class="st0" width="4.2" height="4.3"/>
	<rect x="129.9" y="70.1" class="st8" width="4" height="4"/>
</g>
<g>
	<rect x="77.8" y="25.8" class="st0" width="4.3" height="8.3"/>
	<rect x="81.9" y="26" class="st0" width="4.2" height="4.3"/>
	<rect x="82" y="30.1" class="st8" width="4" height="4"/>
</g>
</svg>
