<?xml version="1.0" encoding="utf-8"?>
<!-- Generator: Adobe Illustrator 25.2.1, SVG Export Plug-In . SVG Version: 6.00 Build 0)  -->
<svg version="1.1" id="Capa_1" xmlns="http://www.w3.org/2000/svg" xmlns:xlink="http://www.w3.org/1999/xlink" x="0px" y="0px"
	 viewBox="0 0 834.8 699.2" style="enable-background:new 0 0 834.8 699.2;" xml:space="preserve">
<style type="text/css">
	.st0{fill:#031F26;}
	.st1{fill:#FFFFFF;}
	.st2{fill:#9FBFDC;}
	.st3{fill:#8AA9C3;}
	.st4{fill:#42607A;}
	.st5{fill:#475A70;}
	.st6{fill:#2D3C4B;}
	.st7{fill:#142934;}
	.st8{fill:#4E637D;}
	.st9{fill:#637F97;}
	.st10{fill:#5B7589;}
	.st11{fill:#5B758A;}
	.st12{fill:#5D7487;}
	.st13{fill:#5C7588;}
	.st14{fill:#5D7486;}
	.st15{fill:#262526;}
	.st16{fill:#59758A;}
	.st17{fill:#242526;}
	.st18{fill:#19201F;}
	.st19{fill:#6C8397;}
	.st20{fill:#5D7588;}
	.st21{fill:#5B7588;}
	.st22{fill:#6C8399;}
	.st23{fill:#202323;}
	.st24{fill:#5C7589;}
	.st25{fill:#6C8398;}
	.st26{fill:#252526;}
	.st27{fill:#262627;}
	.st28{fill:#6B8499;}
	.st29{fill:#222424;}
	.st30{fill:#252425;}
	.st31{fill:#242224;}
	.st32{fill:#6B8398;}
	.st33{fill:#262527;}
	.st34{fill:#41586A;}
	.st35{fill:#59748B;}
	.st36{fill:#231F20;}
	.st37{fill:#70777B;}
	.st38{fill:#71797D;}
	.st39{fill:#5F6769;}
	.st40{fill:#52595B;}
	.st41{fill:#5D6567;}
	.st42{fill:#697074;}
	.st43{fill:#6E767A;}
	.st44{fill:#646C6F;}
	.st45{fill:#676F72;}
	.st46{fill:#6B7377;}
	.st47{fill:#4D5556;}
	.st48{fill:#A7ADB4;}
	.st49{fill:#B5BAC1;}
	.st50{fill:#A2A8B0;}
	.st51{fill:#6A7276;}
	.st52{fill:#B4B9C0;}
	.st53{fill:#AFB4BB;}
	.st54{fill:#ACB2B9;}
	.st55{fill:#B3B8BF;}
	.st56{fill:#CBCFD5;}
	.st57{fill:#C8CBD1;}
	.st58{fill:#DADCE1;}
	.st59{fill:#DFE1E4;}
	.st60{fill:#B1B6BD;}
	.st61{fill:#C2C6CD;}
	.st62{fill:#A8AEB5;}
	.st63{fill:#6A7175;}
	.st64{fill:#60676A;}
	.st65{fill:#61686B;}
	.st66{fill:#545B5D;}
	.st67{fill:#596163;}
	.st68{fill:#555C5E;}
	.st69{fill:#666E71;}
	.st70{fill:#ADB3BA;}
	.st71{fill:#CACED4;}
	.st72{fill:#BDC1C8;}
	.st73{fill:#565D5F;}
	.st74{fill:#B8BDC4;}
	.st75{fill:#BCC1C7;}
	.st76{fill:#C3C7CD;}
	.st77{fill:#B6BBC2;}
	.st78{fill:#ABB1B8;}
	.st79{fill:#9EA5AC;}
	.st80{fill:#A9AFB6;}
	.st81{fill:#B9BEC5;}
	.st82{fill:#5A6264;}
	.st83{fill:#A0A6AD;}
	.st84{fill:#6C7478;}
	.st85{fill:#5E6668;}
	.st86{fill:#A4AAB1;}
	.st87{fill:#9DA4AB;}
	.st88{fill:#D8DADF;}
	.st89{fill:#E2E3E7;}
	.st90{fill:#A0A7AE;}
	.st91{fill:#AEB4BB;}
	.st92{fill:#62696C;}
	.st93{fill:#B0B5BC;}
	.st94{fill:#C4C8CE;}
	.st95{fill:#A3A9B0;}
	.st96{fill:#E4E5E8;}
	.st97{fill:#CCD0D5;}
	.st98{fill:#A5ABB2;}
	.st99{fill:#585F61;}
	.st100{fill:#636B6E;}
	.st101{fill:#495152;}
	.st102{fill:#505759;}
	.st103{fill:#535A5C;}
	.st104{fill:#5B6365;}
	.st105{fill:#ABB0B8;}
	.st106{fill:#4B5354;}
	.st107{fill:#C5C9CF;}
	.st108{fill:#242123;}
	.st109{fill:#848B91;}
	.st110{fill:#333A3A;}
	.st111{fill:#736454;}
	.st112{fill:#412812;}
	.st113{fill:#39210C;}
	.st114{fill:#917C68;}
	.st115{fill:#4E3927;}
	.st116{fill:#442D18;}
	.st117{fill:#7C6B5A;}
	.st118{fill:#776756;}
	.st119{fill:#635141;}
	.st120{fill:#82715E;}
	.st121{fill:#2C1611;}
	.st122{fill:#432B16;}
	.st123{fill:#543F29;}
	.st124{fill:#57331B;}
	.st125{fill:#82593B;}
	.st126{fill:#381307;}
	.st127{fill:#626A6D;}
	.st128{fill:#586062;}
	.st129{fill:#E5E6E9;}
	.st130{fill:#5C6466;}
	.st131{fill:#E5B342;}
	.st132{fill:#CCA752;}
	.st133{fill:#DDAF48;}
	.st134{fill:#8D6B51;}
	.st135{fill:#3F372E;}
	.st136{fill:#252620;}
	.st137{fill:#252C29;}
	.st138{fill:#F8D589;}
	.st139{fill:#F5BC2A;}
	.st140{fill:#DDDFE3;}
	.st141{fill:#9CA3AA;}
	.st142{fill:#B1B7BE;}
	.st143{fill:#2F2B18;}
	.st144{fill:#746555;}
	.st145{fill:#766554;}
	.st146{fill:#8A5935;}
	.st147{fill:#3A2310;}
	.st148{fill:#845B3C;}
	.st149{fill:#7B5030;}
	.st150{fill:#1B2322;}
	.st151{fill:#281A0F;}
	.st152{fill:#C1855C;}
	.st153{fill:#976C4A;}
	.st154{fill:#3A1607;}
	.st155{fill:#5E3A1F;}
	.st156{fill:#252321;}
	.st157{fill:#604329;}
	.st158{fill:#362F1A;}
	.st159{fill:#411D0A;}
	.st160{fill:#67452B;}
	.st161{fill:#80878D;}
	.st162{fill:#394141;}
	.st163{opacity:0.3;}
	.st164{fill:#F5F4DD;}
	.st165{fill:#F5F5DF;}
	.st166{fill:#F6F1C4;}
	.st167{fill:#F6F1C3;}
	.st168{fill:#F5F4DB;}
	.st169{fill:#F6F1C5;}
	.st170{fill:#F5F4DC;}
	.st171{fill:#F6F1C2;}
	.st172{fill:#F5F2C7;}
	.st173{fill:#F5F4DE;}
	.st174{fill:#F8F1B8;}
	.st175{fill:#F5F3D6;}
	.st176{fill:#F7F8EB;}
	.st177{fill:#EC7B2D;}
	.st178{fill:#B03626;}
	.st179{fill:#EF902D;}
	.st180{fill:#FDE928;}
	.st181{fill:#D1B989;stroke:#231F20;stroke-width:4.6845;stroke-miterlimit:10;}
	.st182{fill:#CEA480;}
	.st183{fill:#AA8359;stroke:#231F20;stroke-width:4.6845;stroke-miterlimit:10;}
	.st184{fill:#845F30;}
	.st185{fill:#906831;}
	.st186{fill:#6B4A29;}
	.st187{fill:#F4C760;}
	.st188{fill:#B38638;}
	.st189{fill:#50331F;}
	.st190{fill:#F7E1AE;}
	.st191{fill:#F7E5BC;}
	.st192{fill:#F0B92E;}
	.st193{fill:#384040;}
	.st194{fill:#888F95;}
	.st195{fill:#999EA5;}
	.st196{fill:#FAE132;}
	.st197{fill:#926C31;}
	.st198{fill:#A17836;}
	.st199{fill:#F8DFAB;}
	.st200{fill:#B8843B;}
	.st201{fill:#7F5136;}
	.st202{fill:#351F0D;}
	.st203{fill:#F7CB70;}
	.st204{fill:#F8E1B1;}
	.st205{fill:#F2B92E;}
	.st206{fill:#96582F;}
	.st207{fill:#A56033;}
	.st208{fill:#7F4C2A;}
	.st209{fill:none;stroke:#4A2A14;stroke-width:9.9456;stroke-miterlimit:10;}
	.st210{fill:none;stroke:#3300FF;stroke-width:40;stroke-miterlimit:10;}
	.st211{fill:none;stroke:#3300FF;stroke-width:4;stroke-miterlimit:10;}
	.st212{fill:#54B3FF;}
	.st213{opacity:0.7;}
	.st214{fill:none;stroke:#FFA7A6;stroke-width:8;stroke-miterlimit:10;}
	.st215{fill:none;stroke:#FFA7A6;stroke-width:8;stroke-miterlimit:10;stroke-dasharray:7.2513,36.2565,7.2513,36.2565;}
	
		.st216{fill:none;stroke:#FFA7A6;stroke-width:8;stroke-miterlimit:10;stroke-dasharray:8.1577,36.2565,7.2513,36.2565,7.2513,36.2565;}
	.st217{fill:none;stroke:#FFA7A6;stroke-width:8;stroke-miterlimit:10;stroke-dasharray:9.1052,45.5262,9.1052,45.5262;}
	
		.st218{fill:none;stroke:#FFA7A6;stroke-width:8;stroke-miterlimit:10;stroke-dasharray:10.2434,45.5262,9.1052,45.5262,9.1052,45.5262;}
	.st219{fill:#3300FF;}
</style>
<path class="st0" d="M813.5,699.2H21.2C9.5,699.2,0,689.7,0,677.9L0,21.4C0,9.6,9.5,0.1,21.2,0.1h792.3c11.7,0,21.2,9.5,21.2,21.2
	v656.5C834.8,689.7,825.3,699.2,813.5,699.2z"/>
<path class="st211" d="M808.2,671H80l0-219.8c0-11,9.1-20,20.4-20c11.3,0,20.4,9,20.4,20l0,179.8h646.6V68.1H120.8l0,17.9
	c0,11-9.1,20-20.4,20c-11.3,0-20.4-9-20.4-20l0-57.9h728.2V671z"/>
<g class="st213">
	<g>
		<polyline class="st214" points="742.7,435.6 742.7,440.1 738.2,440.1 		"/>
		<line class="st215" x1="702" y1="440.1" x2="633.1" y2="440.1"/>
		<line class="st216" x1="615" y1="440.1" x2="238.8" y2="440.1"/>
		<polyline class="st214" points="220.7,440.1 216.2,440.1 216.2,435.6 		"/>
		<line class="st217" x1="216.2" y1="390.1" x2="216.2" y2="303.6"/>
		<line class="st218" x1="216.2" y1="280.8" x2="216.2" y2="138.6"/>
		<polyline class="st214" points="216.2,115.8 216.2,111.3 220.7,111.3 		"/>
		<line class="st215" x1="256.9" y1="111.3" x2="325.8" y2="111.3"/>
		<line class="st216" x1="343.9" y1="111.3" x2="720.1" y2="111.3"/>
		<polyline class="st214" points="738.2,111.3 742.7,111.3 742.7,115.8 		"/>
		<line class="st217" x1="742.7" y1="161.3" x2="742.7" y2="247.8"/>
		<line class="st218" x1="742.7" y1="270.6" x2="742.7" y2="412.9"/>
	</g>
</g>
<g>
	<rect x="802.2" y="25.9" class="st0" width="8.3" height="4.3"/>
	
		<rect x="806.1" y="29.9" transform="matrix(-1.836970e-16 1 -1 -1.836970e-16 840.2181 -776.1831)" class="st0" width="4.2" height="4.3"/>
	<rect x="802.2" y="30.1" class="st219" width="4" height="4"/>
</g>
<g>
	<rect x="761.5" y="65.9" class="st0" width="8.3" height="4.3"/>
	
		<rect x="765.3" y="69.9" transform="matrix(-1.836970e-16 1 -1 -1.836970e-16 839.4828 -695.3738)" class="st0" width="4.2" height="4.3"/>
	<rect x="761.5" y="70.2" class="st219" width="4" height="4"/>
</g>
<g>
	
		<rect x="804.1" y="667" transform="matrix(-1.836970e-16 1 -1 -1.836970e-16 1477.4102 -139.1786)" class="st0" width="8.3" height="4.3"/>
	
		<rect x="802.2" y="668.8" transform="matrix(-1 -1.224647e-16 1.224647e-16 -1 1608.5496 1341.8239)" class="st0" width="4.2" height="4.3"/>
	
		<rect x="802.2" y="664.9" transform="matrix(-1.836970e-16 1 -1 -1.836970e-16 1471.1077 -137.2421)" class="st219" width="4" height="4"/>
</g>
<g>
	
		<rect x="763.4" y="627.1" transform="matrix(-1.836970e-16 1 -1 -1.836970e-16 1396.8101 -138.3015)" class="st0" width="8.3" height="4.3"/>
	
		<rect x="761.5" y="628.9" transform="matrix(-1 -1.224647e-16 1.224647e-16 -1 1527.0724 1262.1008)" class="st0" width="4.2" height="4.3"/>
	
		<rect x="761.5" y="625.1" transform="matrix(-1.836970e-16 1 -1 -1.836970e-16 1390.5076 -136.365)" class="st219" width="4" height="4"/>
</g>
<g>
	
		<rect x="77.7" y="669" transform="matrix(-1 -1.224647e-16 1.224647e-16 -1 163.7626 1342.3334)" class="st0" width="8.3" height="4.3"/>
	
		<rect x="78" y="665" transform="matrix(6.123234e-17 -1 1 6.123234e-17 -587.0619 747.2322)" class="st0" width="4.2" height="4.3"/>
	
		<rect x="82.1" y="665.1" transform="matrix(-1 -1.224647e-16 1.224647e-16 -1 168.1286 1334.0944)" class="st219" width="4" height="4"/>
</g>
<g>
	
		<rect x="118.4" y="629" transform="matrix(-1 -1.224647e-16 1.224647e-16 -1 245.136 1262.3345)" class="st0" width="8.3" height="4.3"/>
	
		<rect x="118.7" y="625" transform="matrix(6.123234e-17 -1 1 6.123234e-17 -506.3758 747.9195)" class="st0" width="4.2" height="4.3"/>
	
		<rect x="122.8" y="625.1" transform="matrix(-1 -1.224647e-16 1.224647e-16 -1 249.502 1254.0955)" class="st219" width="4" height="4"/>
</g>
<g>
	
		<rect x="116.6" y="67.8" transform="matrix(6.123234e-17 -1 1 6.123234e-17 50.7955 190.7341)" class="st0" width="8.3" height="4.3"/>
	<rect x="122.7" y="66" class="st0" width="4.2" height="4.3"/>
	
		<rect x="122.9" y="70.2" transform="matrix(6.123234e-17 -1 1 6.123234e-17 52.7319 197.0365)" class="st219" width="4" height="4"/>
</g>
<g>
	
		<rect x="75.8" y="27.8" transform="matrix(6.123234e-17 -1 1 6.123234e-17 49.9882 109.8723)" class="st0" width="8.3" height="4.3"/>
	<rect x="81.9" y="26" class="st0" width="4.2" height="4.3"/>
	
		<rect x="82.1" y="30.1" transform="matrix(6.123234e-17 -1 1 6.123234e-17 51.9247 116.1748)" class="st219" width="4" height="4"/>
</g>
</svg>
