<?xml version="1.0" encoding="utf-8"?>
<!-- Generator: Adobe Illustrator 25.2.1, SVG Export Plug-In . SVG Version: 6.00 Build 0)  -->
<svg version="1.1" id="Capa_1" xmlns="http://www.w3.org/2000/svg" xmlns:xlink="http://www.w3.org/1999/xlink" x="0px" y="0px"
	 viewBox="0 0 896.1 677.7" style="enable-background:new 0 0 896.1 677.7;" xml:space="preserve">
<style type="text/css">
	.st0{fill:#FFFFFF;}
	.st1{fill:#9FBFDC;}
	.st2{fill:#8AA9C3;}
	.st3{fill:#42607A;}
	.st4{fill:#475A70;}
	.st5{fill:#2D3C4B;}
	.st6{fill:#142934;}
	.st7{fill:#4E637D;}
	.st8{fill:#637F97;}
	.st9{fill:#5B7589;}
	.st10{fill:#5B758A;}
	.st11{fill:#5D7487;}
	.st12{fill:#5C7588;}
	.st13{fill:#5D7486;}
	.st14{fill:#222122;}
	.st15{fill:#59758A;}
	.st16{fill:#242526;}
	.st17{fill:#19201F;}
	.st18{fill:#6C8397;}
	.st19{fill:#5D7588;}
	.st20{fill:#5B7588;}
	.st21{fill:#6C8399;}
	.st22{fill:#202323;}
	.st23{fill:#5C7589;}
	.st24{fill:#6C8398;}
	.st25{fill:#252526;}
	.st26{fill:#6B8499;}
	.st27{fill:#222424;}
	.st28{fill:#1E1E1F;}
	.st29{fill:#1A1A1A;}
	.st30{fill:#6B8398;}
	.st31{fill:#242425;}
	.st32{fill:#41586A;}
	.st33{fill:#59748B;}
	.st34{fill:#70777B;}
	.st35{fill:#71797D;}
	.st36{fill:#5F6769;}
	.st37{fill:#52595B;}
	.st38{fill:#5D6567;}
	.st39{fill:#697074;}
	.st40{fill:#6E767A;}
	.st41{fill:#646C6F;}
	.st42{fill:#676F72;}
	.st43{fill:#6B7377;}
	.st44{fill:#4D5556;}
	.st45{fill:#A7ADB4;}
	.st46{fill:#B5BAC1;}
	.st47{fill:#A2A8B0;}
	.st48{fill:#6A7276;}
	.st49{fill:#B4B9C0;}
	.st50{fill:#AFB4BB;}
	.st51{fill:#ACB2B9;}
	.st52{fill:#B3B8BF;}
	.st53{fill:#CBCFD5;}
	.st54{fill:#C8CBD1;}
	.st55{fill:#DADCE1;}
	.st56{fill:#DFE1E4;}
	.st57{fill:#B1B6BD;}
	.st58{fill:#C2C6CD;}
	.st59{fill:#A8AEB5;}
	.st60{fill:#6A7175;}
	.st61{fill:#60676A;}
	.st62{fill:#61686B;}
	.st63{fill:#545B5D;}
	.st64{fill:#596163;}
	.st65{fill:#555C5E;}
	.st66{fill:#666E71;}
	.st67{fill:#ADB3BA;}
	.st68{fill:#CACED4;}
	.st69{fill:#BDC1C8;}
	.st70{fill:#565D5F;}
	.st71{fill:#B8BDC4;}
	.st72{fill:#BCC1C7;}
	.st73{fill:#C3C7CD;}
	.st74{fill:#B6BBC2;}
	.st75{fill:#ABB1B8;}
	.st76{fill:#9EA5AC;}
	.st77{fill:#A9AFB6;}
	.st78{fill:#B9BEC5;}
	.st79{fill:#5A6264;}
	.st80{fill:#A0A6AD;}
	.st81{fill:#6C7478;}
	.st82{fill:#5E6668;}
	.st83{fill:#A4AAB1;}
	.st84{fill:#9DA4AB;}
	.st85{fill:#D8DADF;}
	.st86{fill:#E2E3E7;}
	.st87{fill:#A0A7AE;}
	.st88{fill:#AEB4BB;}
	.st89{fill:#62696C;}
	.st90{fill:#B0B5BC;}
	.st91{fill:#C4C8CE;}
	.st92{fill:#A3A9B0;}
	.st93{fill:#E4E5E8;}
	.st94{fill:#CCD0D5;}
	.st95{fill:#A5ABB2;}
	.st96{fill:#585F61;}
	.st97{fill:#636B6E;}
	.st98{fill:#495152;}
	.st99{fill:#505759;}
	.st100{fill:#535A5C;}
	.st101{fill:#5B6365;}
	.st102{fill:#ABB0B8;}
	.st103{fill:#4B5354;}
	.st104{fill:#C5C9CF;}
	.st105{fill:#151515;}
	.st106{fill:#848B91;}
	.st107{fill:#333A3A;}
	.st108{fill:#736454;}
	.st109{fill:#412812;}
	.st110{fill:#39210C;}
	.st111{fill:#917C68;}
	.st112{fill:#4E3927;}
	.st113{fill:#442D18;}
	.st114{fill:#7C6B5A;}
	.st115{fill:#776756;}
	.st116{fill:#635141;}
	.st117{fill:#82715E;}
	.st118{fill:#2C1611;}
	.st119{fill:#432B16;}
	.st120{fill:#543F29;}
	.st121{fill:#57331B;}
	.st122{fill:#82593B;}
	.st123{fill:#381307;}
	.st124{fill:#626A6D;}
	.st125{fill:#586062;}
	.st126{fill:#E5E6E9;}
	.st127{fill:#5C6466;}
	.st128{fill:#E5B342;}
	.st129{fill:#CCA752;}
	.st130{fill:#DDAF48;}
	.st131{fill:#8D6B51;}
	.st132{fill:#3F372E;}
	.st133{fill:#252620;}
	.st134{fill:#252C29;}
	.st135{fill:#F8D589;}
	.st136{fill:#F5BC2A;}
	.st137{fill:#DDDFE3;}
	.st138{fill:#9CA3AA;}
	.st139{fill:#B1B7BE;}
	.st140{fill:#2F2B18;}
	.st141{fill:#746555;}
	.st142{fill:#766554;}
	.st143{fill:#8A5935;}
	.st144{fill:#3A2310;}
	.st145{fill:#845B3C;}
	.st146{fill:#7B5030;}
	.st147{fill:#1B2322;}
	.st148{fill:#281A0F;}
	.st149{fill:#C1855C;}
	.st150{fill:#976C4A;}
	.st151{fill:#3A1607;}
	.st152{fill:#5E3A1F;}
	.st153{fill:#252321;}
	.st154{fill:#604329;}
	.st155{fill:#362F1A;}
	.st156{fill:#411D0A;}
	.st157{fill:#67452B;}
	.st158{fill:#80878D;}
	.st159{fill:#394141;}
	.st160{opacity:0.3;}
	.st161{fill:#F5F4DD;}
	.st162{fill:#F5F5DF;}
	.st163{fill:#F6F1C4;}
	.st164{fill:#F6F1C3;}
	.st165{fill:#F5F4DB;}
	.st166{fill:#F6F1C5;}
	.st167{fill:#F5F4DC;}
	.st168{fill:#F6F1C2;}
	.st169{fill:#F5F2C7;}
	.st170{fill:#F5F4DE;}
	.st171{fill:#F8F1B8;}
	.st172{fill:#F5F3D6;}
	.st173{fill:#F7F8EB;}
	.st174{fill:#EC7B2D;}
	.st175{fill:#B03626;}
	.st176{fill:#EF902D;}
	.st177{fill:#FDE928;}
	.st178{fill:#D1B989;stroke:#000000;stroke-width:4.6845;stroke-miterlimit:10;}
	.st179{fill:#CEA480;}
	.st180{fill:#AA8359;stroke:#000000;stroke-width:4.6845;stroke-miterlimit:10;}
	.st181{fill:#845F30;}
	.st182{fill:#906831;}
	.st183{fill:#6B4A29;}
	.st184{fill:#F4C760;}
	.st185{fill:#B38638;}
	.st186{fill:#50331F;}
	.st187{fill:#F7E1AE;}
	.st188{fill:#F7E5BC;}
	.st189{fill:#F0B92E;}
	.st190{fill:#384040;}
	.st191{fill:#888F95;}
	.st192{fill:#999EA5;}
	.st193{fill:#FAE132;}
	.st194{fill:#926C31;}
	.st195{fill:#A17836;}
	.st196{fill:#F8DFAB;}
	.st197{fill:#B8843B;}
	.st198{fill:#7F5136;}
	.st199{fill:#351F0D;}
	.st200{fill:#F7CB70;}
	.st201{fill:#F8E1B1;}
	.st202{fill:#F2B92E;}
	.st203{fill:#96582F;}
	.st204{fill:#A56033;}
	.st205{fill:#7F4C2A;}
	.st206{fill:none;stroke:#4A2A14;stroke-width:9.9456;stroke-miterlimit:10;}
</style>
<g>
	<g>
		<g>
			<g>
				<g>
					<g>
						<g>
							<rect x="110.1" y="582.4" class="st1" width="195.3" height="92.7"/>
						</g>
					</g>
					<g>
						<g>
							<polygon class="st2" points="110.1,620.7 127.5,620.7 127.5,591.7 199.8,591.7 199.8,604 260.8,604 260.8,624.1 305.4,624.1 
								305.4,644.2 251.8,644.2 251.8,675.1 222.4,675.1 222.4,634.1 179.5,634.1 179.5,654.2 147.9,654.2 147.9,640.8 110.1,640.8 
															"/>
						</g>
					</g>
				</g>
				<g>
					<g>
						<rect x="118" y="633.1" class="st1" width="29.9" height="14.5"/>
					</g>
				</g>
				<g>
					<g>
						<rect x="170.6" y="603" class="st1" width="29.9" height="14.5"/>
					</g>
				</g>
				<g>
					<g>
						<rect x="248.9" y="623.7" class="st1" width="29.9" height="14.5"/>
					</g>
				</g>
			</g>
			<g>
				<g>
					<path class="st3" d="M105.8,579.7h203.9v97.9H105.8V579.7z M301.1,585H114.4v87.5h186.7V585z"/>
				</g>
			</g>
		</g>
		<g>
			<rect x="206.6" y="585" class="st0" width="94.7" height="8.2"/>
		</g>
	</g>
</g>
<g>
	<g>
		<g>
			<g>
				<g>
					<g>
						<g>
							<rect x="305.6" y="582.4" class="st1" width="195.3" height="92.7"/>
						</g>
					</g>
					<g>
						<g>
							<polygon class="st2" points="305.6,620.7 323,620.7 323,591.7 395.3,591.7 395.3,604 456.2,604 456.2,624.1 500.9,624.1 
								500.9,644.2 447.2,644.2 447.2,675.1 417.9,675.1 417.9,634.1 375,634.1 375,654.2 343.3,654.2 343.3,640.8 305.6,640.8 
															"/>
						</g>
					</g>
				</g>
				<g>
					<g>
						<rect x="313.4" y="633.1" class="st1" width="29.9" height="14.5"/>
					</g>
				</g>
				<g>
					<g>
						<rect x="366.1" y="603" class="st1" width="29.9" height="14.5"/>
					</g>
				</g>
				<g>
					<g>
						<rect x="444.4" y="623.7" class="st1" width="29.9" height="14.5"/>
					</g>
				</g>
			</g>
			<g>
				<g>
					<path class="st3" d="M301.3,579.7h203.9v97.9H301.3V579.7z M496.6,585H309.9v87.5h186.7V585z"/>
				</g>
			</g>
		</g>
		<g>
			<rect x="402" y="585" class="st0" width="94.7" height="8.2"/>
		</g>
	</g>
</g>
<g>
	<g>
		<g>
			<g>
				<g>
					<g>
						<g>
							<rect x="501.1" y="582.4" class="st1" width="195.3" height="92.7"/>
						</g>
					</g>
					<g>
						<g>
							<polygon class="st2" points="501.1,620.7 518.5,620.7 518.5,591.7 590.7,591.7 590.7,604 651.7,604 651.7,624.1 696.3,624.1 
								696.3,644.2 642.7,644.2 642.7,675.1 613.3,675.1 613.3,634.1 570.4,634.1 570.4,654.2 538.8,654.2 538.8,640.8 501.1,640.8 
															"/>
						</g>
					</g>
				</g>
				<g>
					<g>
						<rect x="508.9" y="633.1" class="st1" width="29.9" height="14.5"/>
					</g>
				</g>
				<g>
					<g>
						<rect x="561.6" y="603" class="st1" width="29.9" height="14.5"/>
					</g>
				</g>
				<g>
					<g>
						<rect x="639.9" y="623.7" class="st1" width="29.9" height="14.5"/>
					</g>
				</g>
			</g>
			<g>
				<g>
					<path class="st3" d="M496.8,579.7h203.9v97.9H496.8V579.7z M692,585H505.4v87.5H692V585z"/>
				</g>
			</g>
		</g>
		<g>
			<rect x="597.5" y="585" class="st0" width="94.7" height="8.2"/>
		</g>
	</g>
</g>
<g>
	<g>
		<g>
			<g>
				<g>
					<g>
						<g>
							<rect x="696.5" y="582.4" class="st1" width="195.3" height="92.7"/>
						</g>
					</g>
					<g>
						<g>
							<polygon class="st2" points="696.5,620.7 713.9,620.7 713.9,591.7 786.2,591.7 786.2,604 847.2,604 847.2,624.1 891.8,624.1 
								891.8,644.2 838.1,644.2 838.1,675.1 808.8,675.1 808.8,634.1 765.9,634.1 765.9,654.2 734.3,654.2 734.3,640.8 696.5,640.8 
															"/>
						</g>
					</g>
				</g>
				<g>
					<g>
						<rect x="704.3" y="633.1" class="st1" width="29.9" height="14.5"/>
					</g>
				</g>
				<g>
					<g>
						<rect x="757" y="603" class="st1" width="29.9" height="14.5"/>
					</g>
				</g>
				<g>
					<g>
						<rect x="835.3" y="623.7" class="st1" width="29.9" height="14.5"/>
					</g>
				</g>
			</g>
			<g>
				<g>
					<path class="st3" d="M692.2,579.7h203.9v97.9H692.2V579.7z M887.5,585H700.8v87.5h186.6V585z"/>
				</g>
			</g>
		</g>
		<g>
			<rect x="793" y="585" class="st0" width="94.7" height="8.2"/>
		</g>
	</g>
</g>
<g>
	<g>
		<g>
			<g>
				<g>
					<g>
						<g>
							<rect x="9.7" y="487" class="st1" width="195.3" height="92.7"/>
						</g>
					</g>
					<g>
						<g>
							<polygon class="st2" points="9.7,525.4 27.1,525.4 27.1,496.4 99.4,496.4 99.4,508.7 160.4,508.7 160.4,528.8 205,528.8 
								205,548.9 151.3,548.9 151.3,579.7 122,579.7 122,538.8 79.1,538.8 79.1,558.9 47.4,558.9 47.4,545.5 9.7,545.5 							"/>
						</g>
					</g>
				</g>
				<g>
					<g>
						<rect x="17.5" y="537.8" class="st1" width="29.9" height="14.5"/>
					</g>
				</g>
				<g>
					<g>
						<rect x="70.2" y="507.7" class="st1" width="29.9" height="14.5"/>
					</g>
				</g>
				<g>
					<g>
						<rect x="148.5" y="528.4" class="st1" width="29.9" height="14.5"/>
					</g>
				</g>
			</g>
			<g>
				<g>
					<path class="st3" d="M5.4,484.4h203.9v97.9H5.4V484.4z M200.7,489.7H14v87.5h186.7V489.7z"/>
				</g>
			</g>
		</g>
		<g>
			<rect x="106.1" y="489.6" class="st0" width="94.7" height="8.2"/>
		</g>
	</g>
</g>
<g>
	<g>
		<g>
			<g>
				<g>
					<g>
						<g>
							<rect x="205.2" y="487" class="st1" width="195.3" height="92.7"/>
						</g>
					</g>
					<g>
						<g>
							<polygon class="st2" points="205.2,525.4 222.6,525.4 222.6,496.4 294.8,496.4 294.8,508.7 355.8,508.7 355.8,528.8 
								400.4,528.8 400.4,548.9 346.8,548.9 346.8,579.7 317.4,579.7 317.4,538.8 274.5,538.8 274.5,558.9 242.9,558.9 242.9,545.5 
								205.2,545.5 							"/>
						</g>
					</g>
				</g>
				<g>
					<g>
						<rect x="213" y="537.8" class="st1" width="29.9" height="14.5"/>
					</g>
				</g>
				<g>
					<g>
						<rect x="265.7" y="507.7" class="st1" width="29.9" height="14.5"/>
					</g>
				</g>
				<g>
					<g>
						<rect x="344" y="528.4" class="st1" width="29.9" height="14.5"/>
					</g>
				</g>
			</g>
			<g>
				<g>
					<path class="st3" d="M200.9,484.4h203.9v97.9H200.9V484.4z M396.1,489.7H209.5v87.5h186.7V489.7z"/>
				</g>
			</g>
		</g>
		<g>
			<rect x="301.6" y="489.6" class="st0" width="94.7" height="8.2"/>
		</g>
	</g>
</g>
<g>
	<g>
		<g>
			<g>
				<g>
					<g>
						<g>
							<rect x="400.6" y="487" class="st1" width="195.3" height="92.7"/>
						</g>
					</g>
					<g>
						<g>
							<polygon class="st2" points="400.6,525.4 418,525.4 418,496.4 490.3,496.4 490.3,508.7 551.3,508.7 551.3,528.8 595.9,528.8 
								595.9,548.9 542.2,548.9 542.2,579.7 512.9,579.7 512.9,538.8 470,538.8 470,558.9 438.4,558.9 438.4,545.5 400.6,545.5 
															"/>
						</g>
					</g>
				</g>
				<g>
					<g>
						<rect x="408.4" y="537.8" class="st1" width="29.9" height="14.5"/>
					</g>
				</g>
				<g>
					<g>
						<rect x="461.1" y="507.7" class="st1" width="29.9" height="14.5"/>
					</g>
				</g>
				<g>
					<g>
						<rect x="539.4" y="528.4" class="st1" width="29.9" height="14.5"/>
					</g>
				</g>
			</g>
			<g>
				<g>
					<path class="st3" d="M396.3,484.4h203.9v97.9H396.3V484.4z M591.6,489.7H404.9v87.5h186.6V489.7z"/>
				</g>
			</g>
		</g>
		<g>
			<rect x="497.1" y="489.6" class="st0" width="94.7" height="8.2"/>
		</g>
	</g>
</g>
<g>
	<g>
		<g>
			<g>
				<g>
					<g>
						<g>
							<rect x="596.1" y="487" class="st1" width="195.3" height="92.7"/>
						</g>
					</g>
					<g>
						<g>
							<polygon class="st2" points="596.1,525.4 613.5,525.4 613.5,496.4 685.8,496.4 685.8,508.7 746.7,508.7 746.7,528.8 
								791.4,528.8 791.4,548.9 737.7,548.9 737.7,579.7 708.4,579.7 708.4,538.8 665.4,538.8 665.4,558.9 633.8,558.9 633.8,545.5 
								596.1,545.5 							"/>
						</g>
					</g>
				</g>
				<g>
					<g>
						<rect x="603.9" y="537.8" class="st1" width="29.9" height="14.5"/>
					</g>
				</g>
				<g>
					<g>
						<rect x="656.6" y="507.7" class="st1" width="29.9" height="14.5"/>
					</g>
				</g>
				<g>
					<g>
						<rect x="734.9" y="528.4" class="st1" width="29.9" height="14.5"/>
					</g>
				</g>
			</g>
			<g>
				<g>
					<path class="st3" d="M591.8,484.4h203.9v97.9H591.8V484.4z M787.1,489.7H600.4v87.5h186.7V489.7z"/>
				</g>
			</g>
		</g>
		<g>
			<rect x="692.5" y="489.6" class="st0" width="94.7" height="8.2"/>
		</g>
	</g>
</g>
<g>
	<g>
		<g>
			<g>
				<g>
					<g>
						<g>
							<rect x="107.4" y="389.1" class="st1" width="195.3" height="92.7"/>
						</g>
					</g>
					<g>
						<g>
							<polygon class="st2" points="107.4,427.5 124.9,427.5 124.9,398.5 197.1,398.5 197.1,410.7 258.1,410.7 258.1,430.8 
								302.7,430.8 302.7,450.9 249.1,450.9 249.1,481.8 219.7,481.8 219.7,440.9 176.8,440.9 176.8,461 145.2,461 145.2,447.6 
								107.4,447.6 							"/>
						</g>
					</g>
				</g>
				<g>
					<g>
						<rect x="115.3" y="439.9" class="st1" width="29.9" height="14.5"/>
					</g>
				</g>
				<g>
					<g>
						<rect x="167.9" y="409.8" class="st1" width="29.9" height="14.5"/>
					</g>
				</g>
				<g>
					<g>
						<rect x="246.2" y="430.4" class="st1" width="29.9" height="14.5"/>
					</g>
				</g>
			</g>
			<g>
				<g>
					<path class="st3" d="M103.1,386.5H307v97.9H103.1V386.5z M298.4,391.7H111.7v87.5h186.7V391.7z"/>
				</g>
			</g>
		</g>
		<g>
			<rect x="203.9" y="391.7" class="st0" width="94.7" height="8.2"/>
		</g>
	</g>
</g>
<g>
	<g>
		<g>
			<g>
				<g>
					<g>
						<g>
							<rect x="302.9" y="389.1" class="st1" width="195.3" height="92.7"/>
						</g>
					</g>
					<g>
						<g>
							<polygon class="st2" points="302.9,427.5 320.3,427.5 320.3,398.5 392.6,398.5 392.6,410.7 453.5,410.7 453.5,430.8 
								498.2,430.8 498.2,450.9 444.5,450.9 444.5,481.8 415.2,481.8 415.2,440.9 372.3,440.9 372.3,461 340.6,461 340.6,447.6 
								302.9,447.6 							"/>
						</g>
					</g>
				</g>
				<g>
					<g>
						<rect x="310.7" y="439.9" class="st1" width="29.9" height="14.5"/>
					</g>
				</g>
				<g>
					<g>
						<rect x="363.4" y="409.8" class="st1" width="29.9" height="14.5"/>
					</g>
				</g>
				<g>
					<g>
						<rect x="441.7" y="430.4" class="st1" width="29.9" height="14.5"/>
					</g>
				</g>
			</g>
			<g>
				<g>
					<path class="st3" d="M298.6,386.5h203.9v97.9H298.6V386.5z M493.9,391.7H307.2v87.5h186.6V391.7z"/>
				</g>
			</g>
		</g>
		<g>
			<rect x="399.3" y="391.7" class="st0" width="94.7" height="8.2"/>
		</g>
	</g>
</g>
<g>
	<g>
		<g>
			<g>
				<g>
					<g>
						<g>
							<rect x="498.4" y="389.1" class="st1" width="195.3" height="92.7"/>
						</g>
					</g>
					<g>
						<g>
							<polygon class="st2" points="498.4,427.5 515.8,427.5 515.8,398.5 588,398.5 588,410.7 649,410.7 649,430.8 693.6,430.8 
								693.6,450.9 640,450.9 640,481.8 610.6,481.8 610.6,440.9 567.7,440.9 567.7,461 536.1,461 536.1,447.6 498.4,447.6 							
								"/>
						</g>
					</g>
				</g>
				<g>
					<g>
						<rect x="506.2" y="439.9" class="st1" width="29.9" height="14.5"/>
					</g>
				</g>
				<g>
					<g>
						<rect x="558.9" y="409.8" class="st1" width="29.9" height="14.5"/>
					</g>
				</g>
				<g>
					<g>
						<rect x="637.2" y="430.4" class="st1" width="29.9" height="14.5"/>
					</g>
				</g>
			</g>
			<g>
				<g>
					<path class="st3" d="M494.1,386.5h203.9v97.9H494.1V386.5z M689.3,391.7H502.7v87.5h186.7V391.7z"/>
				</g>
			</g>
		</g>
		<g>
			<rect x="594.8" y="391.7" class="st0" width="94.7" height="8.2"/>
		</g>
	</g>
</g>
<g>
	<g>
		<g>
			<g>
				<g>
					<g>
						<g>
							<rect x="693.8" y="389.1" class="st1" width="195.3" height="92.7"/>
						</g>
					</g>
					<g>
						<g>
							<polygon class="st2" points="693.8,427.5 711.2,427.5 711.2,398.5 783.5,398.5 783.5,410.7 844.5,410.7 844.5,430.8 
								889.1,430.8 889.1,450.9 835.4,450.9 835.4,481.8 806.1,481.8 806.1,440.9 763.2,440.9 763.2,461 731.6,461 731.6,447.6 
								693.8,447.6 							"/>
						</g>
					</g>
				</g>
				<g>
					<g>
						<rect x="701.6" y="439.9" class="st1" width="29.9" height="14.5"/>
					</g>
				</g>
				<g>
					<g>
						<rect x="754.3" y="409.8" class="st1" width="29.9" height="14.5"/>
					</g>
				</g>
				<g>
					<g>
						<rect x="832.6" y="430.4" class="st1" width="29.9" height="14.5"/>
					</g>
				</g>
			</g>
			<g>
				<g>
					<path class="st3" d="M689.5,386.5h203.9v97.9H689.5V386.5z M884.8,391.7H698.1v87.5h186.7V391.7z"/>
				</g>
			</g>
		</g>
		<g>
			<rect x="790.3" y="391.7" class="st0" width="94.7" height="8.2"/>
		</g>
	</g>
</g>
<g>
	<g>
		<g>
			<g>
				<g>
					<g>
						<g>
							<rect x="202.5" y="293.8" class="st1" width="195.3" height="92.7"/>
						</g>
					</g>
					<g>
						<g>
							<polygon class="st2" points="202.5,332.2 219.9,332.2 219.9,303.1 292.1,303.1 292.1,315.4 353.1,315.4 353.1,335.5 
								397.7,335.5 397.7,355.6 344.1,355.6 344.1,386.5 314.7,386.5 314.7,345.6 271.8,345.6 271.8,365.7 240.2,365.7 240.2,352.3 
								202.5,352.3 							"/>
						</g>
					</g>
				</g>
				<g>
					<g>
						<rect x="210.3" y="344.6" class="st1" width="29.9" height="14.5"/>
					</g>
				</g>
				<g>
					<g>
						<rect x="263" y="314.5" class="st1" width="29.9" height="14.5"/>
					</g>
				</g>
				<g>
					<g>
						<rect x="341.3" y="335.1" class="st1" width="29.9" height="14.5"/>
					</g>
				</g>
			</g>
			<g>
				<g>
					<path class="st3" d="M198.2,291.2H402v97.9H198.2V291.2z M393.4,296.4H206.8v87.5h186.7V296.4z"/>
				</g>
			</g>
		</g>
		<g>
			<rect x="298.9" y="296.4" class="st0" width="94.7" height="8.2"/>
		</g>
	</g>
</g>
<g>
	<g>
		<g>
			<g>
				<g>
					<g>
						<g>
							<rect x="397.9" y="293.8" class="st1" width="195.3" height="92.7"/>
						</g>
					</g>
					<g>
						<g>
							<polygon class="st2" points="397.9,332.2 415.3,332.2 415.3,303.1 487.6,303.1 487.6,315.4 548.6,315.4 548.6,335.5 
								593.2,335.5 593.2,355.6 539.6,355.6 539.6,386.5 510.2,386.5 510.2,345.6 467.3,345.6 467.3,365.7 435.7,365.7 435.7,352.3 
								397.9,352.3 							"/>
						</g>
					</g>
				</g>
				<g>
					<g>
						<rect x="405.7" y="344.6" class="st1" width="29.9" height="14.5"/>
					</g>
				</g>
				<g>
					<g>
						<rect x="458.4" y="314.5" class="st1" width="29.9" height="14.5"/>
					</g>
				</g>
				<g>
					<g>
						<rect x="536.7" y="335.1" class="st1" width="29.9" height="14.5"/>
					</g>
				</g>
			</g>
			<g>
				<g>
					<path class="st3" d="M393.6,291.2h203.9v97.9H393.6V291.2z M588.9,296.4H402.2v87.5h186.6V296.4z"/>
				</g>
			</g>
		</g>
		<g>
			<rect x="494.4" y="296.4" class="st0" width="94.7" height="8.2"/>
		</g>
	</g>
</g>
<g>
	<g>
		<g>
			<g>
				<g>
					<g>
						<g>
							<rect x="593.4" y="293.8" class="st1" width="195.3" height="92.7"/>
						</g>
					</g>
					<g>
						<g>
							<polygon class="st2" points="593.4,332.2 610.8,332.2 610.8,303.1 683.1,303.1 683.1,315.4 744,315.4 744,335.5 788.7,335.5 
								788.7,355.6 735,355.6 735,386.5 705.7,386.5 705.7,345.6 662.7,345.6 662.7,365.7 631.1,365.7 631.1,352.3 593.4,352.3 
															"/>
						</g>
					</g>
				</g>
				<g>
					<g>
						<rect x="601.2" y="344.6" class="st1" width="29.9" height="14.5"/>
					</g>
				</g>
				<g>
					<g>
						<rect x="653.9" y="314.5" class="st1" width="29.9" height="14.5"/>
					</g>
				</g>
				<g>
					<g>
						<rect x="732.2" y="335.1" class="st1" width="29.9" height="14.5"/>
					</g>
				</g>
			</g>
			<g>
				<g>
					<path class="st3" d="M589.1,291.2H793v97.9H589.1V291.2z M784.4,296.4H597.7v87.5h186.7V296.4z"/>
				</g>
			</g>
		</g>
		<g>
			<rect x="689.8" y="296.4" class="st0" width="94.7" height="8.2"/>
		</g>
	</g>
</g>
<g>
	<g>
		<g>
			<g>
				<g>
					<g>
						<g>
							<rect x="104.7" y="195.9" class="st1" width="195.3" height="92.7"/>
						</g>
					</g>
					<g>
						<g>
							<polygon class="st2" points="104.7,234.2 122.2,234.2 122.2,205.2 194.4,205.2 194.4,217.5 255.4,217.5 255.4,237.6 
								300,237.6 300,257.7 246.4,257.7 246.4,288.6 217,288.6 217,247.6 174.1,247.6 174.1,267.7 142.5,267.7 142.5,254.3 
								104.7,254.3 							"/>
						</g>
					</g>
				</g>
				<g>
					<g>
						<rect x="112.6" y="246.6" class="st1" width="29.9" height="14.5"/>
					</g>
				</g>
				<g>
					<g>
						<rect x="165.2" y="216.5" class="st1" width="29.9" height="14.5"/>
					</g>
				</g>
				<g>
					<g>
						<rect x="243.5" y="237.2" class="st1" width="29.9" height="14.5"/>
					</g>
				</g>
			</g>
			<g>
				<g>
					<path class="st3" d="M100.4,193.2h203.9v97.9H100.4V193.2z M295.7,198.5H109V286h186.7V198.5z"/>
				</g>
			</g>
		</g>
		<g>
			<rect x="201.2" y="198.5" class="st0" width="94.7" height="8.2"/>
		</g>
	</g>
</g>
<g>
	<g>
		<g>
			<g>
				<g>
					<g>
						<g>
							<rect x="300.2" y="195.9" class="st1" width="195.3" height="92.7"/>
						</g>
					</g>
					<g>
						<g>
							<polygon class="st2" points="300.2,234.2 317.6,234.2 317.6,205.2 389.9,205.2 389.9,217.5 450.8,217.5 450.8,237.6 
								495.5,237.6 495.5,257.7 441.8,257.7 441.8,288.6 412.5,288.6 412.5,247.6 369.6,247.6 369.6,267.7 337.9,267.7 337.9,254.3 
								300.2,254.3 							"/>
						</g>
					</g>
				</g>
				<g>
					<g>
						<rect x="308" y="246.6" class="st1" width="29.9" height="14.5"/>
					</g>
				</g>
				<g>
					<g>
						<rect x="360.7" y="216.5" class="st1" width="29.9" height="14.5"/>
					</g>
				</g>
				<g>
					<g>
						<rect x="439" y="237.2" class="st1" width="29.9" height="14.5"/>
					</g>
				</g>
			</g>
			<g>
				<g>
					<path class="st3" d="M295.9,193.2h203.9v97.9H295.9V193.2z M491.2,198.5H304.5V286h186.6V198.5z"/>
				</g>
			</g>
		</g>
		<g>
			<rect x="396.6" y="198.5" class="st0" width="94.7" height="8.2"/>
		</g>
	</g>
</g>
<g>
	<g>
		<g>
			<g>
				<g>
					<g>
						<g>
							<rect x="495.7" y="195.9" class="st1" width="195.3" height="92.7"/>
						</g>
					</g>
					<g>
						<g>
							<polygon class="st2" points="495.7,234.2 513.1,234.2 513.1,205.2 585.3,205.2 585.3,217.5 646.3,217.5 646.3,237.6 
								690.9,237.6 690.9,257.7 637.3,257.7 637.3,288.6 607.9,288.6 607.9,247.6 565,247.6 565,267.7 533.4,267.7 533.4,254.3 
								495.7,254.3 							"/>
						</g>
					</g>
				</g>
				<g>
					<g>
						<rect x="503.5" y="246.6" class="st1" width="29.9" height="14.5"/>
					</g>
				</g>
				<g>
					<g>
						<rect x="556.2" y="216.5" class="st1" width="29.9" height="14.5"/>
					</g>
				</g>
				<g>
					<g>
						<rect x="634.5" y="237.2" class="st1" width="29.9" height="14.5"/>
					</g>
				</g>
			</g>
			<g>
				<g>
					<path class="st3" d="M491.4,193.2h203.9v97.9H491.4V193.2z M686.6,198.5H500V286h186.7V198.5z"/>
				</g>
			</g>
		</g>
		<g>
			<rect x="592.1" y="198.5" class="st0" width="94.7" height="8.2"/>
		</g>
	</g>
</g>
<g>
	<g>
		<g>
			<g>
				<g>
					<g>
						<g>
							<rect x="691.1" y="195.9" class="st1" width="195.3" height="92.7"/>
						</g>
					</g>
					<g>
						<g>
							<polygon class="st2" points="691.1,234.2 708.5,234.2 708.5,205.2 780.8,205.2 780.8,217.5 841.8,217.5 841.8,237.6 
								886.4,237.6 886.4,257.7 832.7,257.7 832.7,288.6 803.4,288.6 803.4,247.6 760.5,247.6 760.5,267.7 728.9,267.7 728.9,254.3 
								691.1,254.3 							"/>
						</g>
					</g>
				</g>
				<g>
					<g>
						<rect x="698.9" y="246.6" class="st1" width="29.9" height="14.5"/>
					</g>
				</g>
				<g>
					<g>
						<rect x="751.6" y="216.5" class="st1" width="29.9" height="14.5"/>
					</g>
				</g>
				<g>
					<g>
						<rect x="829.9" y="237.2" class="st1" width="29.9" height="14.5"/>
					</g>
				</g>
			</g>
			<g>
				<g>
					<path class="st3" d="M686.8,193.2h203.9v97.9H686.8V193.2z M882.1,198.5H695.4V286h186.7V198.5z"/>
				</g>
			</g>
		</g>
		<g>
			<rect x="787.6" y="198.5" class="st0" width="94.7" height="8.2"/>
		</g>
	</g>
</g>
<g>
	<g>
		<g>
			<g>
				<g>
					<g>
						<g>
							<rect x="4.3" y="100.5" class="st1" width="195.3" height="92.7"/>
						</g>
					</g>
					<g>
						<g>
							<polygon class="st2" points="4.3,138.9 21.7,138.9 21.7,109.9 94,109.9 94,122.2 155,122.2 155,142.3 199.6,142.3 
								199.6,162.4 145.9,162.4 145.9,193.2 116.6,193.2 116.6,152.3 73.7,152.3 73.7,172.4 42,172.4 42,159 4.3,159 							"/>
						</g>
					</g>
				</g>
				<g>
					<g>
						<rect x="12.1" y="151.3" class="st1" width="29.9" height="14.5"/>
					</g>
				</g>
				<g>
					<g>
						<rect x="64.8" y="121.2" class="st1" width="29.9" height="14.5"/>
					</g>
				</g>
				<g>
					<g>
						<rect x="143.1" y="141.9" class="st1" width="29.9" height="14.5"/>
					</g>
				</g>
			</g>
			<g>
				<g>
					<path class="st3" d="M0,97.9h203.9v97.9H0V97.9z M195.3,103.2H8.6v87.5h186.7V103.2z"/>
				</g>
			</g>
		</g>
		<g>
			<rect x="100.7" y="103.2" class="st0" width="94.7" height="8.2"/>
		</g>
	</g>
</g>
<g>
	<g>
		<g>
			<g>
				<g>
					<g>
						<g>
							<rect x="199.8" y="100.5" class="st1" width="195.3" height="92.7"/>
						</g>
					</g>
					<g>
						<g>
							<polygon class="st2" points="199.8,138.9 217.2,138.9 217.2,109.9 289.5,109.9 289.5,122.2 350.4,122.2 350.4,142.3 
								395,142.3 395,162.4 341.4,162.4 341.4,193.2 312,193.2 312,152.3 269.1,152.3 269.1,172.4 237.5,172.4 237.5,159 199.8,159 
															"/>
						</g>
					</g>
				</g>
				<g>
					<g>
						<rect x="207.6" y="151.3" class="st1" width="29.9" height="14.5"/>
					</g>
				</g>
				<g>
					<g>
						<rect x="260.3" y="121.2" class="st1" width="29.9" height="14.5"/>
					</g>
				</g>
				<g>
					<g>
						<rect x="338.6" y="141.9" class="st1" width="29.9" height="14.5"/>
					</g>
				</g>
			</g>
			<g>
				<g>
					<path class="st3" d="M195.5,97.9h203.9v97.9H195.5V97.9z M390.7,103.2H204.1v87.5h186.7V103.2z"/>
				</g>
			</g>
		</g>
		<g>
			<rect x="296.2" y="103.2" class="st0" width="94.7" height="8.2"/>
		</g>
	</g>
</g>
<g>
	<g>
		<g>
			<g>
				<g>
					<g>
						<g>
							<rect x="395.2" y="100.5" class="st1" width="195.3" height="92.7"/>
						</g>
					</g>
					<g>
						<g>
							<polygon class="st2" points="395.2,138.9 412.6,138.9 412.6,109.9 484.9,109.9 484.9,122.2 545.9,122.2 545.9,142.3 
								590.5,142.3 590.5,162.4 536.9,162.4 536.9,193.2 507.5,193.2 507.5,152.3 464.6,152.3 464.6,172.4 433,172.4 433,159 
								395.2,159 							"/>
						</g>
					</g>
				</g>
				<g>
					<g>
						<rect x="403" y="151.3" class="st1" width="29.9" height="14.5"/>
					</g>
				</g>
				<g>
					<g>
						<rect x="455.7" y="121.2" class="st1" width="29.9" height="14.5"/>
					</g>
				</g>
				<g>
					<g>
						<rect x="534" y="141.9" class="st1" width="29.9" height="14.5"/>
					</g>
				</g>
			</g>
			<g>
				<g>
					<path class="st3" d="M390.9,97.9h203.9v97.9H390.9V97.9z M586.2,103.2H399.5v87.5h186.7V103.2z"/>
				</g>
			</g>
		</g>
		<g>
			<rect x="491.7" y="103.2" class="st0" width="94.7" height="8.2"/>
		</g>
	</g>
</g>
<g>
	<g>
		<g>
			<g>
				<g>
					<g>
						<g>
							<rect x="590.7" y="100.5" class="st1" width="195.3" height="92.7"/>
						</g>
					</g>
					<g>
						<g>
							<polygon class="st2" points="590.7,138.9 608.1,138.9 608.1,109.9 680.4,109.9 680.4,122.2 741.3,122.2 741.3,142.3 
								786,142.3 786,162.4 732.3,162.4 732.3,193.2 703,193.2 703,152.3 660,152.3 660,172.4 628.4,172.4 628.4,159 590.7,159 
															"/>
						</g>
					</g>
				</g>
				<g>
					<g>
						<rect x="598.5" y="151.3" class="st1" width="29.9" height="14.5"/>
					</g>
				</g>
				<g>
					<g>
						<rect x="651.2" y="121.2" class="st1" width="29.9" height="14.5"/>
					</g>
				</g>
				<g>
					<g>
						<rect x="729.5" y="141.9" class="st1" width="29.9" height="14.5"/>
					</g>
				</g>
			</g>
			<g>
				<g>
					<path class="st3" d="M586.4,97.9h203.9v97.9H586.4V97.9z M781.7,103.2H595v87.5h186.7V103.2z"/>
				</g>
			</g>
		</g>
		<g>
			<rect x="687.1" y="103.2" class="st0" width="94.7" height="8.2"/>
		</g>
	</g>
</g>
<g>
	<g>
		<g>
			<g>
				<g>
					<g>
						<g>
							<rect x="102" y="2.6" class="st1" width="195.3" height="92.7"/>
						</g>
					</g>
					<g>
						<g>
							<polygon class="st2" points="102,41 119.5,41 119.5,12 191.7,12 191.7,24.2 252.7,24.2 252.7,44.3 297.3,44.3 297.3,64.4 
								243.7,64.4 243.7,95.3 214.3,95.3 214.3,54.4 171.4,54.4 171.4,74.5 139.8,74.5 139.8,61.1 102,61.1 							"/>
						</g>
					</g>
				</g>
				<g>
					<g>
						<rect x="109.9" y="53.4" class="st1" width="29.9" height="14.5"/>
					</g>
				</g>
				<g>
					<g>
						<rect x="162.5" y="23.3" class="st1" width="29.9" height="14.5"/>
					</g>
				</g>
				<g>
					<g>
						<rect x="240.8" y="44" class="st1" width="29.9" height="14.5"/>
					</g>
				</g>
			</g>
			<g>
				<g>
					<path class="st3" d="M97.7,0h203.9v97.9H97.7V0z M293,5.2H106.3v87.5H293V5.2z"/>
				</g>
			</g>
		</g>
		<g>
			<rect x="198.5" y="5.2" class="st0" width="94.7" height="8.2"/>
		</g>
	</g>
</g>
<g>
	<g>
		<g>
			<g>
				<g>
					<g>
						<g>
							<rect x="297.5" y="2.6" class="st1" width="195.3" height="92.7"/>
						</g>
					</g>
					<g>
						<g>
							<polygon class="st2" points="297.5,41 314.9,41 314.9,12 387.2,12 387.2,24.2 448.2,24.2 448.2,44.3 492.8,44.3 492.8,64.4 
								439.1,64.4 439.1,95.3 409.8,95.3 409.8,54.4 366.9,54.4 366.9,74.5 335.2,74.5 335.2,61.1 297.5,61.1 							"/>
						</g>
					</g>
				</g>
				<g>
					<g>
						<rect x="305.3" y="53.4" class="st1" width="29.9" height="14.5"/>
					</g>
				</g>
				<g>
					<g>
						<rect x="358" y="23.3" class="st1" width="29.9" height="14.5"/>
					</g>
				</g>
				<g>
					<g>
						<rect x="436.3" y="44" class="st1" width="29.9" height="14.5"/>
					</g>
				</g>
			</g>
			<g>
				<g>
					<path class="st3" d="M293.2,0h203.9v97.9H293.2V0z M488.5,5.2H301.8v87.5h186.6V5.2z"/>
				</g>
			</g>
		</g>
		<g>
			<rect x="393.9" y="5.2" class="st0" width="94.7" height="8.2"/>
		</g>
	</g>
</g>
<g>
	<g>
		<g>
			<g>
				<g>
					<g>
						<g>
							<rect x="493" y="2.6" class="st1" width="195.3" height="92.7"/>
						</g>
					</g>
					<g>
						<g>
							<polygon class="st2" points="493,41 510.4,41 510.4,12 582.6,12 582.6,24.2 643.6,24.2 643.6,44.3 688.2,44.3 688.2,64.4 
								634.6,64.4 634.6,95.3 605.2,95.3 605.2,54.4 562.3,54.4 562.3,74.5 530.7,74.5 530.7,61.1 493,61.1 							"/>
						</g>
					</g>
				</g>
				<g>
					<g>
						<rect x="500.8" y="53.4" class="st1" width="29.9" height="14.5"/>
					</g>
				</g>
				<g>
					<g>
						<rect x="553.5" y="23.3" class="st1" width="29.9" height="14.5"/>
					</g>
				</g>
				<g>
					<g>
						<rect x="631.8" y="44" class="st1" width="29.9" height="14.5"/>
					</g>
				</g>
			</g>
			<g>
				<g>
					<path class="st3" d="M488.7,0h203.9v97.9H488.7V0z M683.9,5.2H497.3v87.5h186.7V5.2z"/>
				</g>
			</g>
		</g>
		<g>
			<rect x="589.4" y="5.2" class="st0" width="94.7" height="8.2"/>
		</g>
	</g>
</g>
<g>
	<g>
		<g>
			<g>
				<g>
					<g>
						<g>
							<rect x="688.4" y="2.6" class="st1" width="195.3" height="92.7"/>
						</g>
					</g>
					<g>
						<g>
							<polygon class="st2" points="688.4,41 705.8,41 705.8,12 778.1,12 778.1,24.2 839.1,24.2 839.1,44.3 883.7,44.3 883.7,64.4 
								830,64.4 830,95.3 800.7,95.3 800.7,54.4 757.8,54.4 757.8,74.5 726.2,74.5 726.2,61.1 688.4,61.1 							"/>
						</g>
					</g>
				</g>
				<g>
					<g>
						<rect x="696.2" y="53.4" class="st1" width="29.9" height="14.5"/>
					</g>
				</g>
				<g>
					<g>
						<rect x="748.9" y="23.3" class="st1" width="29.9" height="14.5"/>
					</g>
				</g>
				<g>
					<g>
						<rect x="827.2" y="44" class="st1" width="29.9" height="14.5"/>
					</g>
				</g>
			</g>
			<g>
				<g>
					<path class="st3" d="M684.1,0H888v97.9H684.1V0z M879.4,5.2H692.7v87.5h186.7V5.2z"/>
				</g>
			</g>
		</g>
		<g>
			<rect x="784.9" y="5.2" class="st0" width="94.7" height="8.2"/>
		</g>
	</g>
</g>
</svg>
