<svg xmlns="http://www.w3.org/2000/svg" viewBox="0 0 287.57 273.25">
  <defs>
    <style>
      .cls-1 {
        fill: #f6c800;
      }

      .cls-2 {
        fill: #1d1d1b;
      }

      .cls-3 {
        fill: #fff;
      }

      .cls-4 {
        fill: #eaa61d;
      }

      .cls-5 {
        fill: #e68e20;
      }
    </style>
  </defs>
  <g id="Layer_4" data-name="Layer 4">
    <g>
      <rect class="cls-1" x="241.56" y="109.37" width="11.5" height="10.93"/>
      <g>
        <polygon class="cls-1" points="172.54 109.3 184.04 109.3 195.55 109.3 207.05 109.3 218.55 109.3 230.05 109.3 241.56 109.3 241.56 98.37 230.05 98.37 218.55 98.37 207.05 98.37 195.55 98.37 184.04 98.37 184.04 87.44 172.54 87.44 172.54 98.37 172.54 109.3"/>
        <rect class="cls-2" x="207.35" y="98.37" width="34.21" height="10.93"/>
        <polygon class="cls-1" points="172.54 65.59 161.04 65.59 161.04 76.52 161.04 87.44 172.54 87.44 172.54 76.52 172.54 65.59"/>
        <polygon class="cls-1" points="161.04 43.72 149.54 43.72 149.54 32.79 149.54 21.86 138.03 21.86 138.03 32.79 138.03 43.72 138.03 54.65 126.53 54.65 126.53 65.59 126.53 76.52 126.53 87.44 115.03 87.44 115.03 98.37 115.03 109.3 103.52 109.3 92.02 109.3 80.52 109.3 69.02 109.3 57.52 109.3 57.52 120.23 57.52 131.16 69.02 131.16 69.02 142.09 80.52 142.09 80.52 153.02 92.02 153.02 92.02 163.95 92.02 174.88 92.02 185.81 92.02 196.74 92.02 207.67 92.02 218.6 103.52 218.6 115.03 218.6 115.03 207.67 126.53 207.67 138.03 207.67 138.03 196.74 149.54 196.74 161.04 196.74 161.04 207.67 172.54 207.67 172.54 218.6 184.04 218.6 184.04 229.53 195.55 229.53 195.55 240.46 207.05 240.46 207.05 251.4 218.55 251.4 218.55 240.46 218.55 229.53 218.55 218.6 207.05 218.6 207.05 207.67 207.05 196.74 207.05 185.81 207.05 174.88 195.55 174.88 195.55 163.95 195.55 153.02 207.05 153.02 218.55 153.02 218.55 142.09 230.05 142.09 230.05 131.16 241.56 131.16 241.56 120.23 230.05 120.23 218.55 120.23 207.05 120.23 195.55 120.23 195.55 131.16 184.04 131.16 172.54 131.16 161.04 131.16 161.04 120.23 161.04 109.3 161.04 98.37 149.54 98.37 149.54 87.44 149.54 76.52 149.54 65.59 161.04 65.59 161.04 54.65 161.04 43.72"/>
      </g>
      <g>
        <polygon class="cls-2" points="69.02 251.4 69.02 240.46 69.02 229.53 69.02 218.6 57.52 218.6 57.52 229.53 57.52 240.46 57.52 251.4 57.52 262.32 57.52 273.25 69.02 273.25 69.02 262.32 80.52 262.32 92.02 262.32 92.02 251.4 80.52 251.4 69.02 251.4"/>
        <rect class="cls-2" x="184.04" y="240.46" width="11.5" height="10.94"/>
        <rect class="cls-2" x="92.02" y="240.46" width="11.5" height="10.94"/>
        <polygon class="cls-2" points="218.55 240.46 218.55 251.4 207.05 251.4 195.55 251.4 195.55 262.32 207.05 262.32 218.55 262.32 218.55 273.25 230.05 273.25 230.05 262.32 230.05 251.4 230.05 240.46 230.05 229.53 218.55 229.53 218.55 240.46"/>
        <polygon class="cls-2" points="172.54 229.53 161.04 229.53 161.04 240.46 172.54 240.46 184.04 240.46 184.04 229.53 172.54 229.53"/>
        <polygon class="cls-2" points="103.52 229.53 103.52 240.46 115.03 240.46 126.53 240.46 126.53 229.53 115.03 229.53 103.52 229.53"/>
        <polygon class="cls-2" points="149.54 218.6 138.03 218.6 126.53 218.6 126.53 229.53 138.03 229.53 149.54 229.53 161.04 229.53 161.04 218.6 149.54 218.6"/>
        <polygon class="cls-2" points="80.52 207.67 80.52 196.74 80.52 185.81 80.52 174.88 80.52 163.95 69.02 163.95 69.02 174.88 69.02 185.81 69.02 196.74 69.02 207.67 69.02 218.6 80.52 218.6 80.52 207.67"/>
        <polygon class="cls-2" points="207.05 174.88 207.05 185.81 207.05 196.74 218.55 196.74 218.55 185.81 218.55 174.88 218.55 163.95 207.05 163.95 207.05 174.88"/>
        <rect class="cls-2" x="218.55" y="153.02" width="11.5" height="10.93"/>
        <rect class="cls-2" x="57.51" y="153.02" width="11.5" height="10.93"/>
        <rect class="cls-2" x="230.05" y="142.09" width="11.5" height="10.93"/>
        <rect class="cls-2" x="46.01" y="142.09" width="11.5" height="10.93"/>
        <rect class="cls-2" x="241.56" y="131.16" width="11.5" height="10.93"/>
        <rect class="cls-2" x="34.51" y="131.16" width="11.5" height="10.93"/>
        <rect class="cls-2" x="253.06" y="120.23" width="11.5" height="10.93"/>
        <rect class="cls-2" x="23.01" y="120.23" width="11.5" height="10.93"/>
        <polygon class="cls-2" points="276.07 98.37 264.56 98.37 253.06 98.37 241.56 98.37 241.56 109.3 253.06 109.3 264.56 109.3 264.56 120.23 276.07 120.23 276.07 109.3 287.57 109.3 287.57 98.37 276.07 98.37"/>
        <polygon class="cls-2" points="34.51 109.3 46.01 109.3 57.52 109.3 69.02 109.3 80.52 109.3 80.52 98.37 69.02 98.37 57.52 98.37 46.01 98.37 34.51 98.37 23.01 98.37 11.5 98.37 0 98.37 0 109.3 11.5 109.3 11.5 120.23 23.01 120.23 23.01 109.3 34.51 109.3"/>
        <polygon class="cls-2" points="195.55 98.37 207.05 98.37 207.05 87.44 195.55 87.44 184.04 87.44 184.04 98.37 195.55 98.37"/>
        <polygon class="cls-2" points="103.52 98.37 103.52 87.44 92.02 87.44 80.52 87.44 80.52 98.37 92.02 98.37 103.52 98.37"/>
        <polygon class="cls-2" points="115.03 76.52 115.03 65.59 103.52 65.59 103.52 76.52 103.52 87.44 115.03 87.44 115.03 76.52"/>
        <polygon class="cls-2" points="184.04 65.59 172.54 65.59 172.54 76.52 172.54 87.44 184.04 87.44 184.04 76.52 184.04 65.59"/>
        <polygon class="cls-2" points="126.53 54.65 126.53 43.72 115.03 43.72 115.03 54.65 115.03 65.59 126.53 65.59 126.53 54.65"/>
        <rect class="cls-2" x="161.04" y="43.72" width="11.5" height="10.93"/>
        <polygon class="cls-2" points="161.04 21.86 149.54 21.86 149.54 32.79 149.54 43.72 161.04 43.72 161.04 32.79 161.04 21.86"/>
        <rect class="cls-2" x="126.53" y="21.86" width="11.5" height="10.93"/>
        <rect class="cls-2" x="138.03" width="11.5" height="10.93"/>
      </g>
      <polygon class="cls-3" points="241.56 109.3 230.05 109.3 218.55 109.3 207.05 109.3 195.55 109.3 184.04 109.3 172.54 109.3 172.54 98.37 172.54 87.44 161.04 87.44 161.04 76.52 161.04 65.59 149.54 65.59 149.54 76.52 149.54 87.44 149.54 98.37 161.04 98.37 161.04 109.3 161.04 120.23 161.04 131.16 172.54 131.16 184.04 131.16 184.04 131.16 195.55 131.16 195.55 120.23 195.55 120.23 207.05 120.23 218.55 120.23 230.05 120.23 241.56 120.23 253.06 120.23 253.06 109.3 241.56 109.3"/>
      <g>
        <rect class="cls-4" x="195.55" y="240.46" width="11.5" height="10.94"/>
        <rect class="cls-4" x="184.04" y="229.53" width="11.5" height="10.93"/>
        <rect class="cls-2" x="218.55" y="218.6" width="11.5" height="10.93"/>
        <polygon class="cls-5" points="172.54 218.6 172.54 207.67 161.04 207.67 161.04 196.74 149.54 196.74 138.03 196.74 138.03 207.67 126.53 207.67 115.03 207.67 115.03 218.6 103.52 218.6 92.02 218.6 92.02 207.67 92.02 196.74 92.02 185.81 92.02 174.88 92.02 163.95 92.02 153.02 80.52 153.02 80.52 142.09 69.02 142.09 69.02 131.16 57.52 131.16 57.52 120.23 57.52 109.3 46.01 109.3 34.51 109.3 23.01 109.3 23.01 120.23 34.51 120.23 34.51 131.16 46.01 131.16 46.01 142.09 57.52 142.09 57.52 153.02 69.02 153.02 69.02 163.95 80.52 163.95 80.52 174.88 80.52 185.81 80.52 196.74 80.52 207.67 80.52 218.6 69.02 218.6 69.02 229.53 69.02 240.46 69.02 251.4 80.52 251.4 92.02 251.4 92.02 240.46 103.52 240.46 103.52 229.53 115.03 229.53 126.53 229.53 126.53 218.6 138.03 218.6 149.54 218.6 161.04 218.6 161.04 229.53 172.54 229.53 184.04 229.53 184.04 218.6 172.54 218.6"/>
        <polygon class="cls-2" points="218.55 196.74 207.05 196.74 207.05 207.67 207.05 218.6 218.55 218.6 218.55 207.67 218.55 196.74"/>
        <polygon class="cls-4" points="195.55 153.02 195.55 163.95 195.55 174.88 207.05 174.88 207.05 163.95 218.55 163.95 218.55 153.02 207.05 153.02 195.55 153.02"/>
        <rect class="cls-4" x="218.55" y="142.09" width="11.5" height="10.93"/>
        <rect class="cls-4" x="230.05" y="131.16" width="11.5" height="10.93"/>
        <polygon class="cls-4" points="253.06 109.3 241.56 109.3 241.56 120.23 241.56 131.16 253.06 131.16 253.06 120.23 264.56 120.23 264.56 109.3 253.06 109.3"/>
        <polygon class="cls-4" points="103.52 109.3 115.03 109.3 115.03 98.37 115.03 87.44 103.52 87.44 103.52 98.37 92.02 98.37 80.52 98.37 80.52 109.3 92.02 109.3 103.52 109.3"/>
        <polygon class="cls-4" points="126.53 76.52 126.53 65.59 115.03 65.59 115.03 76.52 115.03 87.44 126.53 87.44 126.53 76.52"/>
        <rect class="cls-2" x="161.04" y="54.65" width="11.5" height="10.94"/>
        <polygon class="cls-2" points="138.03 43.72 138.03 32.79 126.53 32.79 126.53 43.72 126.53 54.65 138.03 54.65 138.03 43.72"/>
        <rect class="cls-2" x="138.03" y="10.93" width="11.5" height="10.93"/>
      </g>
    </g>
  </g>
</svg>
