<?xml version="1.0" encoding="utf-8"?>
<!-- Generator: Adobe Illustrator 25.2.1, SVG Export Plug-In . SVG Version: 6.00 Build 0)  -->
<svg version="1.1" id="Capa_1" xmlns="http://www.w3.org/2000/svg" xmlns:xlink="http://www.w3.org/1999/xlink" x="0px" y="0px"
	 viewBox="0 0 589.8 560.2" style="enable-background:new 0 0 589.8 560.2;" xml:space="preserve">
<style type="text/css">
	.st0{fill:#2BBCEE;}
	.st1{fill:#61C6ED;}
	.st2{fill:#8AD1F0;}
	.st3{fill:#A3C254;}
	.st4{fill:#8BA748;}
	.st5{fill:#7F4D2E;}
	.st6{fill:#945835;}
	.st7{fill:#A37458;}
	.st8{fill:#C1E5F5;}
	.st9{fill:#FFFFFF;}
	.st10{fill:#9D5728;}
	.st11{fill:#AA5E2B;}
	.st12{fill:#864C25;}
	.st13{fill:none;stroke:#512F17;stroke-width:9.9456;stroke-miterlimit:10;}
	.st14{fill:#F7C804;}
	.st15{fill:#EAA71E;}
	.st16{fill:#D73B5D;}
	.st17{fill:#E32221;}
	.st18{fill:#B73C6B;}
	.st19{fill:#383F37;}
	.st20{fill:#BECC54;}
	.st21{fill:#B9BCC3;}
	.st22{fill:#93A850;}
	.st23{fill:#ACB186;}
	.st24{fill:#82868A;}
	.st25{fill:#2E322D;}
	.st26{fill:#2A2A28;}
	.st27{fill:#D65A7F;}
	.st28{fill:#D9DA84;}
	.st29{fill:#F2A317;}
	.st30{fill:#FAF1CE;}
	.st31{fill:#FDCD00;}
	.st32{fill:#E68F21;}
	.st33{fill:#D5ECF2;}
	.st34{fill:#FAD169;}
	.st35{fill:#E28835;}
</style>
<g>
	<rect x="495.4" y="224.1" class="st14" width="23.6" height="22.4"/>
	<g>
		<polygon class="st14" points="353.9,224.1 377.5,224.1 401.1,224.1 424.7,224.1 448.3,224.1 471.9,224.1 495.4,224.1 495.4,201.6 
			471.9,201.6 448.3,201.6 424.7,201.6 401.1,201.6 377.5,201.6 377.5,179 353.9,179 353.9,201.6 		"/>
		<rect x="425.3" y="201.6" width="70.1" height="22.4"/>
		<polygon class="st14" points="353.9,134.3 330.4,134.3 330.4,156.9 330.4,179 353.9,179 353.9,156.9 		"/>
		<polygon class="st14" points="330.4,89.6 306.8,89.6 306.8,67.1 306.8,44.5 283.2,44.5 283.2,67.1 283.2,89.6 283.2,111.8 
			259.6,111.8 259.6,134.3 259.6,156.9 259.6,179 236,179 236,201.6 236,224.1 212.4,224.1 188.9,224.1 165.1,224.1 141.5,224.1 
			117.9,224.1 117.9,246.5 117.9,268.6 141.5,268.6 141.5,291.2 165.1,291.2 165.1,313.7 188.9,313.7 188.9,335.9 188.9,358.2 
			188.9,380.8 188.9,403.4 188.9,425.5 188.9,448.1 212.4,448.1 236,448.1 236,425.5 259.6,425.5 283.2,425.5 283.2,403.4 
			306.8,403.4 330.4,403.4 330.4,425.5 353.9,425.5 353.9,448.1 377.5,448.1 377.5,470.6 401.1,470.6 401.1,492.8 424.7,492.8 
			424.7,515.3 448.3,515.3 448.3,492.8 448.3,470.6 448.3,448.1 424.7,448.1 424.7,425.5 424.7,403.4 424.7,380.8 424.7,358.2 
			401.1,358.2 401.1,335.9 401.1,313.7 424.7,313.7 448.3,313.7 448.3,291.2 471.9,291.2 471.9,268.6 495.4,268.6 495.4,246.5 
			471.9,246.5 448.3,246.5 424.7,246.5 401.1,246.5 401.1,268.6 377.5,268.6 353.9,268.6 330.4,268.6 330.4,246.5 330.4,224.1 
			330.4,201.6 306.8,201.6 306.8,179 306.8,156.9 306.8,134.3 330.4,134.3 330.4,111.8 		"/>
	</g>
	<g>
		<polygon points="141.5,515.3 141.5,492.8 141.5,470.6 141.5,448.1 117.9,448.1 117.9,470.6 117.9,492.8 117.9,515.3 117.9,537.9 
			117.9,560.2 141.5,560.2 141.5,537.9 165.1,537.9 188.9,537.9 188.9,515.3 165.1,515.3 		"/>
		<rect x="377.5" y="492.8" width="23.6" height="22.4"/>
		<rect x="188.9" y="492.8" width="23.6" height="22.4"/>
		<polygon points="448.3,492.8 448.3,515.3 424.7,515.3 401.1,515.3 401.1,537.9 424.7,537.9 448.3,537.9 448.3,560.2 471.9,560.2 
			471.9,537.9 471.9,515.3 471.9,492.8 471.9,470.6 448.3,470.6 		"/>
		<polygon points="353.9,470.6 330.4,470.6 330.4,492.8 353.9,492.8 377.5,492.8 377.5,470.6 		"/>
		<polygon points="212.4,470.6 212.4,492.8 236,492.8 259.6,492.8 259.6,470.6 236,470.6 		"/>
		<polygon points="306.8,448.1 283.2,448.1 259.6,448.1 259.6,470.6 283.2,470.6 306.8,470.6 330.4,470.6 330.4,448.1 		"/>
		<polygon points="165.1,425.5 165.1,403.4 165.1,380.8 165.1,358.2 165.1,335.9 141.5,335.9 141.5,358.2 141.5,380.8 141.5,403.4 
			141.5,425.5 141.5,448.1 165.1,448.1 		"/>
		<polygon points="424.7,358.2 424.7,380.8 424.7,403.4 448.3,403.4 448.3,380.8 448.3,358.2 448.3,335.9 424.7,335.9 		"/>
		<rect x="448.3" y="313.7" width="23.6" height="22.4"/>
		<rect x="117.9" y="313.7" width="23.6" height="22.4"/>
		<rect x="471.9" y="291.2" width="23.6" height="22.4"/>
		<rect x="94.3" y="291.2" width="23.6" height="22.4"/>
		<rect x="495.4" y="268.6" width="23.6" height="22.4"/>
		<rect x="70.7" y="268.6" width="23.6" height="22.4"/>
		<rect x="519" y="246.5" width="23.6" height="22.4"/>
		<rect x="47.2" y="246.5" width="23.6" height="22.4"/>
		<polygon points="566.2,201.6 542.6,201.6 519,201.6 495.4,201.6 495.4,224.1 519,224.1 542.6,224.1 542.6,246.5 566.2,246.5 
			566.2,224.1 589.8,224.1 589.8,201.6 		"/>
		<polygon points="70.7,224.1 94.3,224.1 117.9,224.1 141.5,224.1 165.1,224.1 165.1,201.6 141.5,201.6 117.9,201.6 94.3,201.6 
			70.7,201.6 47.2,201.6 23.6,201.6 0,201.6 0,224.1 23.6,224.1 23.6,246.5 47.2,246.5 47.2,224.1 		"/>
		<polygon points="401.1,201.6 424.7,201.6 424.7,179 401.1,179 377.5,179 377.5,201.6 		"/>
		<polygon points="212.4,201.6 212.4,179 188.9,179 165.1,179 165.1,201.6 188.9,201.6 		"/>
		<polygon points="236,156.9 236,134.3 212.4,134.3 212.4,156.9 212.4,179 236,179 		"/>
		<polygon points="377.5,134.3 353.9,134.3 353.9,156.9 353.9,179 377.5,179 377.5,156.9 		"/>
		<polygon points="259.6,111.8 259.6,89.6 236,89.6 236,111.8 236,134.3 259.6,134.3 		"/>
		<rect x="330.4" y="89.6" width="23.6" height="22.4"/>
		<polygon points="330.4,44.5 306.8,44.5 306.8,67.1 306.8,89.6 330.4,89.6 330.4,67.1 		"/>
		<rect x="259.6" y="44.5" width="23.6" height="22.4"/>
		<rect x="283.2" width="23.6" height="22.4"/>
	</g>
	<polygon class="st9" points="495.4,224.1 471.9,224.1 448.3,224.1 424.7,224.1 401.1,224.1 377.5,224.1 353.9,224.1 353.9,201.6 
		353.9,179 330.4,179 330.4,156.9 330.4,134.3 306.8,134.3 306.8,156.9 306.8,179 306.8,201.6 330.4,201.6 330.4,224.1 330.4,246.5 
		330.4,268.6 353.9,268.6 377.5,268.6 377.5,268.6 401.1,268.6 401.1,246.5 401.1,246.5 424.7,246.5 448.3,246.5 471.9,246.5 
		495.4,246.5 519,246.5 519,224.1 	"/>
	<g>
		<rect x="401.1" y="492.8" class="st15" width="23.6" height="22.4"/>
		<rect x="377.5" y="470.6" class="st15" width="23.6" height="22.4"/>
		<rect x="448.3" y="448.1" width="23.6" height="22.4"/>
		<polygon class="st32" points="353.9,448.1 353.9,425.5 330.4,425.5 330.4,403.4 306.8,403.4 283.2,403.4 283.2,425.5 259.6,425.5 
			236,425.5 236,448.1 212.4,448.1 188.9,448.1 188.9,425.5 188.9,403.4 188.9,380.8 188.9,358.2 188.9,335.9 188.9,313.7 
			165.1,313.7 165.1,291.2 141.5,291.2 141.5,268.6 117.9,268.6 117.9,246.5 117.9,224.1 94.3,224.1 70.7,224.1 47.2,224.1 
			47.2,246.5 70.7,246.5 70.7,268.6 94.3,268.6 94.3,291.2 117.9,291.2 117.9,313.7 141.5,313.7 141.5,335.9 165.1,335.9 
			165.1,358.2 165.1,380.8 165.1,403.4 165.1,425.5 165.1,448.1 141.5,448.1 141.5,470.6 141.5,492.8 141.5,515.3 165.1,515.3 
			188.9,515.3 188.9,492.8 212.4,492.8 212.4,470.6 236,470.6 259.6,470.6 259.6,448.1 283.2,448.1 306.8,448.1 330.4,448.1 
			330.4,470.6 353.9,470.6 377.5,470.6 377.5,448.1 		"/>
		<polygon points="448.3,403.4 424.7,403.4 424.7,425.5 424.7,448.1 448.3,448.1 448.3,425.5 		"/>
		<polygon class="st15" points="401.1,313.7 401.1,335.9 401.1,358.2 424.7,358.2 424.7,335.9 448.3,335.9 448.3,313.7 424.7,313.7 
					"/>
		<rect x="448.3" y="291.2" class="st15" width="23.6" height="22.4"/>
		<rect x="471.9" y="268.6" class="st15" width="23.6" height="22.4"/>
		<polygon class="st15" points="519,224.1 495.4,224.1 495.4,246.5 495.4,268.6 519,268.6 519,246.5 542.6,246.5 542.6,224.1 		"/>
		<polygon class="st15" points="212.4,224.1 236,224.1 236,201.6 236,179 212.4,179 212.4,201.6 188.9,201.6 165.1,201.6 
			165.1,224.1 188.9,224.1 		"/>
		<polygon class="st15" points="259.6,156.9 259.6,134.3 236,134.3 236,156.9 236,179 259.6,179 		"/>
		<rect x="330.4" y="111.8" width="23.6" height="22.4"/>
		<polygon points="283.2,89.6 283.2,67.1 259.6,67.1 259.6,89.6 259.6,111.8 283.2,111.8 		"/>
		<rect x="283.2" y="22.1" width="23.6" height="22.4"/>
	</g>
</g>
</svg>
