<svg xmlns="http://www.w3.org/2000/svg" viewBox="0 0 232.21 277.72">
  <defs>
    <style>
      .cls-1 {
        fill: #fff;
      }

      .cls-2 {
        fill: #221e20;
      }

      .cls-3 {
        fill: none;
      }
    </style>
  </defs>
  <g id="items-to-use">
    <polygon class="cls-1" points="187.55 255.2 196.48 255.2 205.41 255.2 205.41 247.69 205.41 240.19 214.34 240.19 214.34 232.68 214.34 225.18 214.34 217.67 214.34 210.16 214.34 202.66 214.34 195.15 214.34 187.65 214.34 180.14 214.34 172.63 214.34 165.13 214.34 157.62 214.34 150.12 214.34 142.61 214.34 135.1 214.34 127.6 214.34 120.09 214.34 112.59 214.34 105.08 214.34 97.58 214.34 90.07 214.34 82.56 214.34 75.06 214.34 67.55 214.34 60.05 214.34 52.54 214.34 45.03 214.34 37.53 214.34 30.02 205.41 30.02 205.41 22.52 196.48 22.52 196.48 15.01 187.55 15.01 178.62 15.01 169.69 15.01 160.76 15.01 151.83 15.01 142.9 15.01 133.97 15.01 125.03 15.01 116.1 15.01 107.17 15.01 98.24 15.01 89.31 15.01 80.38 15.01 71.45 15.01 62.52 15.01 53.59 15.01 44.65 15.01 44.65 22.52 35.73 22.52 26.79 22.52 26.79 30.02 17.86 30.02 17.86 37.53 17.86 45.03 17.86 52.54 17.86 60.05 17.86 67.55 17.86 75.06 17.86 82.56 17.86 90.07 17.86 97.58 17.86 105.08 17.86 112.59 17.86 120.09 17.86 127.6 17.86 135.1 17.86 142.61 17.86 150.12 17.86 157.62 17.86 165.13 17.86 172.63 17.86 180.14 17.86 187.65 17.86 195.15 17.86 202.66 17.86 210.16 17.86 217.67 17.86 225.18 17.86 232.68 17.86 240.19 26.79 240.19 26.79 247.69 35.73 247.69 35.73 255.2 44.65 255.2 44.65 262.7 53.59 262.7 62.52 262.7 71.45 262.7 80.38 262.7 89.31 262.7 98.24 262.7 107.17 262.7 116.1 262.7 125.03 262.7 133.97 262.7 142.9 262.7 151.83 262.7 160.76 262.7 169.69 262.7 178.62 262.7 187.55 262.7 187.55 255.2"/>
    <g id="vert-text-box">
      <path id="alert-box" class="cls-2" d="M223.28,37.53v-15h-8.94V15h-8.93V7.5h-8.93V0H35.72V7.5H26.79V15H18.12v6.35H8.62V29.2H0V232.68H8.93V255.2h8.93v7.51h8.93v7.5H44.65v7.51h142.9v-7.51h17.86v-7.5h8.93V255.2h8.94v-15h8.93V37.53Zm-8.94,0V240.19h-8.93v15H187.55v7.51H44.65V255.2H35.72v-7.51H26.79v-7.5H17.86V30h8.93v-7.5H44.65V15H196.48v7.51h8.93V30h8.93Z"/>
      <rect id="btn-holder" class="cls-3" x="63.92" y="198.9" width="104.37" height="51.32"/>
      <rect id="text-holder" class="cls-3" x="26.93" y="34.8" width="178.35" height="126.57"/>
    </g>
  </g>
</svg>
